%TF.GenerationSoftware,KiCad,Pcbnew,8.0.1*%
%TF.CreationDate,2024-04-25T09:35:45+09:00*%
%TF.ProjectId,TangNanoDCJ11MEM,54616e67-4e61-46e6-9f44-434a31314d45,rev?*%
%TF.SameCoordinates,Original*%
%TF.FileFunction,Soldermask,Top*%
%TF.FilePolarity,Negative*%
%FSLAX46Y46*%
G04 Gerber Fmt 4.6, Leading zero omitted, Abs format (unit mm)*
G04 Created by KiCad (PCBNEW 8.0.1) date 2024-04-25 09:35:45*
%MOMM*%
%LPD*%
G01*
G04 APERTURE LIST*
G04 Aperture macros list*
%AMRoundRect*
0 Rectangle with rounded corners*
0 $1 Rounding radius*
0 $2 $3 $4 $5 $6 $7 $8 $9 X,Y pos of 4 corners*
0 Add a 4 corners polygon primitive as box body*
4,1,4,$2,$3,$4,$5,$6,$7,$8,$9,$2,$3,0*
0 Add four circle primitives for the rounded corners*
1,1,$1+$1,$2,$3*
1,1,$1+$1,$4,$5*
1,1,$1+$1,$6,$7*
1,1,$1+$1,$8,$9*
0 Add four rect primitives between the rounded corners*
20,1,$1+$1,$2,$3,$4,$5,0*
20,1,$1+$1,$4,$5,$6,$7,0*
20,1,$1+$1,$6,$7,$8,$9,0*
20,1,$1+$1,$8,$9,$2,$3,0*%
G04 Aperture macros list end*
%ADD10C,3.000000*%
%ADD11C,1.600000*%
%ADD12O,1.600000X1.600000*%
%ADD13C,2.000000*%
%ADD14R,1.700000X1.700000*%
%ADD15O,1.700000X1.700000*%
%ADD16C,1.500000*%
%ADD17R,3.500000X3.500000*%
%ADD18RoundRect,0.750000X0.750000X1.000000X-0.750000X1.000000X-0.750000X-1.000000X0.750000X-1.000000X0*%
%ADD19RoundRect,0.875000X0.875000X0.875000X-0.875000X0.875000X-0.875000X-0.875000X0.875000X-0.875000X0*%
%ADD20R,1.800000X1.800000*%
%ADD21C,1.800000*%
%ADD22C,1.700000*%
%ADD23R,1.600000X2.400000*%
%ADD24O,1.600000X2.400000*%
%ADD25R,1.600000X1.600000*%
G04 APERTURE END LIST*
D10*
%TO.C,REF\u002A\u002A*%
X93980000Y-93980000D03*
%TD*%
D11*
%TO.C,R8*%
X20320000Y-40640000D03*
D12*
X20320000Y-48260000D03*
%TD*%
D13*
%TO.C,SW2*%
X69850000Y-86360000D03*
X76350000Y-86360000D03*
X69850000Y-90860000D03*
X76350000Y-90860000D03*
%TD*%
D11*
%TO.C,R11*%
X40640000Y-40640000D03*
D12*
X40640000Y-48260000D03*
%TD*%
D11*
%TO.C,R9*%
X22860000Y-40640000D03*
D12*
X22860000Y-48260000D03*
%TD*%
D14*
%TO.C,J8*%
X7620000Y-53340000D03*
D15*
X10160000Y-53340000D03*
X12700000Y-53340000D03*
X15240000Y-53340000D03*
X17780000Y-53340000D03*
X20320000Y-53340000D03*
X22860000Y-53340000D03*
X25400000Y-53340000D03*
X27940000Y-53340000D03*
X30480000Y-53340000D03*
X33020000Y-53340000D03*
X35560000Y-53340000D03*
X38100000Y-53340000D03*
X40640000Y-53340000D03*
X43180000Y-53340000D03*
X45720000Y-53340000D03*
X48260000Y-53340000D03*
X50800000Y-53340000D03*
X53340000Y-53340000D03*
X55880000Y-53340000D03*
X58420000Y-53340000D03*
X60960000Y-53340000D03*
X63500000Y-53340000D03*
X66040000Y-53340000D03*
X68580000Y-53340000D03*
X71120000Y-53340000D03*
X73660000Y-53340000D03*
X76200000Y-53340000D03*
X78740000Y-53340000D03*
X81280000Y-53340000D03*
%TD*%
D11*
%TO.C,R13*%
X76200000Y-40640000D03*
D12*
X76200000Y-48260000D03*
%TD*%
D11*
%TO.C,R1*%
X91440000Y-81280000D03*
D12*
X83820000Y-81280000D03*
%TD*%
D11*
%TO.C,R15*%
X78740000Y-27940000D03*
D12*
X78740000Y-20320000D03*
%TD*%
D11*
%TO.C,R14*%
X53340000Y-27940000D03*
D12*
X53340000Y-20320000D03*
%TD*%
D14*
%TO.C,J7*%
X88900000Y-17780000D03*
D15*
X88900000Y-20320000D03*
X88900000Y-22860000D03*
X88900000Y-25400000D03*
X88900000Y-27940000D03*
X88900000Y-30480000D03*
%TD*%
D14*
%TO.C,J3*%
X91440000Y-71120000D03*
D15*
X88900000Y-71120000D03*
X86360000Y-71120000D03*
%TD*%
D14*
%TO.C,J6*%
X12700000Y-64770000D03*
D15*
X15240000Y-64770000D03*
X17780000Y-64770000D03*
X20320000Y-64770000D03*
X22860000Y-64770000D03*
X25400000Y-64770000D03*
X27940000Y-64770000D03*
X30480000Y-64770000D03*
X33020000Y-64770000D03*
X35560000Y-64770000D03*
X38100000Y-64770000D03*
X40640000Y-64770000D03*
X43180000Y-64770000D03*
X45720000Y-64770000D03*
X48260000Y-64770000D03*
X50800000Y-64770000D03*
X53340000Y-64770000D03*
X55880000Y-64770000D03*
X58420000Y-64770000D03*
X60960000Y-64770000D03*
%TD*%
D11*
%TO.C,R5*%
X35560000Y-40640000D03*
D12*
X35560000Y-48260000D03*
%TD*%
D16*
%TO.C,Y1*%
X69650000Y-6985000D03*
X64770000Y-6985000D03*
%TD*%
D17*
%TO.C,J1*%
X85090000Y-64457500D03*
D18*
X91090000Y-64457500D03*
D19*
X88090000Y-59757500D03*
%TD*%
D20*
%TO.C,D1*%
X88900000Y-76200000D03*
D21*
X91440000Y-76200000D03*
%TD*%
D11*
%TO.C,C4*%
X59690000Y-7620000D03*
X59690000Y-5120000D03*
%TD*%
%TO.C,C5*%
X74930000Y-7620000D03*
X74930000Y-5120000D03*
%TD*%
%TO.C,C2*%
X45720000Y-55880000D03*
X43220000Y-55880000D03*
%TD*%
%TO.C,R7*%
X7620000Y-40640000D03*
D12*
X7620000Y-48260000D03*
%TD*%
D10*
%TO.C,REF\u002A\u002A*%
X5080000Y-5080000D03*
%TD*%
D11*
%TO.C,R10*%
X25400000Y-40630000D03*
D12*
X25400000Y-48250000D03*
%TD*%
D11*
%TO.C,R3*%
X30480000Y-40640000D03*
D12*
X30480000Y-48260000D03*
%TD*%
D13*
%TO.C,SW3*%
X81280000Y-86360000D03*
X87780000Y-86360000D03*
X81280000Y-90860000D03*
X87780000Y-90860000D03*
%TD*%
D11*
%TO.C,R12*%
X73660000Y-40640000D03*
D12*
X73660000Y-48260000D03*
%TD*%
D14*
%TO.C,J2*%
X7620000Y-62230000D03*
D15*
X7620000Y-64770000D03*
%TD*%
D22*
%TO.C,JP1*%
X78740000Y-5080000D03*
D15*
X78740000Y-7620000D03*
%TD*%
D11*
%TO.C,R17*%
X63500000Y-11430000D03*
D12*
X71120000Y-11430000D03*
%TD*%
D23*
%TO.C,U1*%
X7620000Y-50800000D03*
D24*
X10160000Y-50800000D03*
X12700000Y-50800000D03*
X15240000Y-50800000D03*
X17780000Y-50800000D03*
X20320000Y-50800000D03*
X22860000Y-50800000D03*
X25400000Y-50800000D03*
X27940000Y-50800000D03*
X30480000Y-50800000D03*
X33020000Y-50800000D03*
X35560000Y-50800000D03*
X38100000Y-50800000D03*
X40640000Y-50800000D03*
X43180000Y-50800000D03*
X45720000Y-50800000D03*
X48260000Y-50800000D03*
X50800000Y-50800000D03*
X53340000Y-50800000D03*
X55880000Y-50800000D03*
X58420000Y-50800000D03*
X60960000Y-50800000D03*
X63500000Y-50800000D03*
X66040000Y-50800000D03*
X68580000Y-50800000D03*
X71120000Y-50800000D03*
X73660000Y-50800000D03*
X76200000Y-50800000D03*
X78740000Y-50800000D03*
X81280000Y-50800000D03*
X81280000Y-17780000D03*
X78740000Y-17780000D03*
X76200000Y-17780000D03*
X73660000Y-17780000D03*
X71120000Y-17780000D03*
X68580000Y-17780000D03*
X66040000Y-17780000D03*
X63500000Y-17780000D03*
X60960000Y-17780000D03*
X58420000Y-17780000D03*
X55880000Y-17780000D03*
X53340000Y-17780000D03*
X50800000Y-17780000D03*
X48260000Y-17780000D03*
X45720000Y-17780000D03*
X43180000Y-17780000D03*
X40640000Y-17780000D03*
X38100000Y-17780000D03*
X35560000Y-17780000D03*
X33020000Y-17780000D03*
X30480000Y-17780000D03*
X27940000Y-17780000D03*
X25400000Y-17780000D03*
X22860000Y-17780000D03*
X20320000Y-17780000D03*
X17780000Y-17780000D03*
X15240000Y-17780000D03*
X12700000Y-17780000D03*
X10160000Y-17780000D03*
X7620000Y-17780000D03*
%TD*%
D11*
%TO.C,C1*%
X43180000Y-12700000D03*
X45680000Y-12700000D03*
%TD*%
%TO.C,R6*%
X38100000Y-40640000D03*
D12*
X38100000Y-48260000D03*
%TD*%
D11*
%TO.C,R2*%
X27940000Y-40640000D03*
D12*
X27940000Y-48260000D03*
%TD*%
D25*
%TO.C,J4*%
X12700000Y-86360000D03*
D12*
X15240000Y-86360000D03*
X17780000Y-86360000D03*
X20320000Y-86360000D03*
X22860000Y-86360000D03*
X25400000Y-86360000D03*
X27940000Y-86360000D03*
X30480000Y-86360000D03*
X33020000Y-86360000D03*
X35560000Y-86360000D03*
X38100000Y-86360000D03*
X40640000Y-86360000D03*
X43180000Y-86360000D03*
X45720000Y-86360000D03*
X48260000Y-86360000D03*
X50800000Y-86360000D03*
X53340000Y-86360000D03*
X55880000Y-86360000D03*
X58420000Y-86360000D03*
X60960000Y-86360000D03*
X60960000Y-71120000D03*
X58420000Y-71120000D03*
X55880000Y-71120000D03*
X53340000Y-71120000D03*
X50800000Y-71120000D03*
X48260000Y-71120000D03*
X45720000Y-71120000D03*
X43180000Y-71120000D03*
X40640000Y-71120000D03*
X38100000Y-71120000D03*
X35560000Y-71120000D03*
X33020000Y-71120000D03*
X30480000Y-71120000D03*
X27940000Y-71120000D03*
X25400000Y-71120000D03*
X22860000Y-71120000D03*
X20320000Y-71120000D03*
X17780000Y-71120000D03*
X15240000Y-71120000D03*
X12700000Y-71120000D03*
%TD*%
D11*
%TO.C,R16*%
X81280000Y-27940000D03*
D12*
X81280000Y-20320000D03*
%TD*%
D11*
%TO.C,R4*%
X33020000Y-40640000D03*
D12*
X33020000Y-48260000D03*
%TD*%
D14*
%TO.C,J5*%
X12700000Y-92710000D03*
D15*
X15240000Y-92710000D03*
X17780000Y-92710000D03*
X20320000Y-92710000D03*
X22860000Y-92710000D03*
X25400000Y-92710000D03*
X27940000Y-92710000D03*
X30480000Y-92710000D03*
X33020000Y-92710000D03*
X35560000Y-92710000D03*
X38100000Y-92710000D03*
X40640000Y-92710000D03*
X43180000Y-92710000D03*
X45720000Y-92710000D03*
X48260000Y-92710000D03*
X50800000Y-92710000D03*
X53340000Y-92710000D03*
X55880000Y-92710000D03*
X58420000Y-92710000D03*
X60960000Y-92710000D03*
%TD*%
D10*
%TO.C,REF\u002A\u002A*%
X5080000Y-93980000D03*
%TD*%
D25*
%TO.C,C3*%
X75017621Y-63500000D03*
D11*
X77517621Y-63500000D03*
%TD*%
D21*
%TO.C,SW1*%
X78740000Y-81280000D03*
X78740000Y-71120000D03*
D20*
X78740000Y-78740000D03*
D21*
X78740000Y-76240000D03*
X78740000Y-73740000D03*
%TD*%
D14*
%TO.C,J9*%
X7620000Y-15240000D03*
D15*
X10160000Y-15240000D03*
X12700000Y-15240000D03*
X15240000Y-15240000D03*
X17780000Y-15240000D03*
X20320000Y-15240000D03*
X22860000Y-15240000D03*
X25400000Y-15240000D03*
X27940000Y-15240000D03*
X30480000Y-15240000D03*
X33020000Y-15240000D03*
X35560000Y-15240000D03*
X38100000Y-15240000D03*
X40640000Y-15240000D03*
X43180000Y-15240000D03*
X45720000Y-15240000D03*
X48260000Y-15240000D03*
X50800000Y-15240000D03*
X53340000Y-15240000D03*
X55880000Y-15240000D03*
X58420000Y-15240000D03*
X60960000Y-15240000D03*
X63500000Y-15240000D03*
X66040000Y-15240000D03*
X68580000Y-15240000D03*
X71120000Y-15240000D03*
X73660000Y-15240000D03*
X76200000Y-15240000D03*
X78740000Y-15240000D03*
X81280000Y-15240000D03*
%TD*%
D10*
%TO.C,REF\u002A\u002A*%
X93980000Y-5080000D03*
%TD*%
M02*
