M48
; DRILL file {KiCad 8.0.5} date 2025-09-05T11:18:22+0900
; FORMAT={-:-/ absolute / inch / decimal}
; #@! TF.CreationDate,2025-09-05T11:18:22+09:00
; #@! TF.GenerationSoftware,Kicad,Pcbnew,8.0.5
; #@! TF.FileFunction,Plated,1,2,PTH
FMAT,2
INCH
; #@! TA.AperFunction,Plated,PTH,ViaDrill
T1C0.0157
; #@! TA.AperFunction,Plated,PTH,ComponentDrill
T2C0.0315
; #@! TA.AperFunction,Plated,PTH,ComponentDrill
T3C0.0354
; #@! TA.AperFunction,Plated,PTH,ComponentDrill
T4C0.0394
; #@! TA.AperFunction,Plated,PTH,ComponentDrill
T5C0.0433
%
G90
G05
T1
X1.0Y-3.2785
X1.05Y-3.0
X1.1Y-3.2785
X1.15Y-3.0
X1.8Y-1.1
X1.8Y-1.6
X2.0Y-3.05
X2.0Y-3.25
X2.625Y-2.55
X3.3Y-0.85
X3.4Y-1.6
T2
X0.25Y-2.4016
X0.25Y-2.5
X0.3Y-0.7
X0.3Y-1.6
X0.3Y-1.9
X0.3Y-2.0
X0.4Y-0.7
X0.4Y-2.0
X0.5Y-0.7
X0.5Y-2.0
X0.5Y-2.8
X0.5Y-3.4
X0.6Y-0.7
X0.6Y-2.0
X0.6Y-2.8
X0.6Y-3.4
X0.7Y-0.7
X0.7Y-2.0
X0.7Y-2.8
X0.7Y-3.4
X0.8Y-0.7
X0.8Y-1.6
X0.8Y-1.9
X0.8Y-2.0
X0.8Y-2.8
X0.8Y-3.4
X0.9Y-0.7
X0.9Y-1.6
X0.9Y-1.9
X0.9Y-2.0
X0.9Y-2.8
X0.9Y-3.4
X1.0Y-0.7
X1.0Y-2.0
X1.0Y-2.8
X1.0Y-3.4
X1.1Y-0.7
X1.1Y-1.6
X1.1Y-1.9
X1.1Y-2.0
X1.1Y-2.8
X1.1Y-3.4
X1.2Y-0.7
X1.2Y-2.0
X1.2Y-2.8
X1.2Y-3.4
X1.3Y-0.7
X1.3Y-2.0
X1.3Y-2.8
X1.3Y-3.4
X1.4Y-0.7
X1.4Y-1.6
X1.4Y-1.9
X1.4Y-2.0
X1.4Y-2.8
X1.4Y-3.4
X1.5Y-0.7
X1.5Y-1.6
X1.5Y-1.9
X1.5Y-2.0
X1.5Y-2.8
X1.5Y-3.4
X1.6Y-0.7
X1.6Y-1.6
X1.6Y-1.9
X1.6Y-2.0
X1.6Y-2.8
X1.6Y-3.4
X1.7Y-0.5
X1.7Y-0.7
X1.7Y-2.0
X1.7Y-2.8
X1.7Y-3.4
X1.7016Y-2.2
X1.7984Y-0.5
X1.8Y-0.7
X1.8Y-2.0
X1.8Y-2.2
X1.8Y-2.8
X1.8Y-3.4
X1.9Y-0.7
X1.9Y-2.0
X1.9Y-2.8
X1.9Y-3.4
X2.0Y-0.7
X2.0Y-2.0
X2.0Y-2.8
X2.0Y-3.4
X2.1Y-0.7
X2.1Y-0.8
X2.1Y-1.1
X2.1Y-2.0
X2.1Y-2.8
X2.1Y-3.4
X2.2Y-0.7
X2.2Y-2.0
X2.2Y-2.8
X2.2Y-3.4
X2.3Y-0.7
X2.3Y-2.0
X2.3Y-2.8
X2.3Y-3.4
X2.35Y-0.2016
X2.35Y-0.3
X2.4Y-0.7
X2.4Y-2.0
X2.4Y-2.8
X2.4Y-3.4
X2.5Y-0.45
X2.5Y-0.7
X2.5Y-2.0
X2.55Y-0.275
X2.6Y-0.7
X2.6Y-2.0
X2.7Y-0.7
X2.7Y-2.0
X2.7421Y-0.275
X2.75Y-3.25
X2.8Y-0.45
X2.8Y-0.7
X2.8Y-2.0
X2.9Y-0.7
X2.9Y-1.6
X2.9Y-1.9
X2.9Y-2.0
X2.95Y-0.2016
X2.95Y-0.3
X3.0Y-0.7
X3.0Y-0.8
X3.0Y-1.1
X3.0Y-1.6
X3.0Y-1.9
X3.0Y-2.0
X3.05Y-3.25
X3.1Y-0.3
X3.1Y-0.7
X3.1Y-2.0
X3.2Y-0.7
X3.2Y-0.8
X3.2Y-1.1
X3.2Y-2.0
X3.2Y-2.55
X3.4Y-0.3
X3.5Y-2.55
T3
X3.2Y-2.4
X3.3Y-2.4
T4
X0.3Y-0.6
X0.3Y-2.1
X0.4Y-0.6
X0.4Y-2.1
X0.5Y-0.6
X0.5Y-2.1
X0.5Y-2.55
X0.5Y-3.65
X0.6Y-0.6
X0.6Y-2.1
X0.6Y-2.55
X0.6Y-3.65
X0.7Y-0.6
X0.7Y-2.1
X0.7Y-2.55
X0.7Y-3.65
X0.8Y-0.6
X0.8Y-2.1
X0.8Y-2.55
X0.8Y-3.65
X0.9Y-0.6
X0.9Y-2.1
X0.9Y-2.55
X0.9Y-3.65
X1.0Y-0.6
X1.0Y-2.1
X1.0Y-2.55
X1.0Y-3.65
X1.1Y-0.6
X1.1Y-2.1
X1.1Y-2.55
X1.1Y-3.65
X1.2Y-0.6
X1.2Y-2.1
X1.2Y-2.55
X1.2Y-3.65
X1.3Y-0.6
X1.3Y-2.1
X1.3Y-2.55
X1.3Y-3.65
X1.4Y-0.6
X1.4Y-2.1
X1.4Y-2.55
X1.4Y-3.65
X1.5Y-0.6
X1.5Y-2.1
X1.5Y-2.55
X1.5Y-3.65
X1.6Y-0.6
X1.6Y-2.1
X1.6Y-2.55
X1.6Y-3.65
X1.7Y-0.6
X1.7Y-2.1
X1.7Y-2.55
X1.7Y-3.65
X1.8Y-0.6
X1.8Y-2.1
X1.8Y-2.55
X1.8Y-3.65
X1.9Y-0.6
X1.9Y-2.1
X1.9Y-2.55
X1.9Y-3.65
X2.0Y-0.6
X2.0Y-2.1
X2.0Y-2.55
X2.0Y-3.65
X2.1Y-0.6
X2.1Y-2.1
X2.1Y-2.55
X2.1Y-3.65
X2.2Y-0.6
X2.2Y-2.1
X2.2Y-2.55
X2.2Y-3.65
X2.3Y-0.6
X2.3Y-2.1
X2.3Y-2.55
X2.3Y-3.65
X2.4Y-0.6
X2.4Y-2.1
X2.4Y-2.55
X2.4Y-3.65
X2.5Y-0.6
X2.5Y-2.1
X2.6Y-0.6
X2.6Y-2.1
X2.7Y-0.6
X2.7Y-2.1
X2.8Y-0.6
X2.8Y-2.1
X2.9Y-0.6
X2.9Y-2.1
X3.0Y-0.6
X3.0Y-2.1
X3.1Y-0.6
X3.1Y-2.1
X3.2Y-0.6
X3.2Y-2.1
X3.5Y-0.7
X3.5Y-0.8
X3.5Y-0.9
X3.5Y-1.0
X3.5Y-1.1
X3.5Y-1.2
T5
X3.2Y-2.75
X3.2Y-2.9272
X3.2Y-3.25
X3.2Y-3.4272
X3.4559Y-2.75
X3.4559Y-2.9272
X3.4559Y-3.25
X3.4559Y-3.4272
M30
