%TF.GenerationSoftware,KiCad,Pcbnew,8.0.5*%
%TF.CreationDate,2025-09-13T13:30:50+09:00*%
%TF.ProjectId,TangNanoDCJ11MEM,54616e67-4e61-46e6-9f44-434a31314d45,rev?*%
%TF.SameCoordinates,Original*%
%TF.FileFunction,Copper,L1,Top*%
%TF.FilePolarity,Positive*%
%FSLAX46Y46*%
G04 Gerber Fmt 4.6, Leading zero omitted, Abs format (unit mm)*
G04 Created by KiCad (PCBNEW 8.0.5) date 2025-09-13 13:30:50*
%MOMM*%
%LPD*%
G01*
G04 APERTURE LIST*
%TA.AperFunction,ComponentPad*%
%ADD10R,1.700000X1.700000*%
%TD*%
%TA.AperFunction,ComponentPad*%
%ADD11O,1.700000X1.700000*%
%TD*%
%TA.AperFunction,SMDPad,CuDef*%
%ADD12R,0.558800X1.981200*%
%TD*%
%TA.AperFunction,ComponentPad*%
%ADD13C,1.600000*%
%TD*%
%TA.AperFunction,ComponentPad*%
%ADD14O,1.600000X1.600000*%
%TD*%
%TA.AperFunction,ComponentPad*%
%ADD15C,2.000000*%
%TD*%
%TA.AperFunction,ComponentPad*%
%ADD16R,2.000000X2.000000*%
%TD*%
%TA.AperFunction,ComponentPad*%
%ADD17O,2.000000X2.000000*%
%TD*%
%TA.AperFunction,ComponentPad*%
%ADD18C,1.500000*%
%TD*%
%TA.AperFunction,ComponentPad*%
%ADD19R,1.800000X1.800000*%
%TD*%
%TA.AperFunction,ComponentPad*%
%ADD20C,1.800000*%
%TD*%
%TA.AperFunction,ComponentPad*%
%ADD21R,1.600000X2.400000*%
%TD*%
%TA.AperFunction,ComponentPad*%
%ADD22O,1.600000X2.400000*%
%TD*%
%TA.AperFunction,ComponentPad*%
%ADD23R,1.600000X1.600000*%
%TD*%
%TA.AperFunction,ComponentPad*%
%ADD24C,1.700000*%
%TD*%
%TA.AperFunction,ViaPad*%
%ADD25C,0.800000*%
%TD*%
%TA.AperFunction,Conductor*%
%ADD26C,0.250000*%
%TD*%
%TA.AperFunction,Conductor*%
%ADD27C,2.000000*%
%TD*%
%TA.AperFunction,Conductor*%
%ADD28C,0.500000*%
%TD*%
%TA.AperFunction,Conductor*%
%ADD29C,1.000000*%
%TD*%
%TA.AperFunction,Conductor*%
%ADD30C,3.000000*%
%TD*%
G04 APERTURE END LIST*
D10*
%TO.P,J6,1,Pin_1*%
%TO.N,GND*%
X88900000Y-22860000D03*
D11*
%TO.P,J6,2,Pin_2*%
%TO.N,+5V*%
X88900000Y-20320000D03*
%TO.P,J6,3,Pin_3*%
%TO.N,LED_RGB*%
X88900000Y-17780000D03*
%TO.P,J6,4,Pin_4*%
%TO.N,GND*%
X88900000Y-15240000D03*
%TD*%
D12*
%TO.P,U4,1,NC*%
%TO.N,unconnected-(U4-NC-Pad1)*%
X42545000Y-40246300D03*
%TO.P,U4,2,A1*%
%TO.N,AIO0*%
X43815000Y-40246300D03*
%TO.P,U4,3,A2*%
%TO.N,DAL4*%
X45085000Y-40246300D03*
%TO.P,U4,4,A3*%
%TO.N,INIT_n*%
X46355000Y-40246300D03*
%TO.P,U4,5,A4*%
%TO.N,DAL5*%
X47625000Y-40246300D03*
%TO.P,U4,6,A5*%
%TO.N,AIO1*%
X48895000Y-40246300D03*
%TO.P,U4,7,A6*%
%TO.N,BUFCTL_n*%
X50165000Y-40246300D03*
%TO.P,U4,8,A7*%
%TO.N,AIO2*%
X51435000Y-40246300D03*
%TO.P,U4,9,A8*%
%TO.N,AIO3*%
X52705000Y-40246300D03*
%TO.P,U4,10,GND*%
%TO.N,GND*%
X53975000Y-40246300D03*
%TO.P,U4,11,B8*%
%TO.N,AIO3_L*%
X53975000Y-30873700D03*
%TO.P,U4,12,B7*%
%TO.N,AIO2_L*%
X52705000Y-30873700D03*
%TO.P,U4,13,B6*%
%TO.N,BUFCTL_n_L*%
X51435000Y-30873700D03*
%TO.P,U4,14,B5*%
%TO.N,AIO1_L*%
X50165000Y-30873700D03*
%TO.P,U4,15,B4*%
%TO.N,DAL5_L*%
X48895000Y-30873700D03*
%TO.P,U4,16,B3*%
%TO.N,INIT_n_L*%
X47625000Y-30873700D03*
%TO.P,U4,17,B2*%
%TO.N,DAL4_L*%
X46355000Y-30873700D03*
%TO.P,U4,18,B1*%
%TO.N,AIO0_L*%
X45085000Y-30873700D03*
%TO.P,U4,19,\u002AOE*%
%TO.N,OE_n*%
X43815000Y-30873700D03*
%TO.P,U4,20,VCC*%
%TO.N,+3.3V*%
X42545000Y-30873700D03*
%TD*%
D13*
%TO.P,R4,1*%
%TO.N,+5V*%
X22860000Y-78740000D03*
D14*
%TO.P,R4,2*%
%TO.N,PWRF_n*%
X22860000Y-86360000D03*
%TD*%
D15*
%TO.P,SW1,1,1*%
%TO.N,+3.3V*%
X89535000Y-63500000D03*
X96035000Y-63500000D03*
%TO.P,SW1,2,2*%
%TO.N,INIT_SW*%
X89535000Y-68000000D03*
X96035000Y-68000000D03*
%TD*%
D16*
%TO.P,D1,1,K*%
%TO.N,HALT*%
X90170000Y-74930000D03*
D17*
%TO.P,D1,2,A*%
%TO.N,HALT_DBG*%
X95250000Y-74930000D03*
%TD*%
D13*
%TO.P,R9,1*%
%TO.N,+5V*%
X43180000Y-78740000D03*
D14*
%TO.P,R9,2*%
%TO.N,PARITY_n*%
X43180000Y-86360000D03*
%TD*%
D13*
%TO.P,R5,1*%
%TO.N,+5V*%
X25400000Y-78740000D03*
D14*
%TO.P,R5,2*%
%TO.N,FPE_n*%
X25400000Y-86360000D03*
%TD*%
D10*
%TO.P,J2,1,Pin_1*%
%TO.N,TEST1_n*%
X10160000Y-91440000D03*
D11*
%TO.P,J2,2,Pin_2*%
%TO.N,AIO0*%
X12700000Y-91440000D03*
%TO.P,J2,3,Pin_3*%
%TO.N,AIO1*%
X15240000Y-91440000D03*
%TO.P,J2,4,Pin_4*%
%TO.N,AIO2*%
X17780000Y-91440000D03*
%TO.P,J2,5,Pin_5*%
%TO.N,AIO3*%
X20320000Y-91440000D03*
%TO.P,J2,6,Pin_6*%
%TO.N,PWRF_n*%
X22860000Y-91440000D03*
%TO.P,J2,7,Pin_7*%
%TO.N,FPE_n*%
X25400000Y-91440000D03*
%TO.P,J2,8,Pin_8*%
%TO.N,EVENT_n*%
X27940000Y-91440000D03*
%TO.P,J2,9,Pin_9*%
%TO.N,HALT*%
X30480000Y-91440000D03*
%TO.P,J2,10,Pin_10*%
%TO.N,IRQ0*%
X33020000Y-91440000D03*
%TO.P,J2,11,Pin_11*%
%TO.N,IRQ1*%
X35560000Y-91440000D03*
%TO.P,J2,12,Pin_12*%
%TO.N,IRQ2*%
X38100000Y-91440000D03*
%TO.P,J2,13,Pin_13*%
%TO.N,IRQ3*%
X40640000Y-91440000D03*
%TO.P,J2,14,Pin_14*%
%TO.N,PARITY_n*%
X43180000Y-91440000D03*
%TO.P,J2,15,Pin_15*%
%TO.N,GND*%
X45720000Y-91440000D03*
%TO.P,J2,16,Pin_16*%
%TO.N,+5V*%
X48260000Y-91440000D03*
%TO.P,J2,17,Pin_17*%
%TO.N,BS0*%
X50800000Y-91440000D03*
%TO.P,J2,18,Pin_18*%
%TO.N,BS1*%
X53340000Y-91440000D03*
%TO.P,J2,19,Pin_19*%
%TO.N,MAP_n*%
X55880000Y-91440000D03*
%TO.P,J2,20,Pin_20*%
%TO.N,ABORT_n*%
X58420000Y-91440000D03*
%TO.P,J2,21,Pin_21*%
%TO.N,DAL21*%
X60960000Y-91440000D03*
%TO.P,J2,22,Pin_22*%
%TO.N,DAL20*%
X63500000Y-91440000D03*
%TO.P,J2,23,Pin_23*%
%TO.N,DAL19*%
X66040000Y-91440000D03*
%TO.P,J2,24,Pin_24*%
%TO.N,DAL18*%
X68580000Y-91440000D03*
%TO.P,J2,25,Pin_25*%
%TO.N,DAL17*%
X71120000Y-91440000D03*
%TO.P,J2,26,Pin_26*%
%TO.N,DAL16*%
X73660000Y-91440000D03*
%TO.P,J2,27,Pin_27*%
%TO.N,DMR_n*%
X76200000Y-91440000D03*
%TO.P,J2,28,Pin_28*%
%TO.N,MISS_n*%
X78740000Y-91440000D03*
%TO.P,J2,29,Pin_29*%
%TO.N,PRDC_n*%
X81280000Y-91440000D03*
%TO.P,J2,30,Pin_30*%
%TO.N,unconnected-(J2-Pin_30-Pad30)*%
X83820000Y-91440000D03*
%TD*%
D13*
%TO.P,C5,1*%
%TO.N,+3.3V*%
X40005000Y-34330000D03*
%TO.P,C5,2*%
%TO.N,GND*%
X40005000Y-36830000D03*
%TD*%
%TO.P,R11,1*%
%TO.N,+5V*%
X78740000Y-78740000D03*
D14*
%TO.P,R11,2*%
%TO.N,MISS_n*%
X78740000Y-86360000D03*
%TD*%
%TO.P,R16,2*%
%TO.N,Net-(LED1-K)*%
X96520000Y-58420000D03*
D13*
%TO.P,R16,1*%
%TO.N,GND*%
X88900000Y-58420000D03*
%TD*%
%TO.P,R2,1*%
%TO.N,CLK2*%
X81280000Y-45720000D03*
D14*
%TO.P,R2,2*%
%TO.N,CLK2_D*%
X81280000Y-38100000D03*
%TD*%
D12*
%TO.P,U3,1,NC*%
%TO.N,unconnected-(U3-NC-Pad1)*%
X24765000Y-40246300D03*
%TO.P,U3,2,A1*%
%TO.N,IRQ0*%
X26035000Y-40246300D03*
%TO.P,U3,3,A2*%
%TO.N,DAL15*%
X27305000Y-40246300D03*
%TO.P,U3,4,A3*%
%TO.N,IRQ1*%
X28575000Y-40246300D03*
%TO.P,U3,5,A4*%
%TO.N,DAL1*%
X29845000Y-40246300D03*
%TO.P,U3,6,A5*%
%TO.N,DAL9*%
X31115000Y-40246300D03*
%TO.P,U3,7,A6*%
%TO.N,DAL2*%
X32385000Y-40246300D03*
%TO.P,U3,8,A7*%
%TO.N,DAL10*%
X33655000Y-40246300D03*
%TO.P,U3,9,A8*%
%TO.N,DAL3*%
X34925000Y-40246300D03*
%TO.P,U3,10,GND*%
%TO.N,GND*%
X36195000Y-40246300D03*
%TO.P,U3,11,B8*%
%TO.N,DAL3_L*%
X36195000Y-30873700D03*
%TO.P,U3,12,B7*%
%TO.N,DAL10_L*%
X34925000Y-30873700D03*
%TO.P,U3,13,B6*%
%TO.N,DAL2_L*%
X33655000Y-30873700D03*
%TO.P,U3,14,B5*%
%TO.N,DAL9_L*%
X32385000Y-30873700D03*
%TO.P,U3,15,B4*%
%TO.N,DAL1_L*%
X31115000Y-30873700D03*
%TO.P,U3,16,B3*%
%TO.N,IRQ1_L*%
X29845000Y-30873700D03*
%TO.P,U3,17,B2*%
%TO.N,DAL15_L*%
X28575000Y-30873700D03*
%TO.P,U3,18,B1*%
%TO.N,IRQ0_L*%
X27305000Y-30873700D03*
%TO.P,U3,19,\u002AOE*%
%TO.N,OE_n*%
X26035000Y-30873700D03*
%TO.P,U3,20,VCC*%
%TO.N,+3.3V*%
X24765000Y-30873700D03*
%TD*%
D13*
%TO.P,R12,1*%
%TO.N,+5V*%
X55880000Y-66040000D03*
D14*
%TO.P,R12,2*%
%TO.N,DV*%
X55880000Y-58420000D03*
%TD*%
D12*
%TO.P,U2,1,NC*%
%TO.N,unconnected-(U2-NC-Pad1)*%
X6985000Y-40246300D03*
%TO.P,U2,2,A1*%
%TO.N,DAL6*%
X8255000Y-40246300D03*
%TO.P,U2,3,A2*%
%TO.N,DAL7*%
X9525000Y-40246300D03*
%TO.P,U2,4,A3*%
%TO.N,DAL11*%
X10795000Y-40246300D03*
%TO.P,U2,5,A4*%
%TO.N,DAL12*%
X12065000Y-40246300D03*
%TO.P,U2,6,A5*%
%TO.N,DAL8*%
X13335000Y-40246300D03*
%TO.P,U2,7,A6*%
%TO.N,DAL13*%
X14605000Y-40246300D03*
%TO.P,U2,8,A7*%
%TO.N,DAL0*%
X15875000Y-40246300D03*
%TO.P,U2,9,A8*%
%TO.N,DAL14*%
X17145000Y-40246300D03*
%TO.P,U2,10,GND*%
%TO.N,GND*%
X18415000Y-40246300D03*
%TO.P,U2,11,B8*%
%TO.N,DAL14_L*%
X18415000Y-30873700D03*
%TO.P,U2,12,B7*%
%TO.N,DAL0_L*%
X17145000Y-30873700D03*
%TO.P,U2,13,B6*%
%TO.N,DAL13_L*%
X15875000Y-30873700D03*
%TO.P,U2,14,B5*%
%TO.N,DAL8_L*%
X14605000Y-30873700D03*
%TO.P,U2,15,B4*%
%TO.N,DAL12_L*%
X13335000Y-30873700D03*
%TO.P,U2,16,B3*%
%TO.N,DAL11_L*%
X12065000Y-30873700D03*
%TO.P,U2,17,B2*%
%TO.N,DAL7_L*%
X10795000Y-30873700D03*
%TO.P,U2,18,B1*%
%TO.N,DAL6_L*%
X9525000Y-30873700D03*
%TO.P,U2,19,\u002AOE*%
%TO.N,OE_n*%
X8255000Y-30873700D03*
%TO.P,U2,20,VCC*%
%TO.N,+3.3V*%
X6985000Y-30873700D03*
%TD*%
D11*
%TO.P,J5,6,Pin_6*%
%TO.N,unconnected-(J5-Pin_6-Pad6)*%
X88900000Y-43180000D03*
%TO.P,J5,5,Pin_5*%
%TO.N,GPIO_TX*%
X88900000Y-40640000D03*
%TO.P,J5,4,Pin_4*%
%TO.N,unconnected-(J5-Pin_4-Pad4)*%
X88900000Y-38100000D03*
%TO.P,J5,3,Pin_3*%
%TO.N,unconnected-(J5-Pin_3-Pad3)*%
X88900000Y-35560000D03*
%TO.P,J5,2,Pin_2*%
%TO.N,unconnected-(J5-Pin_2-Pad2)*%
X88900000Y-33020000D03*
D10*
%TO.P,J5,1,Pin_1*%
%TO.N,GND*%
X88900000Y-30480000D03*
%TD*%
D13*
%TO.P,C4,1*%
%TO.N,+3.3V*%
X22225000Y-34330000D03*
%TO.P,C4,2*%
%TO.N,GND*%
X22225000Y-36830000D03*
%TD*%
%TO.P,R7,1*%
%TO.N,GND*%
X38100000Y-78740000D03*
D14*
%TO.P,R7,2*%
%TO.N,IRQ2*%
X38100000Y-86360000D03*
%TD*%
D18*
%TO.P,Y1,1,1*%
%TO.N,XTALI*%
X72300000Y-45085000D03*
%TO.P,Y1,2,2*%
%TO.N,XTALO*%
X67420000Y-45085000D03*
%TD*%
D19*
%TO.P,LED1,1,K*%
%TO.N,Net-(LED1-K)*%
X96520000Y-53340000D03*
D20*
%TO.P,LED1,2,A*%
%TO.N,+5V*%
X93980000Y-53340000D03*
%TD*%
D13*
%TO.P,C1,1*%
%TO.N,GND*%
X62230000Y-45720000D03*
%TO.P,C1,2*%
%TO.N,XTALO*%
X62230000Y-43220000D03*
%TD*%
%TO.P,C2,1*%
%TO.N,GND*%
X77470000Y-45720000D03*
%TO.P,C2,2*%
%TO.N,XTALI*%
X77470000Y-43220000D03*
%TD*%
%TO.P,C8,1*%
%TO.N,+5V*%
X48260000Y-93980000D03*
%TO.P,C8,2*%
%TO.N,GND*%
X45760000Y-93980000D03*
%TD*%
%TO.P,R15,1*%
%TO.N,OE_n*%
X81280000Y-25400000D03*
D14*
%TO.P,R15,2*%
%TO.N,GND*%
X81280000Y-33020000D03*
%TD*%
D13*
%TO.P,R3,1*%
%TO.N,+5V*%
X10160000Y-78740000D03*
D14*
%TO.P,R3,2*%
%TO.N,TEST1_n*%
X10160000Y-86360000D03*
%TD*%
D15*
%TO.P,SW2,1,1*%
%TO.N,+5V*%
X89535000Y-80590000D03*
X96035000Y-80590000D03*
%TO.P,SW2,2,2*%
%TO.N,HALT*%
X89535000Y-85090000D03*
X96035000Y-85090000D03*
%TD*%
D13*
%TO.P,C3,1*%
%TO.N,+3.3V*%
X4445000Y-34330000D03*
%TO.P,C3,2*%
%TO.N,GND*%
X4445000Y-36830000D03*
%TD*%
%TO.P,R10,1*%
%TO.N,+5V*%
X76200000Y-78740000D03*
D14*
%TO.P,R10,2*%
%TO.N,DMR_n*%
X76200000Y-86360000D03*
%TD*%
D13*
%TO.P,R1,1*%
%TO.N,XTALO*%
X66040000Y-49530000D03*
D14*
%TO.P,R1,2*%
%TO.N,XTALI*%
X73660000Y-49530000D03*
%TD*%
D21*
%TO.P,U1,1,~{TEST1}*%
%TO.N,TEST1_n*%
X10160000Y-88900000D03*
D22*
%TO.P,U1,2,AIO0*%
%TO.N,AIO0*%
X12700000Y-88900000D03*
%TO.P,U1,3,AIO1*%
%TO.N,AIO1*%
X15240000Y-88900000D03*
%TO.P,U1,4,AIO2*%
%TO.N,AIO2*%
X17780000Y-88900000D03*
%TO.P,U1,5,AIO3*%
%TO.N,AIO3*%
X20320000Y-88900000D03*
%TO.P,U1,6,~{PWRF}*%
%TO.N,PWRF_n*%
X22860000Y-88900000D03*
%TO.P,U1,7,~{FPE}*%
%TO.N,FPE_n*%
X25400000Y-88900000D03*
%TO.P,U1,8,~{EVENT}*%
%TO.N,EVENT_n*%
X27940000Y-88900000D03*
%TO.P,U1,9,HALT*%
%TO.N,HALT*%
X30480000Y-88900000D03*
%TO.P,U1,10,IRQ0*%
%TO.N,IRQ0*%
X33020000Y-88900000D03*
%TO.P,U1,11,IRQ1*%
%TO.N,IRQ1*%
X35560000Y-88900000D03*
%TO.P,U1,12,IRQ2*%
%TO.N,IRQ2*%
X38100000Y-88900000D03*
%TO.P,U1,13,IRQ3*%
%TO.N,IRQ3*%
X40640000Y-88900000D03*
%TO.P,U1,14,~{PARITY}*%
%TO.N,PARITY_n*%
X43180000Y-88900000D03*
%TO.P,U1,15,GND*%
%TO.N,GND*%
X45720000Y-88900000D03*
%TO.P,U1,16,VCC*%
%TO.N,+5V*%
X48260000Y-88900000D03*
%TO.P,U1,17,BS0*%
%TO.N,BS0*%
X50800000Y-88900000D03*
%TO.P,U1,18,BS1*%
%TO.N,BS1*%
X53340000Y-88900000D03*
%TO.P,U1,19,~{MAP}*%
%TO.N,MAP_n*%
X55880000Y-88900000D03*
%TO.P,U1,20,~{ABORT}*%
%TO.N,ABORT_n*%
X58420000Y-88900000D03*
%TO.P,U1,21,DAL21*%
%TO.N,DAL21*%
X60960000Y-88900000D03*
%TO.P,U1,22,DAL20*%
%TO.N,DAL20*%
X63500000Y-88900000D03*
%TO.P,U1,23,DAL19*%
%TO.N,DAL19*%
X66040000Y-88900000D03*
%TO.P,U1,24,DAL18*%
%TO.N,DAL18*%
X68580000Y-88900000D03*
%TO.P,U1,25,DAL17*%
%TO.N,DAL17*%
X71120000Y-88900000D03*
%TO.P,U1,26,DAL16*%
%TO.N,DAL16*%
X73660000Y-88900000D03*
%TO.P,U1,27,~{DMR}*%
%TO.N,DMR_n*%
X76200000Y-88900000D03*
%TO.P,U1,28,~{MISS}*%
%TO.N,MISS_n*%
X78740000Y-88900000D03*
%TO.P,U1,29,~{PRDC}*%
%TO.N,PRDC_n*%
X81280000Y-88900000D03*
%TO.P,U1,30,NC*%
%TO.N,unconnected-(U1-NC-Pad30)*%
X83820000Y-88900000D03*
%TO.P,U1,31,~{TEST2}*%
%TO.N,TEST2_n*%
X83820000Y-55880000D03*
%TO.P,U1,32,CONT*%
%TO.N,CONT_n*%
X81280000Y-55880000D03*
%TO.P,U1,33,~{INIT}*%
%TO.N,INIT_n*%
X78740000Y-55880000D03*
%TO.P,U1,34,CLK2*%
%TO.N,CLK2*%
X76200000Y-55880000D03*
%TO.P,U1,35,CLK*%
%TO.N,CLK*%
X73660000Y-55880000D03*
%TO.P,U1,36,XTALI*%
%TO.N,XTALI*%
X71120000Y-55880000D03*
%TO.P,U1,37,XTALO*%
%TO.N,XTALO*%
X68580000Y-55880000D03*
%TO.P,U1,38,~{SCTL}*%
%TO.N,SCTL_n*%
X66040000Y-55880000D03*
%TO.P,U1,39,~{STRB}*%
%TO.N,STRB_n*%
X63500000Y-55880000D03*
%TO.P,U1,40,~{ALE}*%
%TO.N,ALE_n*%
X60960000Y-55880000D03*
%TO.P,U1,41,~{BUFCTL}*%
%TO.N,BUFCTL_n*%
X58420000Y-55880000D03*
%TO.P,U1,42,DV*%
%TO.N,DV*%
X55880000Y-55880000D03*
%TO.P,U1,43,DAL5*%
%TO.N,DAL5*%
X53340000Y-55880000D03*
%TO.P,U1,44,DAL4*%
%TO.N,DAL4*%
X50800000Y-55880000D03*
%TO.P,U1,45,GND*%
%TO.N,GND*%
X48260000Y-55880000D03*
%TO.P,U1,46,VCC*%
%TO.N,+5V*%
X45720000Y-55880000D03*
%TO.P,U1,47,DAL3*%
%TO.N,DAL3*%
X43180000Y-55880000D03*
%TO.P,U1,48,DAL2*%
%TO.N,DAL2*%
X40640000Y-55880000D03*
%TO.P,U1,49,DAL1*%
%TO.N,DAL1*%
X38100000Y-55880000D03*
%TO.P,U1,50,DAL15*%
%TO.N,DAL15*%
X35560000Y-55880000D03*
%TO.P,U1,51,DAL14*%
%TO.N,DAL14*%
X33020000Y-55880000D03*
%TO.P,U1,52,DAL13*%
%TO.N,DAL13*%
X30480000Y-55880000D03*
%TO.P,U1,53,DAL12*%
%TO.N,DAL12*%
X27940000Y-55880000D03*
%TO.P,U1,54,DAL11*%
%TO.N,DAL11*%
X25400000Y-55880000D03*
%TO.P,U1,55,DAL10*%
%TO.N,DAL10*%
X22860000Y-55880000D03*
%TO.P,U1,56,DAL9*%
%TO.N,DAL9*%
X20320000Y-55880000D03*
%TO.P,U1,57,DAL0*%
%TO.N,DAL0*%
X17780000Y-55880000D03*
%TO.P,U1,58,DAL8*%
%TO.N,DAL8*%
X15240000Y-55880000D03*
%TO.P,U1,59,DAL7*%
%TO.N,DAL7*%
X12700000Y-55880000D03*
%TO.P,U1,60,DAL6*%
%TO.N,DAL6*%
X10160000Y-55880000D03*
%TD*%
D13*
%TO.P,C7,1*%
%TO.N,+5V*%
X45720000Y-50800000D03*
%TO.P,C7,2*%
%TO.N,GND*%
X48220000Y-50800000D03*
%TD*%
%TO.P,R8,1*%
%TO.N,GND*%
X40640000Y-78740000D03*
D14*
%TO.P,R8,2*%
%TO.N,IRQ3*%
X40640000Y-86360000D03*
%TD*%
D13*
%TO.P,R6,1*%
%TO.N,GND*%
X30480000Y-78740000D03*
D14*
%TO.P,R6,2*%
%TO.N,HALT*%
X30480000Y-86360000D03*
%TD*%
D23*
%TO.P,J1,1,Pin_1*%
%TO.N,DAL6_L*%
X10795000Y-23495000D03*
D14*
%TO.P,J1,2,Pin_2*%
%TO.N,DAL7_L*%
X13335000Y-23495000D03*
%TO.P,J1,3,Pin_3*%
%TO.N,INIT_SW*%
X15875000Y-23495000D03*
%TO.P,J1,4,Pin_4*%
%TO.N,DAL8_L*%
X18415000Y-23495000D03*
%TO.P,J1,5,Pin_5*%
%TO.N,DAL0_L*%
X20955000Y-23495000D03*
%TO.P,J1,6,Pin_6*%
%TO.N,IRQ0_L*%
X23495000Y-23495000D03*
%TO.P,J1,7,Pin_7*%
%TO.N,IRQ1_L*%
X26035000Y-23495000D03*
%TO.P,J1,8,Pin_8*%
%TO.N,DAL9_L*%
X28575000Y-23495000D03*
%TO.P,J1,9,Pin_9*%
%TO.N,DAL10_L*%
X31115000Y-23495000D03*
%TO.P,J1,10,Pin_10*%
%TO.N,AIO0_L*%
X33655000Y-23495000D03*
%TO.P,J1,11,Pin_11*%
%TO.N,INIT_n_L*%
X36195000Y-23495000D03*
%TO.P,J1,12,Pin_12*%
%TO.N,AIO1_L*%
X38735000Y-23495000D03*
%TO.P,J1,13,Pin_13*%
%TO.N,AIO2_L*%
X41275000Y-23495000D03*
%TO.P,J1,14,Pin_14*%
%TO.N,AIO3_L*%
X43815000Y-23495000D03*
%TO.P,J1,15,Pin_15*%
%TO.N,ABORT_n_L*%
X46355000Y-23495000D03*
%TO.P,J1,16,Pin_16*%
%TO.N,HALT_DBG_L*%
X48895000Y-23495000D03*
%TO.P,J1,17,Pin_17*%
%TO.N,EVENT_n_L*%
X51435000Y-23495000D03*
%TO.P,J1,18,Pin_18*%
%TO.N,CONT_n_L*%
X53975000Y-23495000D03*
%TO.P,J1,19,Pin_19*%
%TO.N,+3.3V*%
X56515000Y-23495000D03*
%TO.P,J1,20,Pin_20*%
%TO.N,GND*%
X59055000Y-23495000D03*
%TO.P,J1,21,Pin_21*%
%TO.N,GPIO_TX_L*%
X59055000Y-3175000D03*
%TO.P,J1,22,Pin_22*%
%TO.N,CLK2_L*%
X56515000Y-3175000D03*
%TO.P,J1,23,Pin_23*%
%TO.N,SCTL_n_L*%
X53975000Y-3175000D03*
%TO.P,J1,24,Pin_24*%
%TO.N,ALE_n_L*%
X51435000Y-3175000D03*
%TO.P,J1,25,Pin_25*%
%TO.N,+3.3V*%
X48895000Y-3175000D03*
%TO.P,J1,26,Pin_26*%
%TO.N,GND*%
X46355000Y-3175000D03*
%TO.P,J1,27,Pin_27*%
%TO.N,LED_RGB*%
X43815000Y-3175000D03*
%TO.P,J1,28,Pin_28*%
%TO.N,BUFCTL_n_L*%
X41275000Y-3175000D03*
%TO.P,J1,29,Pin_29*%
%TO.N,DAL5_L*%
X38735000Y-3175000D03*
%TO.P,J1,30,Pin_30*%
%TO.N,DAL4_L*%
X36195000Y-3175000D03*
%TO.P,J1,31,Pin_31*%
%TO.N,DAL3_L*%
X33655000Y-3175000D03*
%TO.P,J1,32,Pin_32*%
%TO.N,DAL2_L*%
X31115000Y-3175000D03*
%TO.P,J1,33,Pin_33*%
%TO.N,DAL1_L*%
X28575000Y-3175000D03*
%TO.P,J1,34,Pin_34*%
%TO.N,DAL15_L*%
X26035000Y-3175000D03*
%TO.P,J1,35,Pin_35*%
%TO.N,DAL14_L*%
X23495000Y-3175000D03*
%TO.P,J1,36,Pin_36*%
%TO.N,DAL13_L*%
X20955000Y-3175000D03*
%TO.P,J1,37,Pin_37*%
%TO.N,DAL12_L*%
X18415000Y-3175000D03*
%TO.P,J1,38,Pin_38*%
%TO.N,DAL11_L*%
X15875000Y-3175000D03*
%TO.P,J1,39,Pin_39*%
%TO.N,GND*%
X13335000Y-3175000D03*
%TO.P,J1,40,Pin_40*%
%TO.N,+5V*%
X10795000Y-3175000D03*
%TD*%
D24*
%TO.P,J4,1,Pin_1*%
%TO.N,+3.3V*%
X81280000Y-17780000D03*
D11*
%TO.P,J4,2,Pin_2*%
%TO.N,OE_n*%
X81280000Y-20320000D03*
%TD*%
D13*
%TO.P,R14,1*%
%TO.N,+5V*%
X83820000Y-66040000D03*
D14*
%TO.P,R14,2*%
%TO.N,TEST2_n*%
X83820000Y-58420000D03*
%TD*%
D23*
%TO.P,C9,1*%
%TO.N,+5V*%
X3810000Y-46990000D03*
D13*
%TO.P,C9,2*%
%TO.N,GND*%
X6310000Y-46990000D03*
%TD*%
%TO.P,C6,1*%
%TO.N,+3.3V*%
X62230000Y-29250000D03*
%TO.P,C6,2*%
%TO.N,GND*%
X62230000Y-31750000D03*
%TD*%
D12*
%TO.P,U5,1,NC*%
%TO.N,unconnected-(U5-NC-Pad1)*%
X64770000Y-35166300D03*
%TO.P,U5,2,A1*%
%TO.N,ABORT_n*%
X66040000Y-35166300D03*
%TO.P,U5,3,A2*%
%TO.N,HALT_DBG*%
X67310000Y-35166300D03*
%TO.P,U5,4,A3*%
%TO.N,ALE_n*%
X68580000Y-35166300D03*
%TO.P,U5,5,A4*%
%TO.N,EVENT_n*%
X69850000Y-35166300D03*
%TO.P,U5,6,A5*%
%TO.N,SCTL_n*%
X71120000Y-35166300D03*
%TO.P,U5,7,A6*%
%TO.N,CONT_n*%
X72390000Y-35166300D03*
%TO.P,U5,8,A7*%
%TO.N,CLK2_D*%
X73660000Y-35166300D03*
%TO.P,U5,9,A8*%
%TO.N,GPIO_TX*%
X74930000Y-35166300D03*
%TO.P,U5,10,GND*%
%TO.N,GND*%
X76200000Y-35166300D03*
%TO.P,U5,11,B8*%
%TO.N,GPIO_TX_L*%
X76200000Y-25793700D03*
%TO.P,U5,12,B7*%
%TO.N,CLK2_L*%
X74930000Y-25793700D03*
%TO.P,U5,13,B6*%
%TO.N,CONT_n_L*%
X73660000Y-25793700D03*
%TO.P,U5,14,B5*%
%TO.N,SCTL_n_L*%
X72390000Y-25793700D03*
%TO.P,U5,15,B4*%
%TO.N,EVENT_n_L*%
X71120000Y-25793700D03*
%TO.P,U5,16,B3*%
%TO.N,ALE_n_L*%
X69850000Y-25793700D03*
%TO.P,U5,17,B2*%
%TO.N,HALT_DBG_L*%
X68580000Y-25793700D03*
%TO.P,U5,18,B1*%
%TO.N,ABORT_n_L*%
X67310000Y-25793700D03*
%TO.P,U5,19,\u002AOE*%
%TO.N,OE_n*%
X66040000Y-25793700D03*
%TO.P,U5,20,VCC*%
%TO.N,+3.3V*%
X64770000Y-25793700D03*
%TD*%
D13*
%TO.P,R13,1*%
%TO.N,+5V*%
X78740000Y-66040000D03*
D14*
%TO.P,R13,2*%
%TO.N,INIT_n*%
X78740000Y-58420000D03*
%TD*%
D10*
%TO.P,J3,1,Pin_1*%
%TO.N,DAL6*%
X10160000Y-53340000D03*
D11*
%TO.P,J3,2,Pin_2*%
%TO.N,DAL7*%
X12700000Y-53340000D03*
%TO.P,J3,3,Pin_3*%
%TO.N,DAL8*%
X15240000Y-53340000D03*
%TO.P,J3,4,Pin_4*%
%TO.N,DAL0*%
X17780000Y-53340000D03*
%TO.P,J3,5,Pin_5*%
%TO.N,DAL9*%
X20320000Y-53340000D03*
%TO.P,J3,6,Pin_6*%
%TO.N,DAL10*%
X22860000Y-53340000D03*
%TO.P,J3,7,Pin_7*%
%TO.N,DAL11*%
X25400000Y-53340000D03*
%TO.P,J3,8,Pin_8*%
%TO.N,DAL12*%
X27940000Y-53340000D03*
%TO.P,J3,9,Pin_9*%
%TO.N,DAL13*%
X30480000Y-53340000D03*
%TO.P,J3,10,Pin_10*%
%TO.N,DAL14*%
X33020000Y-53340000D03*
%TO.P,J3,11,Pin_11*%
%TO.N,DAL15*%
X35560000Y-53340000D03*
%TO.P,J3,12,Pin_12*%
%TO.N,DAL1*%
X38100000Y-53340000D03*
%TO.P,J3,13,Pin_13*%
%TO.N,DAL2*%
X40640000Y-53340000D03*
%TO.P,J3,14,Pin_14*%
%TO.N,DAL3*%
X43180000Y-53340000D03*
%TO.P,J3,15,Pin_15*%
%TO.N,+5V*%
X45720000Y-53340000D03*
%TO.P,J3,16,Pin_16*%
%TO.N,GND*%
X48260000Y-53340000D03*
%TO.P,J3,17,Pin_17*%
%TO.N,DAL4*%
X50800000Y-53340000D03*
%TO.P,J3,18,Pin_18*%
%TO.N,DAL5*%
X53340000Y-53340000D03*
%TO.P,J3,19,Pin_19*%
%TO.N,DV*%
X55880000Y-53340000D03*
%TO.P,J3,20,Pin_20*%
%TO.N,BUFCTL_n*%
X58420000Y-53340000D03*
%TO.P,J3,21,Pin_21*%
%TO.N,ALE_n*%
X60960000Y-53340000D03*
%TO.P,J3,22,Pin_22*%
%TO.N,STRB_n*%
X63500000Y-53340000D03*
%TO.P,J3,23,Pin_23*%
%TO.N,SCTL_n*%
X66040000Y-53340000D03*
%TO.P,J3,24,Pin_24*%
%TO.N,XTALO*%
X68580000Y-53340000D03*
%TO.P,J3,25,Pin_25*%
%TO.N,XTALI*%
X71120000Y-53340000D03*
%TO.P,J3,26,Pin_26*%
%TO.N,CLK*%
X73660000Y-53340000D03*
%TO.P,J3,27,Pin_27*%
%TO.N,CLK2*%
X76200000Y-53340000D03*
%TO.P,J3,28,Pin_28*%
%TO.N,INIT_n*%
X78740000Y-53340000D03*
%TO.P,J3,29,Pin_29*%
%TO.N,CONT_n*%
X81280000Y-53340000D03*
%TO.P,J3,30,Pin_30*%
%TO.N,TEST2_n*%
X83820000Y-53340000D03*
%TD*%
D25*
%TO.N,INIT_SW*%
X15875000Y-15875000D03*
X74295000Y-15875000D03*
%TO.N,+5V*%
X48260000Y-64770000D03*
X48260000Y-67310000D03*
%TO.N,AIO3*%
X41910000Y-48260000D03*
X20320000Y-76200000D03*
X52705000Y-48895000D03*
X41275000Y-76200000D03*
%TO.N,DAL12*%
X27940000Y-46355000D03*
X12065000Y-46355000D03*
%TO.N,DAL14*%
X17145000Y-42545000D03*
X33020000Y-46355000D03*
%TO.N,+5V*%
X48260000Y-78740000D03*
X48260000Y-66040000D03*
%TO.N,DAL13*%
X14605000Y-44450000D03*
X30480000Y-46355000D03*
%TO.N,AIO0*%
X34290000Y-72390000D03*
X12700000Y-72390000D03*
X43815000Y-43815000D03*
X33655000Y-43815000D03*
%TO.N,AIO2*%
X51435000Y-47625000D03*
X17780000Y-75020000D03*
X39370000Y-47625000D03*
X39370000Y-74930000D03*
%TO.N,DAL15*%
X21590000Y-61595000D03*
X35560000Y-61595000D03*
%TO.N,DAL11*%
X10795000Y-47625000D03*
X25400000Y-47625000D03*
%TO.N,DAL3*%
X43180000Y-45085000D03*
X36195000Y-45085000D03*
%TO.N,AIO1*%
X15240000Y-73660000D03*
X36830000Y-47625000D03*
X48895000Y-43180000D03*
X36830000Y-73660000D03*
%TO.N,DAL10*%
X31750000Y-58420000D03*
X22860000Y-58330000D03*
%TO.N,DAL9*%
X20320000Y-59055000D03*
X29210000Y-59055000D03*
%TO.N,DAL2*%
X40640000Y-42545000D03*
X32385000Y-42545000D03*
%TO.N,DAL1*%
X38100000Y-60325000D03*
X26670000Y-60325000D03*
%TO.N,HALT_DBG*%
X57150000Y-40640000D03*
X57150000Y-73025000D03*
X67310000Y-38735000D03*
%TO.N,BUFCTL_n*%
X50165000Y-45720000D03*
X58420000Y-45720000D03*
%TO.N,EVENT_n*%
X27940000Y-95885000D03*
X59690000Y-40640000D03*
X69850000Y-39370000D03*
X59690000Y-95885000D03*
%TO.N,IRQ1*%
X24130000Y-64135000D03*
X35560000Y-64135000D03*
%TO.N,HALT*%
X85725000Y-94615000D03*
X30480000Y-95160000D03*
%TO.N,IRQ0*%
X19050000Y-65405000D03*
X33020000Y-65405000D03*
%TO.N,ABORT_n*%
X55880000Y-40640000D03*
X66040000Y-37465000D03*
%TO.N,HALT_DBG_L*%
X68580000Y-19505000D03*
%TO.N,INIT_n*%
X52070000Y-59690000D03*
%TO.N,EVENT_n_L*%
X71120000Y-20230000D03*
%TO.N,CONT_n_L*%
X73660000Y-22225000D03*
%TO.N,ABORT_n_L*%
X67310000Y-18780000D03*
%TO.N,OE_n*%
X26035000Y-32385000D03*
X66040000Y-27305000D03*
X8255000Y-32385000D03*
X43815000Y-32385000D03*
%TD*%
D26*
%TO.N,LED_RGB*%
X85090000Y-17780000D02*
X88900000Y-17780000D01*
X45140000Y-1850000D02*
X69160000Y-1850000D01*
X69160000Y-1850000D02*
X85090000Y-17780000D01*
X43815000Y-3175000D02*
X45140000Y-1850000D01*
D27*
%TO.N,+3.3V*%
X56515000Y-17843730D02*
X56483135Y-17811865D01*
X56515000Y-23495000D02*
X56515000Y-17843730D01*
X56483135Y-17811865D02*
X48895000Y-10223730D01*
X62230000Y-23558730D02*
X56483135Y-17811865D01*
X48895000Y-10223730D02*
X48895000Y-3175000D01*
X62230000Y-29250000D02*
X62230000Y-23558730D01*
D28*
X89535000Y-63500000D02*
X90487500Y-62547500D01*
X90487500Y-62547500D02*
X90487500Y-29467500D01*
D26*
%TO.N,INIT_SW*%
X89535000Y-68000000D02*
X91440000Y-66095000D01*
X91440000Y-66095000D02*
X91440000Y-29606826D01*
%TO.N,Net-(LED1-K)*%
X96520000Y-58420000D02*
X96520000Y-53340000D01*
%TO.N,INIT_SW*%
X83155000Y-21321827D02*
X91440000Y-29606826D01*
D28*
%TO.N,+3.3V*%
X90487500Y-29467500D02*
X89912500Y-28892500D01*
D26*
%TO.N,+5V*%
X89535000Y-80590000D02*
X96035000Y-80590000D01*
%TO.N,HALT*%
X89535000Y-85090000D02*
X96035000Y-85090000D01*
%TO.N,INIT_SW*%
X89535000Y-68000000D02*
X96035000Y-68000000D01*
X81280000Y-15875000D02*
X74295000Y-15875000D01*
X83155000Y-17750000D02*
X81280000Y-15875000D01*
X83155000Y-21321827D02*
X83155000Y-17750000D01*
X15875000Y-15875000D02*
X15875000Y-23495000D01*
%TO.N,OE_n*%
X79375000Y-27305000D02*
X66040000Y-27305000D01*
X81280000Y-25400000D02*
X79375000Y-27305000D01*
D28*
%TO.N,+3.3V*%
X82580000Y-19080000D02*
X81280000Y-17780000D01*
X82580000Y-27910000D02*
X82580000Y-19080000D01*
X82550000Y-28892500D02*
X82550000Y-27940000D01*
X82550000Y-27940000D02*
X82580000Y-27910000D01*
X82550000Y-28892500D02*
X62587500Y-28892500D01*
X89912500Y-28892500D02*
X82550000Y-28892500D01*
D27*
%TO.N,+5V*%
X48260000Y-64770000D02*
X48260000Y-66040000D01*
X48260000Y-60820000D02*
X48260000Y-64770000D01*
X48260000Y-67310000D02*
X48260000Y-78740000D01*
X48260000Y-66040000D02*
X48260000Y-67310000D01*
D26*
%TO.N,GPIO_TX*%
X85725000Y-40640000D02*
X88900000Y-40640000D01*
X81915000Y-36830000D02*
X85725000Y-40640000D01*
X74930000Y-35877500D02*
X75882500Y-36830000D01*
X75882500Y-36830000D02*
X81915000Y-36830000D01*
D27*
%TO.N,GND*%
X76200000Y-31750000D02*
X80010000Y-31750000D01*
X62230000Y-31750000D02*
X59055000Y-31750000D01*
X40005000Y-36830000D02*
X53975000Y-36830000D01*
X53975000Y-36830000D02*
X56515000Y-36830000D01*
D28*
X53975000Y-40246300D02*
X53975000Y-36830000D01*
D27*
X59055000Y-31750000D02*
X59055000Y-34290000D01*
X59055000Y-23495000D02*
X59055000Y-31750000D01*
X22225000Y-36830000D02*
X18415000Y-36830000D01*
X80010000Y-31750000D02*
X81280000Y-33020000D01*
D28*
X18415000Y-40246300D02*
X18415000Y-36830000D01*
D27*
X36195000Y-36830000D02*
X40005000Y-36830000D01*
D29*
X48260000Y-53340000D02*
X48260000Y-50840000D01*
D28*
X76200000Y-35166300D02*
X76200000Y-31750000D01*
D27*
X18415000Y-36830000D02*
X4645000Y-36830000D01*
D29*
X48260000Y-55880000D02*
X48260000Y-53340000D01*
D27*
X62230000Y-31750000D02*
X76200000Y-31750000D01*
X22225000Y-36830000D02*
X36195000Y-36830000D01*
X59055000Y-34290000D02*
X56515000Y-36830000D01*
D28*
X36195000Y-40246300D02*
X36195000Y-36830000D01*
D27*
%TO.N,+3.3V*%
X56515000Y-33060000D02*
X55245000Y-34330000D01*
X56515000Y-23495000D02*
X56515000Y-33060000D01*
D28*
X22225000Y-34330000D02*
X22225000Y-33413700D01*
X40005000Y-33413700D02*
X42545000Y-30873700D01*
X62230000Y-29250000D02*
X62230000Y-28333700D01*
X4445000Y-34330000D02*
X4445000Y-33413700D01*
X22225000Y-33413700D02*
X24765000Y-30873700D01*
D27*
X22225000Y-34330000D02*
X4645000Y-34330000D01*
D28*
X40005000Y-34330000D02*
X40005000Y-33413700D01*
D27*
X40005000Y-34330000D02*
X55245000Y-34330000D01*
X22225000Y-34330000D02*
X40005000Y-34330000D01*
D28*
X4445000Y-33413700D02*
X6985000Y-30873700D01*
X62230000Y-28333700D02*
X64770000Y-25793700D01*
D29*
%TO.N,XTALO*%
X68580000Y-53340000D02*
X68580000Y-52070000D01*
X62230000Y-43220000D02*
X65555000Y-43220000D01*
X66040000Y-49530000D02*
X66040000Y-46465000D01*
X68580000Y-52070000D02*
X66040000Y-49530000D01*
X68580000Y-55880000D02*
X68580000Y-53340000D01*
X65555000Y-43220000D02*
X67420000Y-45085000D01*
X66040000Y-46465000D02*
X67420000Y-45085000D01*
%TO.N,XTALI*%
X72300000Y-45085000D02*
X73660000Y-46445000D01*
X77470000Y-43220000D02*
X74165000Y-43220000D01*
X73660000Y-49530000D02*
X71120000Y-52070000D01*
X71120000Y-52070000D02*
X71120000Y-55880000D01*
X73660000Y-46445000D02*
X73660000Y-49530000D01*
X74165000Y-43220000D02*
X72300000Y-45085000D01*
D26*
%TO.N,AIO3*%
X41275000Y-76200000D02*
X41910000Y-75565000D01*
X20320000Y-88900000D02*
X20320000Y-76200000D01*
X41910000Y-75565000D02*
X41910000Y-48260000D01*
X52705000Y-40246300D02*
X52705000Y-48895000D01*
D29*
X20320000Y-91440000D02*
X20320000Y-88900000D01*
D26*
%TO.N,DAL12*%
X12065000Y-46355000D02*
X12065000Y-40246300D01*
X27940000Y-53340000D02*
X27940000Y-46355000D01*
D29*
X27940000Y-55880000D02*
X27940000Y-53340000D01*
D26*
%TO.N,DAL14*%
X33020000Y-46355000D02*
X33020000Y-53340000D01*
X17145000Y-40246300D02*
X17145000Y-42545000D01*
D29*
X33020000Y-55880000D02*
X33020000Y-53340000D01*
%TO.N,DAL0*%
X17780000Y-55880000D02*
X17780000Y-53340000D01*
D26*
X15875000Y-40246300D02*
X15875000Y-48260000D01*
X17780000Y-50165000D02*
X17780000Y-53340000D01*
X15875000Y-48260000D02*
X17780000Y-50165000D01*
D27*
%TO.N,+5V*%
X10795000Y-8890000D02*
X10795000Y-6350000D01*
D29*
X45720000Y-55880000D02*
X45720000Y-54610000D01*
D30*
X3810000Y-46990000D02*
X1945000Y-45125000D01*
D27*
X10795000Y-6350000D02*
X10795000Y-3175000D01*
D30*
X1945000Y-17740000D02*
X10795000Y-8890000D01*
D27*
X45720000Y-58280000D02*
X48260000Y-60820000D01*
X48260000Y-78740000D02*
X48260000Y-93980000D01*
D30*
X1945000Y-45125000D02*
X1945000Y-17740000D01*
D27*
X2445000Y-45625000D02*
X3810000Y-46990000D01*
D29*
X45720000Y-54610000D02*
X45720000Y-50800000D01*
D30*
X10795000Y-8890000D02*
X10795000Y-3175000D01*
D27*
X45720000Y-55880000D02*
X45720000Y-58280000D01*
D29*
X45720000Y-54610000D02*
X45720000Y-53340000D01*
D28*
X43180000Y-78740000D02*
X48260000Y-78740000D01*
D26*
%TO.N,DAL13*%
X14605000Y-40246300D02*
X14605000Y-44450000D01*
X30480000Y-53340000D02*
X30480000Y-46355000D01*
D29*
X30480000Y-55880000D02*
X30480000Y-53340000D01*
D26*
%TO.N,AIO0*%
X34290000Y-44450000D02*
X33655000Y-43815000D01*
X43815000Y-40246300D02*
X43815000Y-43815000D01*
D29*
X12700000Y-91440000D02*
X12700000Y-88900000D01*
D26*
X12700000Y-88900000D02*
X12700000Y-72390000D01*
X34290000Y-72390000D02*
X34290000Y-44450000D01*
D28*
%TO.N,CLK2_D*%
X73660000Y-35166300D02*
X73660000Y-37465000D01*
X74295000Y-38100000D02*
X81280000Y-38100000D01*
X73660000Y-37465000D02*
X74295000Y-38100000D01*
D26*
%TO.N,DAL4*%
X45085000Y-40246300D02*
X45085000Y-45085000D01*
X45085000Y-45085000D02*
X50800000Y-50800000D01*
X50800000Y-50800000D02*
X50800000Y-53340000D01*
D29*
X50800000Y-55880000D02*
X50800000Y-53340000D01*
D26*
%TO.N,AIO2*%
X39370000Y-74930000D02*
X39370000Y-47625000D01*
D29*
X17780000Y-91440000D02*
X17780000Y-88900000D01*
D26*
X51435000Y-40246300D02*
X51435000Y-47625000D01*
X17780000Y-88900000D02*
X17780000Y-75020000D01*
%TO.N,DAL15*%
X35560000Y-61595000D02*
X35560000Y-55880000D01*
D29*
X35560000Y-55880000D02*
X35560000Y-53340000D01*
D26*
X21590000Y-47625000D02*
X27305000Y-41910000D01*
X27305000Y-41910000D02*
X27305000Y-40246300D01*
X21590000Y-61595000D02*
X21590000Y-47625000D01*
D29*
%TO.N,SCTL_n*%
X66040000Y-55880000D02*
X66040000Y-53340000D01*
D26*
X71120000Y-40640000D02*
X71120000Y-35166300D01*
X61105000Y-48405000D02*
X61105000Y-42754009D01*
X61949009Y-41910000D02*
X69850000Y-41910000D01*
X61105000Y-42754009D02*
X61949009Y-41910000D01*
X69850000Y-41910000D02*
X71120000Y-40640000D01*
X66040000Y-53340000D02*
X61105000Y-48405000D01*
D29*
%TO.N,DAL11*%
X25400000Y-55880000D02*
X25400000Y-53340000D01*
D26*
X25400000Y-47625000D02*
X25400000Y-53340000D01*
X10795000Y-47625000D02*
X10795000Y-40246300D01*
D29*
%TO.N,DAL3*%
X43180000Y-55880000D02*
X43180000Y-53340000D01*
D26*
X34925000Y-43815000D02*
X36195000Y-45085000D01*
X34925000Y-40246300D02*
X34925000Y-43815000D01*
X43180000Y-45085000D02*
X43180000Y-53340000D01*
%TO.N,DAL4_L*%
X34925000Y-24765000D02*
X34925000Y-4445000D01*
X46355000Y-30873700D02*
X46355000Y-29633100D01*
X38920000Y-28760000D02*
X45481900Y-28760000D01*
X45481900Y-28760000D02*
X46355000Y-29633100D01*
X36195000Y-3175000D02*
X34925000Y-4445000D01*
X34925000Y-24765000D02*
X38920000Y-28760000D01*
%TO.N,DAL6*%
X8255000Y-51435000D02*
X10160000Y-53340000D01*
D29*
X10160000Y-55880000D02*
X10160000Y-53340000D01*
D26*
X8255000Y-40246300D02*
X8255000Y-51435000D01*
D29*
%TO.N,AIO1*%
X15240000Y-91440000D02*
X15240000Y-88900000D01*
D26*
X36830000Y-47625000D02*
X36830000Y-73660000D01*
X15240000Y-88900000D02*
X15240000Y-73660000D01*
X48895000Y-43180000D02*
X48895000Y-40246300D01*
%TO.N,DAL7*%
X9525000Y-50165000D02*
X12700000Y-53340000D01*
D29*
X12700000Y-55880000D02*
X12700000Y-53340000D01*
D26*
X9525000Y-40246300D02*
X9525000Y-50165000D01*
%TO.N,DAL5*%
X53340000Y-51435000D02*
X53340000Y-53340000D01*
D29*
X53340000Y-55880000D02*
X53340000Y-53340000D01*
D26*
X47625000Y-40246300D02*
X47625000Y-45718604D01*
X47625000Y-45718604D02*
X53340000Y-51433604D01*
X53340000Y-51433604D02*
X53340000Y-51435000D01*
%TO.N,DAL10*%
X33573450Y-42463450D02*
X31750000Y-44286900D01*
D29*
X22860000Y-55880000D02*
X22860000Y-53340000D01*
D26*
X33655000Y-41910000D02*
X33655000Y-42381900D01*
X22860000Y-58330000D02*
X22860000Y-55880000D01*
X33655000Y-41910000D02*
X33655000Y-40246300D01*
X33655000Y-42381900D02*
X33573450Y-42463450D01*
X33655000Y-40246300D02*
X33655000Y-42381900D01*
X31750000Y-44286900D02*
X31750000Y-58420000D01*
%TO.N,DAL8_L*%
X18415000Y-24765000D02*
X18415000Y-23495000D01*
X14605000Y-28575000D02*
X18415000Y-24765000D01*
X14605000Y-30873700D02*
X14605000Y-28575000D01*
%TO.N,AIO1_L*%
X47412500Y-27410000D02*
X47466250Y-27463750D01*
X38735000Y-24765000D02*
X38735000Y-23495000D01*
X41380000Y-27410000D02*
X47412500Y-27410000D01*
X38735000Y-24765000D02*
X41380000Y-27410000D01*
X50165000Y-30162500D02*
X47466250Y-27463750D01*
%TO.N,DAL9*%
X29210000Y-43817792D02*
X31115000Y-41912792D01*
X20320000Y-59055000D02*
X20320000Y-55880000D01*
X31115000Y-40246300D02*
X31115000Y-41275000D01*
X29210000Y-59055000D02*
X29210000Y-43817792D01*
D29*
X20320000Y-55880000D02*
X20320000Y-53340000D01*
D26*
X31115000Y-41912792D02*
X31115000Y-41275000D01*
%TO.N,DAL2*%
X32385000Y-40246300D02*
X32385000Y-42545000D01*
D29*
X40640000Y-55880000D02*
X40640000Y-53340000D01*
D26*
X40640000Y-42545000D02*
X40640000Y-53340000D01*
D28*
%TO.N,ALE_n_L*%
X69850000Y-19572918D02*
X66731041Y-16453959D01*
X64713959Y-16453959D02*
X51435000Y-3175000D01*
X66731041Y-16453959D02*
X64713959Y-16453959D01*
X69850000Y-25793700D02*
X69850000Y-19572918D01*
D26*
%TO.N,DAL1*%
X26670000Y-44958000D02*
X29845000Y-41783000D01*
X29845000Y-41783000D02*
X29845000Y-40246300D01*
X26670000Y-60325000D02*
X26670000Y-44958000D01*
X38100000Y-60325000D02*
X38100000Y-55880000D01*
D29*
X38100000Y-55880000D02*
X38100000Y-53340000D01*
D28*
%TO.N,ALE_n*%
X63255836Y-39790000D02*
X60325000Y-42720836D01*
X60325000Y-52705000D02*
X60960000Y-53340000D01*
X68580000Y-38667082D02*
X67457082Y-39790000D01*
X67457082Y-39790000D02*
X63255836Y-39790000D01*
X68580000Y-35166300D02*
X68580000Y-38667082D01*
X60325000Y-42720836D02*
X60325000Y-52705000D01*
D29*
X60960000Y-55880000D02*
X60960000Y-53340000D01*
D26*
%TO.N,HALT_DBG*%
X57150000Y-40640000D02*
X57150000Y-73025000D01*
X67310000Y-35166300D02*
X67310000Y-38735000D01*
%TO.N,DAL8*%
X15240000Y-51435000D02*
X15240000Y-53340000D01*
X13335000Y-49530000D02*
X15240000Y-51435000D01*
D29*
X15240000Y-55880000D02*
X15240000Y-53340000D01*
D26*
X13335000Y-40246300D02*
X13335000Y-49530000D01*
%TO.N,BUFCTL_n*%
X58420000Y-45720000D02*
X58420000Y-53340000D01*
D29*
X58420000Y-55880000D02*
X58420000Y-53340000D01*
D26*
X50165000Y-45720000D02*
X50165000Y-40246300D01*
%TO.N,FPE_n*%
X25400000Y-88900000D02*
X25400000Y-86360000D01*
D29*
X25400000Y-91440000D02*
X25400000Y-88900000D01*
D26*
%TO.N,PWRF_n*%
X22860000Y-88900000D02*
X22860000Y-86360000D01*
D29*
X22860000Y-91440000D02*
X22860000Y-88900000D01*
D26*
%TO.N,EVENT_n*%
X59690000Y-95885000D02*
X59690000Y-40640000D01*
D29*
X27940000Y-91440000D02*
X27940000Y-88900000D01*
D26*
X27940000Y-91440000D02*
X27940000Y-95885000D01*
X69850000Y-35166300D02*
X69850000Y-39370000D01*
%TO.N,IRQ1*%
X35560000Y-88900000D02*
X35560000Y-64135000D01*
X24130000Y-46355000D02*
X28575000Y-41910000D01*
D29*
X35560000Y-91440000D02*
X35560000Y-88900000D01*
D26*
X28575000Y-40246300D02*
X28575000Y-41910000D01*
X24130000Y-64135000D02*
X24130000Y-46355000D01*
D29*
%TO.N,BS0*%
X50800000Y-91440000D02*
X50800000Y-88900000D01*
D26*
%TO.N,HALT*%
X87312500Y-87630000D02*
X87312500Y-87312500D01*
X87312500Y-75882500D02*
X88265000Y-74930000D01*
X30480000Y-88900000D02*
X30480000Y-86360000D01*
X88265000Y-74930000D02*
X90170000Y-74930000D01*
X87312500Y-93027500D02*
X87312500Y-87630000D01*
D29*
X30480000Y-91440000D02*
X30480000Y-88900000D01*
D26*
X87312500Y-87630000D02*
X87312500Y-75882500D01*
X85725000Y-94615000D02*
X87312500Y-93027500D01*
X87312500Y-87312500D02*
X89535000Y-85090000D01*
X30480000Y-91440000D02*
X30480000Y-95160000D01*
D29*
%TO.N,DAL17*%
X71120000Y-91440000D02*
X71120000Y-88900000D01*
D26*
%TO.N,IRQ3*%
X40640000Y-88900000D02*
X40640000Y-86360000D01*
D29*
X40640000Y-91440000D02*
X40640000Y-88900000D01*
%TO.N,DMR_n*%
X76200000Y-91440000D02*
X76200000Y-88900000D01*
D26*
X76200000Y-88900000D02*
X76200000Y-86360000D01*
D29*
%TO.N,BS1*%
X53340000Y-91440000D02*
X53340000Y-88900000D01*
D26*
%TO.N,IRQ0*%
X19050000Y-48260000D02*
X26035000Y-41275000D01*
X33020000Y-88900000D02*
X33020000Y-65405000D01*
X19050000Y-65405000D02*
X19050000Y-48260000D01*
D29*
X33020000Y-91440000D02*
X33020000Y-88900000D01*
D26*
X26035000Y-40246300D02*
X26035000Y-41275000D01*
D29*
%TO.N,MAP_n*%
X55880000Y-91440000D02*
X55880000Y-88900000D01*
%TO.N,DAL16*%
X73660000Y-91440000D02*
X73660000Y-88900000D01*
%TO.N,PRDC_n*%
X81280000Y-91440000D02*
X81280000Y-88900000D01*
D26*
%TO.N,ABORT_n*%
X66040000Y-35166300D02*
X66040000Y-37465000D01*
D29*
X58420000Y-91440000D02*
X58420000Y-88900000D01*
D26*
X54515000Y-74295000D02*
X54515000Y-42005000D01*
X54515000Y-42005000D02*
X55880000Y-40640000D01*
X58420000Y-88900000D02*
X58420000Y-78200000D01*
X58420000Y-78200000D02*
X54515000Y-74295000D01*
D29*
%TO.N,DAL20*%
X63500000Y-91440000D02*
X63500000Y-88900000D01*
%TO.N,DAL19*%
X66040000Y-91440000D02*
X66040000Y-88900000D01*
D26*
%TO.N,TEST1_n*%
X10160000Y-88900000D02*
X10160000Y-86360000D01*
D29*
X10160000Y-91440000D02*
X10160000Y-88900000D01*
%TO.N,DAL21*%
X60960000Y-91440000D02*
X60960000Y-88900000D01*
%TO.N,DAL18*%
X68580000Y-91440000D02*
X68580000Y-88900000D01*
%TO.N,PARITY_n*%
X43180000Y-91440000D02*
X43180000Y-88900000D01*
D26*
X43180000Y-88900000D02*
X43180000Y-86360000D01*
%TO.N,MISS_n*%
X78740000Y-88900000D02*
X78740000Y-86360000D01*
D29*
X78740000Y-91440000D02*
X78740000Y-88900000D01*
%TO.N,IRQ2*%
X38100000Y-91440000D02*
X38100000Y-88900000D01*
D26*
X38100000Y-88900000D02*
X38100000Y-86360000D01*
%TO.N,HALT_DBG_L*%
X68580000Y-25793700D02*
X68580000Y-19505000D01*
D29*
%TO.N,STRB_n*%
X63500000Y-55880000D02*
X63500000Y-53340000D01*
D26*
%TO.N,DV*%
X55880000Y-58420000D02*
X55880000Y-55880000D01*
D29*
X55880000Y-55880000D02*
X55880000Y-53340000D01*
D26*
%TO.N,INIT_n*%
X46355000Y-40246300D02*
X46355000Y-45085000D01*
X46355000Y-45085000D02*
X52070000Y-50800000D01*
D29*
X78740000Y-55880000D02*
X78740000Y-53340000D01*
D26*
X52070000Y-50800000D02*
X52070000Y-59690000D01*
X78740000Y-58420000D02*
X78740000Y-55880000D01*
D28*
%TO.N,CLK2*%
X76200000Y-52070000D02*
X81280000Y-46990000D01*
X81280000Y-46990000D02*
X81280000Y-45720000D01*
X76200000Y-53340000D02*
X76200000Y-52070000D01*
D29*
X76200000Y-55880000D02*
X76200000Y-53340000D01*
%TO.N,CLK*%
X73660000Y-55880000D02*
X73660000Y-53340000D01*
D26*
%TO.N,TEST2_n*%
X83820000Y-58420000D02*
X83820000Y-55880000D01*
D29*
X83820000Y-55880000D02*
X83820000Y-53340000D01*
D26*
%TO.N,AIO0_L*%
X33655000Y-24765000D02*
X33655000Y-23495000D01*
X33655000Y-24765000D02*
X38100000Y-29210000D01*
X38100000Y-29210000D02*
X44132500Y-29210000D01*
X44132500Y-29210000D02*
X45085000Y-30162500D01*
%TO.N,CONT_n*%
X72390000Y-35166300D02*
X72390000Y-40005000D01*
X72390000Y-40005000D02*
X73025000Y-40640000D01*
X73025000Y-40640000D02*
X80645000Y-40640000D01*
X80645000Y-40640000D02*
X82550000Y-42545000D01*
X82550000Y-42545000D02*
X82550000Y-52070000D01*
X82550000Y-52070000D02*
X81280000Y-53340000D01*
D29*
X81280000Y-55880000D02*
X81280000Y-53340000D01*
D26*
%TO.N,DAL12_L*%
X13335000Y-30873700D02*
X13335000Y-27940000D01*
X17145000Y-24130000D02*
X17145000Y-4445000D01*
X13335000Y-27940000D02*
X17145000Y-24130000D01*
X17145000Y-4445000D02*
X18415000Y-3175000D01*
%TO.N,DAL13_L*%
X15875000Y-28575000D02*
X19685000Y-24765000D01*
X19685000Y-24765000D02*
X19685000Y-4445000D01*
X19685000Y-4445000D02*
X20955000Y-3175000D01*
X15875000Y-30873700D02*
X15875000Y-28575000D01*
%TO.N,CLK2_L*%
X57150000Y-3810000D02*
X56515000Y-3175000D01*
X74930000Y-25793700D02*
X74930000Y-21590000D01*
X57150000Y-3810000D02*
X74930000Y-21590000D01*
%TO.N,BUFCTL_n_L*%
X40005698Y-25399302D02*
X40005698Y-4444302D01*
X40005698Y-4444302D02*
X41275000Y-3175000D01*
X51435000Y-30162500D02*
X48101250Y-26828750D01*
X41435146Y-26828750D02*
X40005698Y-25399302D01*
X48101250Y-26828750D02*
X41435146Y-26828750D01*
%TO.N,IRQ0_L*%
X27305000Y-28575000D02*
X23495000Y-24765000D01*
X27305000Y-30873700D02*
X27305000Y-28575000D01*
X23495000Y-24765000D02*
X23495000Y-23495000D01*
%TO.N,IRQ1_L*%
X29845000Y-28575000D02*
X26035000Y-24765000D01*
X26035000Y-24765000D02*
X26035000Y-23495000D01*
X29845000Y-30873700D02*
X29845000Y-28575000D01*
%TO.N,DAL10_L*%
X34925000Y-30873700D02*
X34925000Y-28575000D01*
X34925000Y-28575000D02*
X31115000Y-24765000D01*
X31115000Y-24765000D02*
X31115000Y-23495000D01*
%TO.N,DAL14_L*%
X18415000Y-30873700D02*
X18415000Y-28430000D01*
X18415000Y-28430000D02*
X22080000Y-24765000D01*
X22080000Y-24765000D02*
X22080000Y-4590000D01*
X22080000Y-4590000D02*
X23495000Y-3175000D01*
%TO.N,DAL0_L*%
X17145000Y-28575000D02*
X20955000Y-24765000D01*
X20955000Y-24765000D02*
X20955000Y-23495000D01*
X17145000Y-30873700D02*
X17145000Y-28575000D01*
%TO.N,INIT_n_L*%
X36195000Y-24765000D02*
X36195000Y-23495000D01*
X39740000Y-28310000D02*
X45772500Y-28310000D01*
X36195000Y-24765000D02*
X39740000Y-28310000D01*
X45772500Y-28310000D02*
X47625000Y-30162500D01*
%TO.N,DAL6_L*%
X9525000Y-30873700D02*
X9525000Y-27305000D01*
X9525000Y-27305000D02*
X10795000Y-26035000D01*
X10795000Y-26035000D02*
X10795000Y-23495000D01*
%TO.N,DAL11_L*%
X12065000Y-30873700D02*
X12065000Y-27940000D01*
X14605000Y-4445000D02*
X15875000Y-3175000D01*
X14605000Y-25400000D02*
X12065000Y-27940000D01*
X14605000Y-25400000D02*
X14605000Y-4445000D01*
%TO.N,DAL9_L*%
X32385000Y-30873700D02*
X32385000Y-28575000D01*
X32385000Y-28575000D02*
X28575000Y-24765000D01*
X28575000Y-24765000D02*
X28575000Y-23495000D01*
%TO.N,SCTL_n_L*%
X66915153Y-14999847D02*
X72390000Y-20474695D01*
X72390000Y-25793700D02*
X72390000Y-20474695D01*
X53975000Y-3175000D02*
X65799847Y-14999847D01*
X66915153Y-14999847D02*
X65799847Y-14999847D01*
%TO.N,DAL3_L*%
X32385000Y-24765000D02*
X32385000Y-4445000D01*
X36195000Y-30873700D02*
X36195000Y-28575000D01*
X32385000Y-4445000D02*
X33655000Y-3175000D01*
X36195000Y-28575000D02*
X32385000Y-24765000D01*
%TO.N,DAL15_L*%
X28575000Y-30873700D02*
X28575000Y-28575000D01*
X24765000Y-4445000D02*
X26035000Y-3175000D01*
X24765000Y-24765000D02*
X24765000Y-4445000D01*
X28575000Y-28575000D02*
X24765000Y-24765000D01*
%TO.N,DAL2_L*%
X29845000Y-4445000D02*
X31115000Y-3175000D01*
X33655000Y-28575000D02*
X29845000Y-24765000D01*
X29845000Y-24765000D02*
X29845000Y-4445000D01*
X33655000Y-30873700D02*
X33655000Y-28575000D01*
%TO.N,EVENT_n_L*%
X71120000Y-25793700D02*
X71120000Y-20230000D01*
%TO.N,CONT_n_L*%
X73660000Y-25793700D02*
X73660000Y-22225000D01*
%TO.N,DAL1_L*%
X31115000Y-28575000D02*
X27305000Y-24765000D01*
X27305000Y-4445000D02*
X28575000Y-3175000D01*
X31115000Y-30873700D02*
X31115000Y-28575000D01*
X27305000Y-24765000D02*
X27305000Y-4445000D01*
%TO.N,ABORT_n_L*%
X67310000Y-25793700D02*
X67310000Y-18780000D01*
%TO.N,AIO3_L*%
X44450000Y-25400000D02*
X43815000Y-24765000D01*
X53975000Y-30162500D02*
X49212500Y-25400000D01*
X43815000Y-24765000D02*
X43815000Y-23495000D01*
X49212500Y-25400000D02*
X44450000Y-25400000D01*
%TO.N,AIO2_L*%
X41275000Y-25400000D02*
X41275000Y-23495000D01*
X52705000Y-30162500D02*
X48577500Y-26035000D01*
X41910000Y-26035000D02*
X41275000Y-25400000D01*
X48577500Y-26035000D02*
X41910000Y-26035000D01*
%TO.N,DAL7_L*%
X10795000Y-30873700D02*
X10795000Y-27305000D01*
X13335000Y-24765000D02*
X13335000Y-23495000D01*
X10795000Y-27305000D02*
X13335000Y-24765000D01*
%TO.N,DAL5_L*%
X37610000Y-24910000D02*
X37610000Y-4300000D01*
X37610000Y-4300000D02*
X38735000Y-3175000D01*
X48895000Y-30162500D02*
X46592500Y-27860000D01*
X37610000Y-24910000D02*
X40560000Y-27860000D01*
X46592500Y-27860000D02*
X40560000Y-27860000D01*
%TO.N,GPIO_TX_L*%
X76200000Y-20320000D02*
X59055000Y-3175000D01*
X76200000Y-25793700D02*
X76200000Y-20320000D01*
%TO.N,OE_n*%
X8255000Y-30873700D02*
X8255000Y-32385000D01*
X43815000Y-32385000D02*
X43815000Y-30873700D01*
X66040000Y-27305000D02*
X66040000Y-25793700D01*
X81280000Y-25400000D02*
X81280000Y-20320000D01*
X26035000Y-32385000D02*
X26035000Y-30873700D01*
%TD*%
M02*
