%TF.GenerationSoftware,KiCad,Pcbnew,8.0.5*%
%TF.CreationDate,2025-09-13T13:30:50+09:00*%
%TF.ProjectId,TangNanoDCJ11MEM,54616e67-4e61-46e6-9f44-434a31314d45,rev?*%
%TF.SameCoordinates,Original*%
%TF.FileFunction,Soldermask,Top*%
%TF.FilePolarity,Negative*%
%FSLAX46Y46*%
G04 Gerber Fmt 4.6, Leading zero omitted, Abs format (unit mm)*
G04 Created by KiCad (PCBNEW 8.0.5) date 2025-09-13 13:30:50*
%MOMM*%
%LPD*%
G01*
G04 APERTURE LIST*
%ADD10R,1.700000X1.700000*%
%ADD11O,1.700000X1.700000*%
%ADD12R,0.558800X1.981200*%
%ADD13C,3.000000*%
%ADD14C,1.600000*%
%ADD15O,1.600000X1.600000*%
%ADD16C,2.000000*%
%ADD17R,2.000000X2.000000*%
%ADD18O,2.000000X2.000000*%
%ADD19C,1.500000*%
%ADD20R,1.800000X1.800000*%
%ADD21C,1.800000*%
%ADD22R,1.600000X2.400000*%
%ADD23O,1.600000X2.400000*%
%ADD24R,1.600000X1.600000*%
%ADD25C,1.700000*%
G04 APERTURE END LIST*
D10*
%TO.C,J6*%
X88900000Y-22860000D03*
D11*
X88900000Y-20320000D03*
X88900000Y-17780000D03*
X88900000Y-15240000D03*
%TD*%
D12*
%TO.C,U4*%
X42545000Y-40246300D03*
X43815000Y-40246300D03*
X45085000Y-40246300D03*
X46355000Y-40246300D03*
X47625000Y-40246300D03*
X48895000Y-40246300D03*
X50165000Y-40246300D03*
X51435000Y-40246300D03*
X52705000Y-40246300D03*
X53975000Y-40246300D03*
X53975000Y-30873700D03*
X52705000Y-30873700D03*
X51435000Y-30873700D03*
X50165000Y-30873700D03*
X48895000Y-30873700D03*
X47625000Y-30873700D03*
X46355000Y-30873700D03*
X45085000Y-30873700D03*
X43815000Y-30873700D03*
X42545000Y-30873700D03*
%TD*%
D13*
%TO.C,REF\u002A\u002A*%
X93980000Y-93980000D03*
%TD*%
D14*
%TO.C,R4*%
X22860000Y-78740000D03*
D15*
X22860000Y-86360000D03*
%TD*%
D16*
%TO.C,SW1*%
X89535000Y-63500000D03*
X96035000Y-63500000D03*
X89535000Y-68000000D03*
X96035000Y-68000000D03*
%TD*%
D17*
%TO.C,D1*%
X90170000Y-74930000D03*
D18*
X95250000Y-74930000D03*
%TD*%
D14*
%TO.C,R9*%
X43180000Y-78740000D03*
D15*
X43180000Y-86360000D03*
%TD*%
D14*
%TO.C,R5*%
X25400000Y-78740000D03*
D15*
X25400000Y-86360000D03*
%TD*%
D10*
%TO.C,J2*%
X10160000Y-91440000D03*
D11*
X12700000Y-91440000D03*
X15240000Y-91440000D03*
X17780000Y-91440000D03*
X20320000Y-91440000D03*
X22860000Y-91440000D03*
X25400000Y-91440000D03*
X27940000Y-91440000D03*
X30480000Y-91440000D03*
X33020000Y-91440000D03*
X35560000Y-91440000D03*
X38100000Y-91440000D03*
X40640000Y-91440000D03*
X43180000Y-91440000D03*
X45720000Y-91440000D03*
X48260000Y-91440000D03*
X50800000Y-91440000D03*
X53340000Y-91440000D03*
X55880000Y-91440000D03*
X58420000Y-91440000D03*
X60960000Y-91440000D03*
X63500000Y-91440000D03*
X66040000Y-91440000D03*
X68580000Y-91440000D03*
X71120000Y-91440000D03*
X73660000Y-91440000D03*
X76200000Y-91440000D03*
X78740000Y-91440000D03*
X81280000Y-91440000D03*
X83820000Y-91440000D03*
%TD*%
D14*
%TO.C,C5*%
X40005000Y-34330000D03*
X40005000Y-36830000D03*
%TD*%
%TO.C,R11*%
X78740000Y-78740000D03*
D15*
X78740000Y-86360000D03*
%TD*%
%TO.C,R16*%
X96520000Y-58420000D03*
D14*
X88900000Y-58420000D03*
%TD*%
%TO.C,R2*%
X81280000Y-45720000D03*
D15*
X81280000Y-38100000D03*
%TD*%
D12*
%TO.C,U3*%
X24765000Y-40246300D03*
X26035000Y-40246300D03*
X27305000Y-40246300D03*
X28575000Y-40246300D03*
X29845000Y-40246300D03*
X31115000Y-40246300D03*
X32385000Y-40246300D03*
X33655000Y-40246300D03*
X34925000Y-40246300D03*
X36195000Y-40246300D03*
X36195000Y-30873700D03*
X34925000Y-30873700D03*
X33655000Y-30873700D03*
X32385000Y-30873700D03*
X31115000Y-30873700D03*
X29845000Y-30873700D03*
X28575000Y-30873700D03*
X27305000Y-30873700D03*
X26035000Y-30873700D03*
X24765000Y-30873700D03*
%TD*%
D14*
%TO.C,R12*%
X55880000Y-66040000D03*
D15*
X55880000Y-58420000D03*
%TD*%
D12*
%TO.C,U2*%
X6985000Y-40246300D03*
X8255000Y-40246300D03*
X9525000Y-40246300D03*
X10795000Y-40246300D03*
X12065000Y-40246300D03*
X13335000Y-40246300D03*
X14605000Y-40246300D03*
X15875000Y-40246300D03*
X17145000Y-40246300D03*
X18415000Y-40246300D03*
X18415000Y-30873700D03*
X17145000Y-30873700D03*
X15875000Y-30873700D03*
X14605000Y-30873700D03*
X13335000Y-30873700D03*
X12065000Y-30873700D03*
X10795000Y-30873700D03*
X9525000Y-30873700D03*
X8255000Y-30873700D03*
X6985000Y-30873700D03*
%TD*%
D11*
%TO.C,J5*%
X88900000Y-43180000D03*
X88900000Y-40640000D03*
X88900000Y-38100000D03*
X88900000Y-35560000D03*
X88900000Y-33020000D03*
D10*
X88900000Y-30480000D03*
%TD*%
D14*
%TO.C,C4*%
X22225000Y-34330000D03*
X22225000Y-36830000D03*
%TD*%
%TO.C,R7*%
X38100000Y-78740000D03*
D15*
X38100000Y-86360000D03*
%TD*%
D19*
%TO.C,Y1*%
X72300000Y-45085000D03*
X67420000Y-45085000D03*
%TD*%
D20*
%TO.C,LED1*%
X96520000Y-53340000D03*
D21*
X93980000Y-53340000D03*
%TD*%
D14*
%TO.C,C1*%
X62230000Y-45720000D03*
X62230000Y-43220000D03*
%TD*%
%TO.C,C2*%
X77470000Y-45720000D03*
X77470000Y-43220000D03*
%TD*%
%TO.C,C8*%
X48260000Y-93980000D03*
X45760000Y-93980000D03*
%TD*%
%TO.C,R15*%
X81280000Y-25400000D03*
D15*
X81280000Y-33020000D03*
%TD*%
D14*
%TO.C,R3*%
X10160000Y-78740000D03*
D15*
X10160000Y-86360000D03*
%TD*%
D13*
%TO.C,REF\u002A\u002A*%
X5080000Y-5080000D03*
%TD*%
D16*
%TO.C,SW2*%
X89535000Y-80590000D03*
X96035000Y-80590000D03*
X89535000Y-85090000D03*
X96035000Y-85090000D03*
%TD*%
D14*
%TO.C,C3*%
X4445000Y-34330000D03*
X4445000Y-36830000D03*
%TD*%
%TO.C,R10*%
X76200000Y-78740000D03*
D15*
X76200000Y-86360000D03*
%TD*%
D14*
%TO.C,R1*%
X66040000Y-49530000D03*
D15*
X73660000Y-49530000D03*
%TD*%
D22*
%TO.C,U1*%
X10160000Y-88900000D03*
D23*
X12700000Y-88900000D03*
X15240000Y-88900000D03*
X17780000Y-88900000D03*
X20320000Y-88900000D03*
X22860000Y-88900000D03*
X25400000Y-88900000D03*
X27940000Y-88900000D03*
X30480000Y-88900000D03*
X33020000Y-88900000D03*
X35560000Y-88900000D03*
X38100000Y-88900000D03*
X40640000Y-88900000D03*
X43180000Y-88900000D03*
X45720000Y-88900000D03*
X48260000Y-88900000D03*
X50800000Y-88900000D03*
X53340000Y-88900000D03*
X55880000Y-88900000D03*
X58420000Y-88900000D03*
X60960000Y-88900000D03*
X63500000Y-88900000D03*
X66040000Y-88900000D03*
X68580000Y-88900000D03*
X71120000Y-88900000D03*
X73660000Y-88900000D03*
X76200000Y-88900000D03*
X78740000Y-88900000D03*
X81280000Y-88900000D03*
X83820000Y-88900000D03*
X83820000Y-55880000D03*
X81280000Y-55880000D03*
X78740000Y-55880000D03*
X76200000Y-55880000D03*
X73660000Y-55880000D03*
X71120000Y-55880000D03*
X68580000Y-55880000D03*
X66040000Y-55880000D03*
X63500000Y-55880000D03*
X60960000Y-55880000D03*
X58420000Y-55880000D03*
X55880000Y-55880000D03*
X53340000Y-55880000D03*
X50800000Y-55880000D03*
X48260000Y-55880000D03*
X45720000Y-55880000D03*
X43180000Y-55880000D03*
X40640000Y-55880000D03*
X38100000Y-55880000D03*
X35560000Y-55880000D03*
X33020000Y-55880000D03*
X30480000Y-55880000D03*
X27940000Y-55880000D03*
X25400000Y-55880000D03*
X22860000Y-55880000D03*
X20320000Y-55880000D03*
X17780000Y-55880000D03*
X15240000Y-55880000D03*
X12700000Y-55880000D03*
X10160000Y-55880000D03*
%TD*%
D14*
%TO.C,C7*%
X45720000Y-50800000D03*
X48220000Y-50800000D03*
%TD*%
%TO.C,R8*%
X40640000Y-78740000D03*
D15*
X40640000Y-86360000D03*
%TD*%
D14*
%TO.C,R6*%
X30480000Y-78740000D03*
D15*
X30480000Y-86360000D03*
%TD*%
D24*
%TO.C,J1*%
X10795000Y-23495000D03*
D15*
X13335000Y-23495000D03*
X15875000Y-23495000D03*
X18415000Y-23495000D03*
X20955000Y-23495000D03*
X23495000Y-23495000D03*
X26035000Y-23495000D03*
X28575000Y-23495000D03*
X31115000Y-23495000D03*
X33655000Y-23495000D03*
X36195000Y-23495000D03*
X38735000Y-23495000D03*
X41275000Y-23495000D03*
X43815000Y-23495000D03*
X46355000Y-23495000D03*
X48895000Y-23495000D03*
X51435000Y-23495000D03*
X53975000Y-23495000D03*
X56515000Y-23495000D03*
X59055000Y-23495000D03*
X59055000Y-3175000D03*
X56515000Y-3175000D03*
X53975000Y-3175000D03*
X51435000Y-3175000D03*
X48895000Y-3175000D03*
X46355000Y-3175000D03*
X43815000Y-3175000D03*
X41275000Y-3175000D03*
X38735000Y-3175000D03*
X36195000Y-3175000D03*
X33655000Y-3175000D03*
X31115000Y-3175000D03*
X28575000Y-3175000D03*
X26035000Y-3175000D03*
X23495000Y-3175000D03*
X20955000Y-3175000D03*
X18415000Y-3175000D03*
X15875000Y-3175000D03*
X13335000Y-3175000D03*
X10795000Y-3175000D03*
%TD*%
D25*
%TO.C,J4*%
X81280000Y-17780000D03*
D11*
X81280000Y-20320000D03*
%TD*%
D14*
%TO.C,R14*%
X83820000Y-66040000D03*
D15*
X83820000Y-58420000D03*
%TD*%
D13*
%TO.C,REF\u002A\u002A*%
X5080000Y-93980000D03*
%TD*%
D24*
%TO.C,C9*%
X3810000Y-46990000D03*
D14*
X6310000Y-46990000D03*
%TD*%
%TO.C,C6*%
X62230000Y-29250000D03*
X62230000Y-31750000D03*
%TD*%
D12*
%TO.C,U5*%
X64770000Y-35166300D03*
X66040000Y-35166300D03*
X67310000Y-35166300D03*
X68580000Y-35166300D03*
X69850000Y-35166300D03*
X71120000Y-35166300D03*
X72390000Y-35166300D03*
X73660000Y-35166300D03*
X74930000Y-35166300D03*
X76200000Y-35166300D03*
X76200000Y-25793700D03*
X74930000Y-25793700D03*
X73660000Y-25793700D03*
X72390000Y-25793700D03*
X71120000Y-25793700D03*
X69850000Y-25793700D03*
X68580000Y-25793700D03*
X67310000Y-25793700D03*
X66040000Y-25793700D03*
X64770000Y-25793700D03*
%TD*%
D14*
%TO.C,R13*%
X78740000Y-66040000D03*
D15*
X78740000Y-58420000D03*
%TD*%
D10*
%TO.C,J3*%
X10160000Y-53340000D03*
D11*
X12700000Y-53340000D03*
X15240000Y-53340000D03*
X17780000Y-53340000D03*
X20320000Y-53340000D03*
X22860000Y-53340000D03*
X25400000Y-53340000D03*
X27940000Y-53340000D03*
X30480000Y-53340000D03*
X33020000Y-53340000D03*
X35560000Y-53340000D03*
X38100000Y-53340000D03*
X40640000Y-53340000D03*
X43180000Y-53340000D03*
X45720000Y-53340000D03*
X48260000Y-53340000D03*
X50800000Y-53340000D03*
X53340000Y-53340000D03*
X55880000Y-53340000D03*
X58420000Y-53340000D03*
X60960000Y-53340000D03*
X63500000Y-53340000D03*
X66040000Y-53340000D03*
X68580000Y-53340000D03*
X71120000Y-53340000D03*
X73660000Y-53340000D03*
X76200000Y-53340000D03*
X78740000Y-53340000D03*
X81280000Y-53340000D03*
X83820000Y-53340000D03*
%TD*%
D13*
%TO.C,REF\u002A\u002A*%
X93980000Y-5080000D03*
%TD*%
M02*
