M48
; DRILL file {KiCad 8.0.5} date 2025-09-13T13:30:54+0900
; FORMAT={-:-/ absolute / inch / decimal}
; #@! TF.CreationDate,2025-09-13T13:30:54+09:00
; #@! TF.GenerationSoftware,Kicad,Pcbnew,8.0.5
; #@! TF.FileFunction,Plated,1,2,PTH
FMAT,2
INCH
; #@! TA.AperFunction,Plated,PTH,ViaDrill
T1C0.0157
; #@! TA.AperFunction,Plated,PTH,ComponentDrill
T2C0.0315
; #@! TA.AperFunction,Plated,PTH,ComponentDrill
T3C0.0354
; #@! TA.AperFunction,Plated,PTH,ComponentDrill
T4C0.0394
; #@! TA.AperFunction,Plated,PTH,ComponentDrill
T5C0.0433
%
G90
G05
T1
X0.325Y-1.275
X0.425Y-1.875
X0.475Y-1.825
X0.5Y-2.85
X0.575Y-1.75
X0.6Y-2.9
X0.625Y-0.625
X0.675Y-1.675
X0.7Y-2.9535
X0.75Y-2.575
X0.8Y-2.325
X0.8Y-3.0
X0.85Y-2.425
X0.9Y-2.2965
X0.95Y-2.525
X1.0Y-1.875
X1.025Y-1.275
X1.05Y-2.375
X1.1Y-1.825
X1.1Y-3.775
X1.15Y-2.325
X1.2Y-1.825
X1.2Y-3.7465
X1.25Y-2.3
X1.275Y-1.675
X1.3Y-1.825
X1.3Y-2.575
X1.325Y-1.725
X1.35Y-2.85
X1.4Y-2.425
X1.4Y-2.525
X1.425Y-1.775
X1.45Y-1.875
X1.45Y-2.9
X1.5Y-2.375
X1.55Y-1.875
X1.55Y-2.95
X1.6Y-1.675
X1.625Y-3.0
X1.65Y-1.9
X1.7Y-1.775
X1.725Y-1.275
X1.725Y-1.725
X1.9Y-2.55
X1.9Y-2.6
X1.9Y-2.65
X1.9Y-3.1
X1.925Y-1.7
X1.975Y-1.8
X2.025Y-1.875
X2.05Y-2.35
X2.075Y-1.925
X2.2Y-1.6
X2.25Y-1.6
X2.25Y-2.875
X2.3Y-1.8
X2.35Y-1.6
X2.35Y-3.775
X2.6Y-1.075
X2.6Y-1.475
X2.65Y-0.7394
X2.65Y-1.525
X2.7Y-0.7679
X2.75Y-1.55
X2.8Y-0.7965
X2.9Y-0.875
X2.925Y-0.625
X3.375Y-3.725
T2
X0.15Y-1.85
X0.175Y-1.3516
X0.175Y-1.45
X0.2484Y-1.85
X0.4Y-2.2
X0.4Y-3.1
X0.4Y-3.4
X0.4Y-3.5
X0.425Y-0.125
X0.425Y-0.925
X0.5Y-2.2
X0.5Y-3.5
X0.525Y-0.125
X0.525Y-0.925
X0.6Y-2.2
X0.6Y-3.5
X0.625Y-0.125
X0.625Y-0.925
X0.7Y-2.2
X0.7Y-3.5
X0.725Y-0.125
X0.725Y-0.925
X0.8Y-2.2
X0.8Y-3.5
X0.825Y-0.125
X0.825Y-0.925
X0.875Y-1.3516
X0.875Y-1.45
X0.9Y-2.2
X0.9Y-3.1
X0.9Y-3.4
X0.9Y-3.5
X0.925Y-0.125
X0.925Y-0.925
X1.0Y-2.2
X1.0Y-3.1
X1.0Y-3.4
X1.0Y-3.5
X1.025Y-0.125
X1.025Y-0.925
X1.1Y-2.2
X1.1Y-3.5
X1.125Y-0.125
X1.125Y-0.925
X1.2Y-2.2
X1.2Y-3.1
X1.2Y-3.4
X1.2Y-3.5
X1.225Y-0.125
X1.225Y-0.925
X1.3Y-2.2
X1.3Y-3.5
X1.325Y-0.125
X1.325Y-0.925
X1.4Y-2.2
X1.4Y-3.5
X1.425Y-0.125
X1.425Y-0.925
X1.5Y-2.2
X1.5Y-3.1
X1.5Y-3.4
X1.5Y-3.5
X1.525Y-0.125
X1.525Y-0.925
X1.575Y-1.3516
X1.575Y-1.45
X1.6Y-2.2
X1.6Y-3.1
X1.6Y-3.4
X1.6Y-3.5
X1.625Y-0.125
X1.625Y-0.925
X1.7Y-2.2
X1.7Y-3.1
X1.7Y-3.4
X1.7Y-3.5
X1.725Y-0.125
X1.725Y-0.925
X1.8Y-2.0
X1.8Y-2.2
X1.8Y-3.5
X1.8016Y-3.7
X1.825Y-0.125
X1.825Y-0.925
X1.8984Y-2.0
X1.9Y-2.2
X1.9Y-3.5
X1.9Y-3.7
X1.925Y-0.125
X1.925Y-0.925
X2.0Y-2.2
X2.0Y-3.5
X2.025Y-0.125
X2.025Y-0.925
X2.1Y-2.2
X2.1Y-3.5
X2.125Y-0.125
X2.125Y-0.925
X2.2Y-2.2
X2.2Y-2.3
X2.2Y-2.6
X2.2Y-3.5
X2.225Y-0.125
X2.225Y-0.925
X2.3Y-2.2
X2.3Y-3.5
X2.325Y-0.125
X2.325Y-0.925
X2.4Y-2.2
X2.4Y-3.5
X2.45Y-1.1516
X2.45Y-1.25
X2.45Y-1.7016
X2.45Y-1.8
X2.5Y-2.2
X2.5Y-3.5
X2.6Y-1.95
X2.6Y-2.2
X2.6Y-3.5
X2.6543Y-1.775
X2.7Y-2.2
X2.7Y-3.5
X2.8Y-2.2
X2.8Y-3.5
X2.8465Y-1.775
X2.9Y-1.95
X2.9Y-2.2
X2.9Y-3.5
X3.0Y-2.2
X3.0Y-3.1
X3.0Y-3.4
X3.0Y-3.5
X3.05Y-1.7016
X3.05Y-1.8
X3.1Y-2.2
X3.1Y-2.3
X3.1Y-2.6
X3.1Y-3.1
X3.1Y-3.4
X3.1Y-3.5
X3.2Y-1.0
X3.2Y-1.3
X3.2Y-1.5
X3.2Y-1.8
X3.2Y-2.2
X3.2Y-3.5
X3.3Y-2.2
X3.3Y-2.3
X3.3Y-2.6
X3.3Y-3.5
X3.5Y-2.3
X3.8Y-2.3
T3
X3.7Y-2.1
X3.8Y-2.1
T4
X0.4Y-2.1
X0.4Y-3.6
X0.5Y-2.1
X0.5Y-3.6
X0.6Y-2.1
X0.6Y-3.6
X0.7Y-2.1
X0.7Y-3.6
X0.8Y-2.1
X0.8Y-3.6
X0.9Y-2.1
X0.9Y-3.6
X1.0Y-2.1
X1.0Y-3.6
X1.1Y-2.1
X1.1Y-3.6
X1.2Y-2.1
X1.2Y-3.6
X1.3Y-2.1
X1.3Y-3.6
X1.4Y-2.1
X1.4Y-3.6
X1.5Y-2.1
X1.5Y-3.6
X1.6Y-2.1
X1.6Y-3.6
X1.7Y-2.1
X1.7Y-3.6
X1.8Y-2.1
X1.8Y-3.6
X1.9Y-2.1
X1.9Y-3.6
X2.0Y-2.1
X2.0Y-3.6
X2.1Y-2.1
X2.1Y-3.6
X2.2Y-2.1
X2.2Y-3.6
X2.3Y-2.1
X2.3Y-3.6
X2.4Y-2.1
X2.4Y-3.6
X2.5Y-2.1
X2.5Y-3.6
X2.6Y-2.1
X2.6Y-3.6
X2.7Y-2.1
X2.7Y-3.6
X2.8Y-2.1
X2.8Y-3.6
X2.9Y-2.1
X2.9Y-3.6
X3.0Y-2.1
X3.0Y-3.6
X3.1Y-2.1
X3.1Y-3.6
X3.2Y-0.7
X3.2Y-0.8
X3.2Y-2.1
X3.2Y-3.6
X3.3Y-2.1
X3.3Y-3.6
X3.5Y-0.6
X3.5Y-0.7
X3.5Y-0.8
X3.5Y-0.9
X3.5Y-1.2
X3.5Y-1.3
X3.5Y-1.4
X3.5Y-1.5
X3.5Y-1.6
X3.5Y-1.7
X3.55Y-2.95
X3.75Y-2.95
T5
X3.525Y-2.5
X3.525Y-2.6772
X3.525Y-3.1728
X3.525Y-3.35
X3.7809Y-2.5
X3.7809Y-2.6772
X3.7809Y-3.1728
X3.7809Y-3.35
M30
