%TF.GenerationSoftware,KiCad,Pcbnew,8.0.5*%
%TF.CreationDate,2025-09-05T14:55:06+09:00*%
%TF.ProjectId,TangNanoDCJ11MEM,54616e67-4e61-46e6-9f44-434a31314d45,rev?*%
%TF.SameCoordinates,Original*%
%TF.FileFunction,Copper,L2,Bot*%
%TF.FilePolarity,Positive*%
%FSLAX46Y46*%
G04 Gerber Fmt 4.6, Leading zero omitted, Abs format (unit mm)*
G04 Created by KiCad (PCBNEW 8.0.5) date 2025-09-05 14:55:06*
%MOMM*%
%LPD*%
G01*
G04 APERTURE LIST*
%ADD10C,0.300000*%
%TA.AperFunction,NonConductor*%
%ADD11C,0.300000*%
%TD*%
%TA.AperFunction,ComponentPad*%
%ADD12R,1.600000X1.600000*%
%TD*%
%TA.AperFunction,ComponentPad*%
%ADD13O,1.600000X1.600000*%
%TD*%
%TA.AperFunction,ComponentPad*%
%ADD14C,1.600000*%
%TD*%
%TA.AperFunction,ComponentPad*%
%ADD15C,2.000000*%
%TD*%
%TA.AperFunction,ComponentPad*%
%ADD16R,1.700000X1.700000*%
%TD*%
%TA.AperFunction,ComponentPad*%
%ADD17O,1.700000X1.700000*%
%TD*%
%TA.AperFunction,ComponentPad*%
%ADD18C,1.500000*%
%TD*%
%TA.AperFunction,ComponentPad*%
%ADD19R,1.800000X1.800000*%
%TD*%
%TA.AperFunction,ComponentPad*%
%ADD20C,1.800000*%
%TD*%
%TA.AperFunction,ComponentPad*%
%ADD21R,1.600000X2.400000*%
%TD*%
%TA.AperFunction,ComponentPad*%
%ADD22O,1.600000X2.400000*%
%TD*%
%TA.AperFunction,ViaPad*%
%ADD23C,0.800000*%
%TD*%
%TA.AperFunction,Conductor*%
%ADD24C,2.000000*%
%TD*%
%TA.AperFunction,Conductor*%
%ADD25C,1.000000*%
%TD*%
%TA.AperFunction,Conductor*%
%ADD26C,0.400000*%
%TD*%
%TA.AperFunction,Conductor*%
%ADD27C,4.000000*%
%TD*%
%TA.AperFunction,Conductor*%
%ADD28C,0.250000*%
%TD*%
%TA.AperFunction,Conductor*%
%ADD29C,0.500000*%
%TD*%
G04 APERTURE END LIST*
D10*
D11*
X44563796Y-5185870D02*
X44563796Y-3685870D01*
X44563796Y-3685870D02*
X44206653Y-3685870D01*
X44206653Y-3685870D02*
X43992367Y-3757299D01*
X43992367Y-3757299D02*
X43849510Y-3900156D01*
X43849510Y-3900156D02*
X43778081Y-4043013D01*
X43778081Y-4043013D02*
X43706653Y-4328727D01*
X43706653Y-4328727D02*
X43706653Y-4543013D01*
X43706653Y-4543013D02*
X43778081Y-4828727D01*
X43778081Y-4828727D02*
X43849510Y-4971584D01*
X43849510Y-4971584D02*
X43992367Y-5114442D01*
X43992367Y-5114442D02*
X44206653Y-5185870D01*
X44206653Y-5185870D02*
X44563796Y-5185870D01*
X42492367Y-5114442D02*
X42635224Y-5185870D01*
X42635224Y-5185870D02*
X42920939Y-5185870D01*
X42920939Y-5185870D02*
X43063796Y-5114442D01*
X43063796Y-5114442D02*
X43135224Y-4971584D01*
X43135224Y-4971584D02*
X43135224Y-4400156D01*
X43135224Y-4400156D02*
X43063796Y-4257299D01*
X43063796Y-4257299D02*
X42920939Y-4185870D01*
X42920939Y-4185870D02*
X42635224Y-4185870D01*
X42635224Y-4185870D02*
X42492367Y-4257299D01*
X42492367Y-4257299D02*
X42420939Y-4400156D01*
X42420939Y-4400156D02*
X42420939Y-4543013D01*
X42420939Y-4543013D02*
X43135224Y-4685870D01*
X41849510Y-5114442D02*
X41706653Y-5185870D01*
X41706653Y-5185870D02*
X41420939Y-5185870D01*
X41420939Y-5185870D02*
X41278082Y-5114442D01*
X41278082Y-5114442D02*
X41206653Y-4971584D01*
X41206653Y-4971584D02*
X41206653Y-4900156D01*
X41206653Y-4900156D02*
X41278082Y-4757299D01*
X41278082Y-4757299D02*
X41420939Y-4685870D01*
X41420939Y-4685870D02*
X41635225Y-4685870D01*
X41635225Y-4685870D02*
X41778082Y-4614442D01*
X41778082Y-4614442D02*
X41849510Y-4471584D01*
X41849510Y-4471584D02*
X41849510Y-4400156D01*
X41849510Y-4400156D02*
X41778082Y-4257299D01*
X41778082Y-4257299D02*
X41635225Y-4185870D01*
X41635225Y-4185870D02*
X41420939Y-4185870D01*
X41420939Y-4185870D02*
X41278082Y-4257299D01*
X40563796Y-5185870D02*
X40563796Y-4185870D01*
X40563796Y-3685870D02*
X40635224Y-3757299D01*
X40635224Y-3757299D02*
X40563796Y-3828727D01*
X40563796Y-3828727D02*
X40492367Y-3757299D01*
X40492367Y-3757299D02*
X40563796Y-3685870D01*
X40563796Y-3685870D02*
X40563796Y-3828727D01*
X39206653Y-4185870D02*
X39206653Y-5400156D01*
X39206653Y-5400156D02*
X39278081Y-5543013D01*
X39278081Y-5543013D02*
X39349510Y-5614442D01*
X39349510Y-5614442D02*
X39492367Y-5685870D01*
X39492367Y-5685870D02*
X39706653Y-5685870D01*
X39706653Y-5685870D02*
X39849510Y-5614442D01*
X39206653Y-5114442D02*
X39349510Y-5185870D01*
X39349510Y-5185870D02*
X39635224Y-5185870D01*
X39635224Y-5185870D02*
X39778081Y-5114442D01*
X39778081Y-5114442D02*
X39849510Y-5043013D01*
X39849510Y-5043013D02*
X39920938Y-4900156D01*
X39920938Y-4900156D02*
X39920938Y-4471584D01*
X39920938Y-4471584D02*
X39849510Y-4328727D01*
X39849510Y-4328727D02*
X39778081Y-4257299D01*
X39778081Y-4257299D02*
X39635224Y-4185870D01*
X39635224Y-4185870D02*
X39349510Y-4185870D01*
X39349510Y-4185870D02*
X39206653Y-4257299D01*
X38492367Y-4185870D02*
X38492367Y-5185870D01*
X38492367Y-4328727D02*
X38420938Y-4257299D01*
X38420938Y-4257299D02*
X38278081Y-4185870D01*
X38278081Y-4185870D02*
X38063795Y-4185870D01*
X38063795Y-4185870D02*
X37920938Y-4257299D01*
X37920938Y-4257299D02*
X37849510Y-4400156D01*
X37849510Y-4400156D02*
X37849510Y-5185870D01*
X36563795Y-5114442D02*
X36706652Y-5185870D01*
X36706652Y-5185870D02*
X36992367Y-5185870D01*
X36992367Y-5185870D02*
X37135224Y-5114442D01*
X37135224Y-5114442D02*
X37206652Y-4971584D01*
X37206652Y-4971584D02*
X37206652Y-4400156D01*
X37206652Y-4400156D02*
X37135224Y-4257299D01*
X37135224Y-4257299D02*
X36992367Y-4185870D01*
X36992367Y-4185870D02*
X36706652Y-4185870D01*
X36706652Y-4185870D02*
X36563795Y-4257299D01*
X36563795Y-4257299D02*
X36492367Y-4400156D01*
X36492367Y-4400156D02*
X36492367Y-4543013D01*
X36492367Y-4543013D02*
X37206652Y-4685870D01*
X35206653Y-5185870D02*
X35206653Y-3685870D01*
X35206653Y-5114442D02*
X35349510Y-5185870D01*
X35349510Y-5185870D02*
X35635224Y-5185870D01*
X35635224Y-5185870D02*
X35778081Y-5114442D01*
X35778081Y-5114442D02*
X35849510Y-5043013D01*
X35849510Y-5043013D02*
X35920938Y-4900156D01*
X35920938Y-4900156D02*
X35920938Y-4471584D01*
X35920938Y-4471584D02*
X35849510Y-4328727D01*
X35849510Y-4328727D02*
X35778081Y-4257299D01*
X35778081Y-4257299D02*
X35635224Y-4185870D01*
X35635224Y-4185870D02*
X35349510Y-4185870D01*
X35349510Y-4185870D02*
X35206653Y-4257299D01*
X33349510Y-5185870D02*
X33349510Y-3685870D01*
X33349510Y-4257299D02*
X33206653Y-4185870D01*
X33206653Y-4185870D02*
X32920938Y-4185870D01*
X32920938Y-4185870D02*
X32778081Y-4257299D01*
X32778081Y-4257299D02*
X32706653Y-4328727D01*
X32706653Y-4328727D02*
X32635224Y-4471584D01*
X32635224Y-4471584D02*
X32635224Y-4900156D01*
X32635224Y-4900156D02*
X32706653Y-5043013D01*
X32706653Y-5043013D02*
X32778081Y-5114442D01*
X32778081Y-5114442D02*
X32920938Y-5185870D01*
X32920938Y-5185870D02*
X33206653Y-5185870D01*
X33206653Y-5185870D02*
X33349510Y-5114442D01*
X32135224Y-4185870D02*
X31778081Y-5185870D01*
X31420938Y-4185870D02*
X31778081Y-5185870D01*
X31778081Y-5185870D02*
X31920938Y-5543013D01*
X31920938Y-5543013D02*
X31992367Y-5614442D01*
X31992367Y-5614442D02*
X32135224Y-5685870D01*
X28849510Y-5185870D02*
X29349510Y-4471584D01*
X29706653Y-5185870D02*
X29706653Y-3685870D01*
X29706653Y-3685870D02*
X29135224Y-3685870D01*
X29135224Y-3685870D02*
X28992367Y-3757299D01*
X28992367Y-3757299D02*
X28920938Y-3828727D01*
X28920938Y-3828727D02*
X28849510Y-3971584D01*
X28849510Y-3971584D02*
X28849510Y-4185870D01*
X28849510Y-4185870D02*
X28920938Y-4328727D01*
X28920938Y-4328727D02*
X28992367Y-4400156D01*
X28992367Y-4400156D02*
X29135224Y-4471584D01*
X29135224Y-4471584D02*
X29706653Y-4471584D01*
X28349510Y-4185870D02*
X27992367Y-5185870D01*
X27635224Y-4185870D02*
X27992367Y-5185870D01*
X27992367Y-5185870D02*
X28135224Y-5543013D01*
X28135224Y-5543013D02*
X28206653Y-5614442D01*
X28206653Y-5614442D02*
X28349510Y-5685870D01*
X26849510Y-5185870D02*
X26992367Y-5114442D01*
X26992367Y-5114442D02*
X27063796Y-5043013D01*
X27063796Y-5043013D02*
X27135224Y-4900156D01*
X27135224Y-4900156D02*
X27135224Y-4471584D01*
X27135224Y-4471584D02*
X27063796Y-4328727D01*
X27063796Y-4328727D02*
X26992367Y-4257299D01*
X26992367Y-4257299D02*
X26849510Y-4185870D01*
X26849510Y-4185870D02*
X26635224Y-4185870D01*
X26635224Y-4185870D02*
X26492367Y-4257299D01*
X26492367Y-4257299D02*
X26420939Y-4328727D01*
X26420939Y-4328727D02*
X26349510Y-4471584D01*
X26349510Y-4471584D02*
X26349510Y-4900156D01*
X26349510Y-4900156D02*
X26420939Y-5043013D01*
X26420939Y-5043013D02*
X26492367Y-5114442D01*
X26492367Y-5114442D02*
X26635224Y-5185870D01*
X26635224Y-5185870D02*
X26849510Y-5185870D01*
X24563796Y-5185870D02*
X24563796Y-3685870D01*
X24563796Y-3685870D02*
X24063796Y-4757299D01*
X24063796Y-4757299D02*
X23563796Y-3685870D01*
X23563796Y-3685870D02*
X23563796Y-5185870D01*
X22206653Y-4185870D02*
X22206653Y-5185870D01*
X22849510Y-4185870D02*
X22849510Y-4971584D01*
X22849510Y-4971584D02*
X22778081Y-5114442D01*
X22778081Y-5114442D02*
X22635224Y-5185870D01*
X22635224Y-5185870D02*
X22420938Y-5185870D01*
X22420938Y-5185870D02*
X22278081Y-5114442D01*
X22278081Y-5114442D02*
X22206653Y-5043013D01*
X21492367Y-5185870D02*
X21492367Y-3685870D01*
X21349510Y-4614442D02*
X20920938Y-5185870D01*
X20920938Y-4185870D02*
X21492367Y-4757299D01*
X19635224Y-5185870D02*
X19635224Y-4400156D01*
X19635224Y-4400156D02*
X19706652Y-4257299D01*
X19706652Y-4257299D02*
X19849509Y-4185870D01*
X19849509Y-4185870D02*
X20135224Y-4185870D01*
X20135224Y-4185870D02*
X20278081Y-4257299D01*
X19635224Y-5114442D02*
X19778081Y-5185870D01*
X19778081Y-5185870D02*
X20135224Y-5185870D01*
X20135224Y-5185870D02*
X20278081Y-5114442D01*
X20278081Y-5114442D02*
X20349509Y-4971584D01*
X20349509Y-4971584D02*
X20349509Y-4828727D01*
X20349509Y-4828727D02*
X20278081Y-4685870D01*
X20278081Y-4685870D02*
X20135224Y-4614442D01*
X20135224Y-4614442D02*
X19778081Y-4614442D01*
X19778081Y-4614442D02*
X19635224Y-4543013D01*
X18920938Y-5185870D02*
X18920938Y-4185870D01*
X18920938Y-3685870D02*
X18992366Y-3757299D01*
X18992366Y-3757299D02*
X18920938Y-3828727D01*
X18920938Y-3828727D02*
X18849509Y-3757299D01*
X18849509Y-3757299D02*
X18920938Y-3685870D01*
X18920938Y-3685870D02*
X18920938Y-3828727D01*
X18135223Y-5114442D02*
X18135223Y-5185870D01*
X18135223Y-5185870D02*
X18206652Y-5328727D01*
X18206652Y-5328727D02*
X18278080Y-5400156D01*
X16420937Y-3828727D02*
X16349509Y-3757299D01*
X16349509Y-3757299D02*
X16206652Y-3685870D01*
X16206652Y-3685870D02*
X15849509Y-3685870D01*
X15849509Y-3685870D02*
X15706652Y-3757299D01*
X15706652Y-3757299D02*
X15635223Y-3828727D01*
X15635223Y-3828727D02*
X15563794Y-3971584D01*
X15563794Y-3971584D02*
X15563794Y-4114442D01*
X15563794Y-4114442D02*
X15635223Y-4328727D01*
X15635223Y-4328727D02*
X16492366Y-5185870D01*
X16492366Y-5185870D02*
X15563794Y-5185870D01*
X14635223Y-3685870D02*
X14492366Y-3685870D01*
X14492366Y-3685870D02*
X14349509Y-3757299D01*
X14349509Y-3757299D02*
X14278081Y-3828727D01*
X14278081Y-3828727D02*
X14206652Y-3971584D01*
X14206652Y-3971584D02*
X14135223Y-4257299D01*
X14135223Y-4257299D02*
X14135223Y-4614442D01*
X14135223Y-4614442D02*
X14206652Y-4900156D01*
X14206652Y-4900156D02*
X14278081Y-5043013D01*
X14278081Y-5043013D02*
X14349509Y-5114442D01*
X14349509Y-5114442D02*
X14492366Y-5185870D01*
X14492366Y-5185870D02*
X14635223Y-5185870D01*
X14635223Y-5185870D02*
X14778081Y-5114442D01*
X14778081Y-5114442D02*
X14849509Y-5043013D01*
X14849509Y-5043013D02*
X14920938Y-4900156D01*
X14920938Y-4900156D02*
X14992366Y-4614442D01*
X14992366Y-4614442D02*
X14992366Y-4257299D01*
X14992366Y-4257299D02*
X14920938Y-3971584D01*
X14920938Y-3971584D02*
X14849509Y-3828727D01*
X14849509Y-3828727D02*
X14778081Y-3757299D01*
X14778081Y-3757299D02*
X14635223Y-3685870D01*
X13563795Y-3828727D02*
X13492367Y-3757299D01*
X13492367Y-3757299D02*
X13349510Y-3685870D01*
X13349510Y-3685870D02*
X12992367Y-3685870D01*
X12992367Y-3685870D02*
X12849510Y-3757299D01*
X12849510Y-3757299D02*
X12778081Y-3828727D01*
X12778081Y-3828727D02*
X12706652Y-3971584D01*
X12706652Y-3971584D02*
X12706652Y-4114442D01*
X12706652Y-4114442D02*
X12778081Y-4328727D01*
X12778081Y-4328727D02*
X13635224Y-5185870D01*
X13635224Y-5185870D02*
X12706652Y-5185870D01*
X11349510Y-3685870D02*
X12063796Y-3685870D01*
X12063796Y-3685870D02*
X12135224Y-4400156D01*
X12135224Y-4400156D02*
X12063796Y-4328727D01*
X12063796Y-4328727D02*
X11920939Y-4257299D01*
X11920939Y-4257299D02*
X11563796Y-4257299D01*
X11563796Y-4257299D02*
X11420939Y-4328727D01*
X11420939Y-4328727D02*
X11349510Y-4400156D01*
X11349510Y-4400156D02*
X11278081Y-4543013D01*
X11278081Y-4543013D02*
X11278081Y-4900156D01*
X11278081Y-4900156D02*
X11349510Y-5043013D01*
X11349510Y-5043013D02*
X11420939Y-5114442D01*
X11420939Y-5114442D02*
X11563796Y-5185870D01*
X11563796Y-5185870D02*
X11920939Y-5185870D01*
X11920939Y-5185870D02*
X12063796Y-5114442D01*
X12063796Y-5114442D02*
X12135224Y-5043013D01*
X42063800Y-7600786D02*
X42063800Y-6100786D01*
X41420943Y-7600786D02*
X41420943Y-6815072D01*
X41420943Y-6815072D02*
X41492371Y-6672215D01*
X41492371Y-6672215D02*
X41635228Y-6600786D01*
X41635228Y-6600786D02*
X41849514Y-6600786D01*
X41849514Y-6600786D02*
X41992371Y-6672215D01*
X41992371Y-6672215D02*
X42063800Y-6743643D01*
X40920942Y-6600786D02*
X40349514Y-6600786D01*
X40706657Y-6100786D02*
X40706657Y-7386500D01*
X40706657Y-7386500D02*
X40635228Y-7529358D01*
X40635228Y-7529358D02*
X40492371Y-7600786D01*
X40492371Y-7600786D02*
X40349514Y-7600786D01*
X40063799Y-6600786D02*
X39492371Y-6600786D01*
X39849514Y-6100786D02*
X39849514Y-7386500D01*
X39849514Y-7386500D02*
X39778085Y-7529358D01*
X39778085Y-7529358D02*
X39635228Y-7600786D01*
X39635228Y-7600786D02*
X39492371Y-7600786D01*
X38992371Y-6600786D02*
X38992371Y-8100786D01*
X38992371Y-6672215D02*
X38849514Y-6600786D01*
X38849514Y-6600786D02*
X38563799Y-6600786D01*
X38563799Y-6600786D02*
X38420942Y-6672215D01*
X38420942Y-6672215D02*
X38349514Y-6743643D01*
X38349514Y-6743643D02*
X38278085Y-6886500D01*
X38278085Y-6886500D02*
X38278085Y-7315072D01*
X38278085Y-7315072D02*
X38349514Y-7457929D01*
X38349514Y-7457929D02*
X38420942Y-7529358D01*
X38420942Y-7529358D02*
X38563799Y-7600786D01*
X38563799Y-7600786D02*
X38849514Y-7600786D01*
X38849514Y-7600786D02*
X38992371Y-7529358D01*
X37706656Y-7529358D02*
X37563799Y-7600786D01*
X37563799Y-7600786D02*
X37278085Y-7600786D01*
X37278085Y-7600786D02*
X37135228Y-7529358D01*
X37135228Y-7529358D02*
X37063799Y-7386500D01*
X37063799Y-7386500D02*
X37063799Y-7315072D01*
X37063799Y-7315072D02*
X37135228Y-7172215D01*
X37135228Y-7172215D02*
X37278085Y-7100786D01*
X37278085Y-7100786D02*
X37492371Y-7100786D01*
X37492371Y-7100786D02*
X37635228Y-7029358D01*
X37635228Y-7029358D02*
X37706656Y-6886500D01*
X37706656Y-6886500D02*
X37706656Y-6815072D01*
X37706656Y-6815072D02*
X37635228Y-6672215D01*
X37635228Y-6672215D02*
X37492371Y-6600786D01*
X37492371Y-6600786D02*
X37278085Y-6600786D01*
X37278085Y-6600786D02*
X37135228Y-6672215D01*
X36420942Y-7457929D02*
X36349513Y-7529358D01*
X36349513Y-7529358D02*
X36420942Y-7600786D01*
X36420942Y-7600786D02*
X36492370Y-7529358D01*
X36492370Y-7529358D02*
X36420942Y-7457929D01*
X36420942Y-7457929D02*
X36420942Y-7600786D01*
X36420942Y-6672215D02*
X36349513Y-6743643D01*
X36349513Y-6743643D02*
X36420942Y-6815072D01*
X36420942Y-6815072D02*
X36492370Y-6743643D01*
X36492370Y-6743643D02*
X36420942Y-6672215D01*
X36420942Y-6672215D02*
X36420942Y-6815072D01*
X34635227Y-6029358D02*
X35920941Y-7957929D01*
X33063798Y-6029358D02*
X34349512Y-7957929D01*
X31920941Y-6600786D02*
X31920941Y-7815072D01*
X31920941Y-7815072D02*
X31992369Y-7957929D01*
X31992369Y-7957929D02*
X32063798Y-8029358D01*
X32063798Y-8029358D02*
X32206655Y-8100786D01*
X32206655Y-8100786D02*
X32420941Y-8100786D01*
X32420941Y-8100786D02*
X32563798Y-8029358D01*
X31920941Y-7529358D02*
X32063798Y-7600786D01*
X32063798Y-7600786D02*
X32349512Y-7600786D01*
X32349512Y-7600786D02*
X32492369Y-7529358D01*
X32492369Y-7529358D02*
X32563798Y-7457929D01*
X32563798Y-7457929D02*
X32635226Y-7315072D01*
X32635226Y-7315072D02*
X32635226Y-6886500D01*
X32635226Y-6886500D02*
X32563798Y-6743643D01*
X32563798Y-6743643D02*
X32492369Y-6672215D01*
X32492369Y-6672215D02*
X32349512Y-6600786D01*
X32349512Y-6600786D02*
X32063798Y-6600786D01*
X32063798Y-6600786D02*
X31920941Y-6672215D01*
X31206655Y-7600786D02*
X31206655Y-6600786D01*
X31206655Y-6100786D02*
X31278083Y-6172215D01*
X31278083Y-6172215D02*
X31206655Y-6243643D01*
X31206655Y-6243643D02*
X31135226Y-6172215D01*
X31135226Y-6172215D02*
X31206655Y-6100786D01*
X31206655Y-6100786D02*
X31206655Y-6243643D01*
X30706654Y-6600786D02*
X30135226Y-6600786D01*
X30492369Y-6100786D02*
X30492369Y-7386500D01*
X30492369Y-7386500D02*
X30420940Y-7529358D01*
X30420940Y-7529358D02*
X30278083Y-7600786D01*
X30278083Y-7600786D02*
X30135226Y-7600786D01*
X29635226Y-7600786D02*
X29635226Y-6100786D01*
X28992369Y-7600786D02*
X28992369Y-6815072D01*
X28992369Y-6815072D02*
X29063797Y-6672215D01*
X29063797Y-6672215D02*
X29206654Y-6600786D01*
X29206654Y-6600786D02*
X29420940Y-6600786D01*
X29420940Y-6600786D02*
X29563797Y-6672215D01*
X29563797Y-6672215D02*
X29635226Y-6743643D01*
X27635226Y-6600786D02*
X27635226Y-7600786D01*
X28278083Y-6600786D02*
X28278083Y-7386500D01*
X28278083Y-7386500D02*
X28206654Y-7529358D01*
X28206654Y-7529358D02*
X28063797Y-7600786D01*
X28063797Y-7600786D02*
X27849511Y-7600786D01*
X27849511Y-7600786D02*
X27706654Y-7529358D01*
X27706654Y-7529358D02*
X27635226Y-7457929D01*
X26920940Y-7600786D02*
X26920940Y-6100786D01*
X26920940Y-6672215D02*
X26778083Y-6600786D01*
X26778083Y-6600786D02*
X26492368Y-6600786D01*
X26492368Y-6600786D02*
X26349511Y-6672215D01*
X26349511Y-6672215D02*
X26278083Y-6743643D01*
X26278083Y-6743643D02*
X26206654Y-6886500D01*
X26206654Y-6886500D02*
X26206654Y-7315072D01*
X26206654Y-7315072D02*
X26278083Y-7457929D01*
X26278083Y-7457929D02*
X26349511Y-7529358D01*
X26349511Y-7529358D02*
X26492368Y-7600786D01*
X26492368Y-7600786D02*
X26778083Y-7600786D01*
X26778083Y-7600786D02*
X26920940Y-7529358D01*
X25563797Y-7457929D02*
X25492368Y-7529358D01*
X25492368Y-7529358D02*
X25563797Y-7600786D01*
X25563797Y-7600786D02*
X25635225Y-7529358D01*
X25635225Y-7529358D02*
X25563797Y-7457929D01*
X25563797Y-7457929D02*
X25563797Y-7600786D01*
X24206654Y-7529358D02*
X24349511Y-7600786D01*
X24349511Y-7600786D02*
X24635225Y-7600786D01*
X24635225Y-7600786D02*
X24778082Y-7529358D01*
X24778082Y-7529358D02*
X24849511Y-7457929D01*
X24849511Y-7457929D02*
X24920939Y-7315072D01*
X24920939Y-7315072D02*
X24920939Y-6886500D01*
X24920939Y-6886500D02*
X24849511Y-6743643D01*
X24849511Y-6743643D02*
X24778082Y-6672215D01*
X24778082Y-6672215D02*
X24635225Y-6600786D01*
X24635225Y-6600786D02*
X24349511Y-6600786D01*
X24349511Y-6600786D02*
X24206654Y-6672215D01*
X23349511Y-7600786D02*
X23492368Y-7529358D01*
X23492368Y-7529358D02*
X23563797Y-7457929D01*
X23563797Y-7457929D02*
X23635225Y-7315072D01*
X23635225Y-7315072D02*
X23635225Y-6886500D01*
X23635225Y-6886500D02*
X23563797Y-6743643D01*
X23563797Y-6743643D02*
X23492368Y-6672215D01*
X23492368Y-6672215D02*
X23349511Y-6600786D01*
X23349511Y-6600786D02*
X23135225Y-6600786D01*
X23135225Y-6600786D02*
X22992368Y-6672215D01*
X22992368Y-6672215D02*
X22920940Y-6743643D01*
X22920940Y-6743643D02*
X22849511Y-6886500D01*
X22849511Y-6886500D02*
X22849511Y-7315072D01*
X22849511Y-7315072D02*
X22920940Y-7457929D01*
X22920940Y-7457929D02*
X22992368Y-7529358D01*
X22992368Y-7529358D02*
X23135225Y-7600786D01*
X23135225Y-7600786D02*
X23349511Y-7600786D01*
X22206654Y-7600786D02*
X22206654Y-6600786D01*
X22206654Y-6743643D02*
X22135225Y-6672215D01*
X22135225Y-6672215D02*
X21992368Y-6600786D01*
X21992368Y-6600786D02*
X21778082Y-6600786D01*
X21778082Y-6600786D02*
X21635225Y-6672215D01*
X21635225Y-6672215D02*
X21563797Y-6815072D01*
X21563797Y-6815072D02*
X21563797Y-7600786D01*
X21563797Y-6815072D02*
X21492368Y-6672215D01*
X21492368Y-6672215D02*
X21349511Y-6600786D01*
X21349511Y-6600786D02*
X21135225Y-6600786D01*
X21135225Y-6600786D02*
X20992368Y-6672215D01*
X20992368Y-6672215D02*
X20920939Y-6815072D01*
X20920939Y-6815072D02*
X20920939Y-7600786D01*
X19135225Y-6029358D02*
X20420939Y-7957929D01*
X18635225Y-7600786D02*
X18635225Y-6600786D01*
X18635225Y-6886500D02*
X18563796Y-6743643D01*
X18563796Y-6743643D02*
X18492368Y-6672215D01*
X18492368Y-6672215D02*
X18349510Y-6600786D01*
X18349510Y-6600786D02*
X18206653Y-6600786D01*
X17849511Y-6600786D02*
X17492368Y-7600786D01*
X17135225Y-6600786D02*
X17492368Y-7600786D01*
X17492368Y-7600786D02*
X17635225Y-7957929D01*
X17635225Y-7957929D02*
X17706654Y-8029358D01*
X17706654Y-8029358D02*
X17849511Y-8100786D01*
X16349511Y-7600786D02*
X16492368Y-7529358D01*
X16492368Y-7529358D02*
X16563797Y-7457929D01*
X16563797Y-7457929D02*
X16635225Y-7315072D01*
X16635225Y-7315072D02*
X16635225Y-6886500D01*
X16635225Y-6886500D02*
X16563797Y-6743643D01*
X16563797Y-6743643D02*
X16492368Y-6672215D01*
X16492368Y-6672215D02*
X16349511Y-6600786D01*
X16349511Y-6600786D02*
X16135225Y-6600786D01*
X16135225Y-6600786D02*
X15992368Y-6672215D01*
X15992368Y-6672215D02*
X15920940Y-6743643D01*
X15920940Y-6743643D02*
X15849511Y-6886500D01*
X15849511Y-6886500D02*
X15849511Y-7315072D01*
X15849511Y-7315072D02*
X15920940Y-7457929D01*
X15920940Y-7457929D02*
X15992368Y-7529358D01*
X15992368Y-7529358D02*
X16135225Y-7600786D01*
X16135225Y-7600786D02*
X16349511Y-7600786D01*
X15206654Y-7600786D02*
X15206654Y-6600786D01*
X15206654Y-6743643D02*
X15135225Y-6672215D01*
X15135225Y-6672215D02*
X14992368Y-6600786D01*
X14992368Y-6600786D02*
X14778082Y-6600786D01*
X14778082Y-6600786D02*
X14635225Y-6672215D01*
X14635225Y-6672215D02*
X14563797Y-6815072D01*
X14563797Y-6815072D02*
X14563797Y-7600786D01*
X14563797Y-6815072D02*
X14492368Y-6672215D01*
X14492368Y-6672215D02*
X14349511Y-6600786D01*
X14349511Y-6600786D02*
X14135225Y-6600786D01*
X14135225Y-6600786D02*
X13992368Y-6672215D01*
X13992368Y-6672215D02*
X13920939Y-6815072D01*
X13920939Y-6815072D02*
X13920939Y-7600786D01*
X12563797Y-6600786D02*
X12563797Y-7600786D01*
X13206654Y-6600786D02*
X13206654Y-7386500D01*
X13206654Y-7386500D02*
X13135225Y-7529358D01*
X13135225Y-7529358D02*
X12992368Y-7600786D01*
X12992368Y-7600786D02*
X12778082Y-7600786D01*
X12778082Y-7600786D02*
X12635225Y-7529358D01*
X12635225Y-7529358D02*
X12563797Y-7457929D01*
X11849511Y-7600786D02*
X11849511Y-6100786D01*
X11706654Y-7029358D02*
X11278082Y-7600786D01*
X11278082Y-6600786D02*
X11849511Y-7172215D01*
D12*
%TO.P,D1,1,K*%
%TO.N,HALT*%
X77470000Y-82550000D03*
D13*
%TO.P,D1,2,A*%
%TO.N,HALT_DBG*%
X69850000Y-82550000D03*
%TD*%
D14*
%TO.P,R4,1*%
%TO.N,VCC*%
X20320000Y-40640000D03*
D13*
%TO.P,R4,2*%
%TO.N,PWRF_n*%
X20320000Y-48260000D03*
%TD*%
D15*
%TO.P,SW1,1,1*%
%TO.N,VCC*%
X81280000Y-69850000D03*
X87780000Y-69850000D03*
%TO.P,SW1,2,2*%
%TO.N,INIT_SW*%
X81280000Y-74350000D03*
X87780000Y-74350000D03*
%TD*%
D14*
%TO.P,R9,1*%
%TO.N,VCC*%
X40640000Y-40640000D03*
D13*
%TO.P,R9,2*%
%TO.N,PARITY_n*%
X40640000Y-48260000D03*
%TD*%
D14*
%TO.P,R5,1*%
%TO.N,VCC*%
X22860000Y-40640000D03*
D13*
%TO.P,R5,2*%
%TO.N,FPE_n*%
X22860000Y-48260000D03*
%TD*%
D16*
%TO.P,J4,1,Pin_1*%
%TO.N,TEST1_n*%
X7620000Y-53340000D03*
D17*
%TO.P,J4,2,Pin_2*%
%TO.N,AIO0*%
X10160000Y-53340000D03*
%TO.P,J4,3,Pin_3*%
%TO.N,AIO1*%
X12700000Y-53340000D03*
%TO.P,J4,4,Pin_4*%
%TO.N,AIO2*%
X15240000Y-53340000D03*
%TO.P,J4,5,Pin_5*%
%TO.N,AIO3*%
X17780000Y-53340000D03*
%TO.P,J4,6,Pin_6*%
%TO.N,PWRF_n*%
X20320000Y-53340000D03*
%TO.P,J4,7,Pin_7*%
%TO.N,FPE_n*%
X22860000Y-53340000D03*
%TO.P,J4,8,Pin_8*%
%TO.N,EVENT_n*%
X25400000Y-53340000D03*
%TO.P,J4,9,Pin_9*%
%TO.N,HALT*%
X27940000Y-53340000D03*
%TO.P,J4,10,Pin_10*%
%TO.N,IRQ0*%
X30480000Y-53340000D03*
%TO.P,J4,11,Pin_11*%
%TO.N,IRQ1*%
X33020000Y-53340000D03*
%TO.P,J4,12,Pin_12*%
%TO.N,IRQ2*%
X35560000Y-53340000D03*
%TO.P,J4,13,Pin_13*%
%TO.N,IRQ3*%
X38100000Y-53340000D03*
%TO.P,J4,14,Pin_14*%
%TO.N,PARITY_n*%
X40640000Y-53340000D03*
%TO.P,J4,15,Pin_15*%
%TO.N,GND*%
X43180000Y-53340000D03*
%TO.P,J4,16,Pin_16*%
%TO.N,VCC*%
X45720000Y-53340000D03*
%TO.P,J4,17,Pin_17*%
%TO.N,BS0*%
X48260000Y-53340000D03*
%TO.P,J4,18,Pin_18*%
%TO.N,BS1*%
X50800000Y-53340000D03*
%TO.P,J4,19,Pin_19*%
%TO.N,MAP_n*%
X53340000Y-53340000D03*
%TO.P,J4,20,Pin_20*%
%TO.N,ABORT_n*%
X55880000Y-53340000D03*
%TO.P,J4,21,Pin_21*%
%TO.N,DAL21*%
X58420000Y-53340000D03*
%TO.P,J4,22,Pin_22*%
%TO.N,DAL20*%
X60960000Y-53340000D03*
%TO.P,J4,23,Pin_23*%
%TO.N,DAL19*%
X63500000Y-53340000D03*
%TO.P,J4,24,Pin_24*%
%TO.N,DAL18*%
X66040000Y-53340000D03*
%TO.P,J4,25,Pin_25*%
%TO.N,DAL17*%
X68580000Y-53340000D03*
%TO.P,J4,26,Pin_26*%
%TO.N,DAL16*%
X71120000Y-53340000D03*
%TO.P,J4,27,Pin_27*%
%TO.N,DMR_n*%
X73660000Y-53340000D03*
%TO.P,J4,28,Pin_28*%
%TO.N,MISS_n*%
X76200000Y-53340000D03*
%TO.P,J4,29,Pin_29*%
%TO.N,PRDC_n*%
X78740000Y-53340000D03*
%TO.P,J4,30,Pin_30*%
%TO.N,unconnected-(J4-Pin_30-Pad30)*%
X81280000Y-53340000D03*
%TD*%
D14*
%TO.P,R11,1*%
%TO.N,VCC*%
X76200000Y-40640000D03*
D13*
%TO.P,R11,2*%
%TO.N,MISS_n*%
X76200000Y-48260000D03*
%TD*%
D14*
%TO.P,R15,1*%
%TO.N,GND*%
X81280000Y-64770000D03*
D13*
%TO.P,R15,2*%
%TO.N,Net-(LED1-K)*%
X88900000Y-64770000D03*
%TD*%
D14*
%TO.P,R2,1*%
%TO.N,CLK2*%
X78740000Y-7620000D03*
D13*
%TO.P,R2,2*%
%TO.N,CLK2_D*%
X86360000Y-7620000D03*
%TD*%
D14*
%TO.P,R12,1*%
%TO.N,VCC*%
X53340000Y-27940000D03*
D13*
%TO.P,R12,2*%
%TO.N,DV*%
X53340000Y-20320000D03*
%TD*%
D16*
%TO.P,J6,1,Pin_1*%
%TO.N,GND*%
X88900000Y-17780000D03*
D17*
%TO.P,J6,2,Pin_2*%
%TO.N,unconnected-(J6-Pin_2-Pad2)*%
X88900000Y-20320000D03*
%TO.P,J6,3,Pin_3*%
%TO.N,unconnected-(J6-Pin_3-Pad3)*%
X88900000Y-22860000D03*
%TO.P,J6,4,Pin_4*%
%TO.N,unconnected-(J6-Pin_4-Pad4)*%
X88900000Y-25400000D03*
%TO.P,J6,5,Pin_5*%
%TO.N,GPIO_TX*%
X88900000Y-27940000D03*
%TO.P,J6,6,Pin_6*%
%TO.N,unconnected-(J6-Pin_6-Pad6)*%
X88900000Y-30480000D03*
%TD*%
D16*
%TO.P,J3,1,Pin_1*%
%TO.N,VCC*%
X12700000Y-64770000D03*
D17*
%TO.P,J3,2,Pin_2*%
%TO.N,GND*%
X15240000Y-64770000D03*
%TO.P,J3,3,Pin_3*%
%TO.N,DAL11*%
X17780000Y-64770000D03*
%TO.P,J3,4,Pin_4*%
%TO.N,DAL12*%
X20320000Y-64770000D03*
%TO.P,J3,5,Pin_5*%
%TO.N,DAL13*%
X22860000Y-64770000D03*
%TO.P,J3,6,Pin_6*%
%TO.N,DAL14*%
X25400000Y-64770000D03*
%TO.P,J3,7,Pin_7*%
%TO.N,DAL15*%
X27940000Y-64770000D03*
%TO.P,J3,8,Pin_8*%
%TO.N,DAL1*%
X30480000Y-64770000D03*
%TO.P,J3,9,Pin_9*%
%TO.N,DAL2*%
X33020000Y-64770000D03*
%TO.P,J3,10,Pin_10*%
%TO.N,DAL3*%
X35560000Y-64770000D03*
%TO.P,J3,11,Pin_11*%
%TO.N,DAL4*%
X38100000Y-64770000D03*
%TO.P,J3,12,Pin_12*%
%TO.N,DAL5*%
X40640000Y-64770000D03*
%TO.P,J3,13,Pin_13*%
%TO.N,BUFCTL_n*%
X43180000Y-64770000D03*
%TO.P,J3,14,Pin_14*%
%TO.N,LED_RGB*%
X45720000Y-64770000D03*
%TO.P,J3,15,Pin_15*%
%TO.N,GND*%
X48260000Y-64770000D03*
%TO.P,J3,16,Pin_16*%
%TO.N,3V3b*%
X50800000Y-64770000D03*
%TO.P,J3,17,Pin_17*%
%TO.N,ALE_n*%
X53340000Y-64770000D03*
%TO.P,J3,18,Pin_18*%
%TO.N,SCTL_n*%
X55880000Y-64770000D03*
%TO.P,J3,19,Pin_19*%
%TO.N,CLK2_D*%
X58420000Y-64770000D03*
%TO.P,J3,20,Pin_20*%
%TO.N,GPIO_TX*%
X60960000Y-64770000D03*
%TD*%
D14*
%TO.P,R7,1*%
%TO.N,GND*%
X35560000Y-40640000D03*
D13*
%TO.P,R7,2*%
%TO.N,IRQ2*%
X35560000Y-48260000D03*
%TD*%
D18*
%TO.P,Y1,1,1*%
%TO.N,XTALI*%
X69650000Y-6985000D03*
%TO.P,Y1,2,2*%
%TO.N,XTALO*%
X64770000Y-6985000D03*
%TD*%
D19*
%TO.P,LED1,1,K*%
%TO.N,Net-(LED1-K)*%
X83820000Y-60960000D03*
D20*
%TO.P,LED1,2,A*%
%TO.N,VCC*%
X81280000Y-60960000D03*
%TD*%
D14*
%TO.P,C1,1*%
%TO.N,GND*%
X59690000Y-7620000D03*
%TO.P,C1,2*%
%TO.N,XTALO*%
X59690000Y-5120000D03*
%TD*%
%TO.P,C2,1*%
%TO.N,GND*%
X74930000Y-7620000D03*
%TO.P,C2,2*%
%TO.N,XTALI*%
X74930000Y-5120000D03*
%TD*%
%TO.P,C4,1*%
%TO.N,VCC*%
X45720000Y-55880000D03*
%TO.P,C4,2*%
%TO.N,GND*%
X43220000Y-55880000D03*
%TD*%
%TO.P,R3,1*%
%TO.N,VCC*%
X7620000Y-40640000D03*
D13*
%TO.P,R3,2*%
%TO.N,TEST1_n*%
X7620000Y-48260000D03*
%TD*%
D15*
%TO.P,SW2,1,1*%
%TO.N,VCC*%
X81280000Y-82550000D03*
X87780000Y-82550000D03*
%TO.P,SW2,2,2*%
%TO.N,HALT*%
X81280000Y-87050000D03*
X87780000Y-87050000D03*
%TD*%
D14*
%TO.P,R10,1*%
%TO.N,VCC*%
X73660000Y-40640000D03*
D13*
%TO.P,R10,2*%
%TO.N,DMR_n*%
X73660000Y-48260000D03*
%TD*%
D14*
%TO.P,R1,1*%
%TO.N,XTALO*%
X63500000Y-11430000D03*
D13*
%TO.P,R1,2*%
%TO.N,XTALI*%
X71120000Y-11430000D03*
%TD*%
D21*
%TO.P,U1,1,~{TEST1}*%
%TO.N,TEST1_n*%
X7620000Y-50800000D03*
D22*
%TO.P,U1,2,AIO0*%
%TO.N,AIO0*%
X10160000Y-50800000D03*
%TO.P,U1,3,AIO1*%
%TO.N,AIO1*%
X12700000Y-50800000D03*
%TO.P,U1,4,AIO2*%
%TO.N,AIO2*%
X15240000Y-50800000D03*
%TO.P,U1,5,AIO3*%
%TO.N,AIO3*%
X17780000Y-50800000D03*
%TO.P,U1,6,~{PWRF}*%
%TO.N,PWRF_n*%
X20320000Y-50800000D03*
%TO.P,U1,7,~{FPE}*%
%TO.N,FPE_n*%
X22860000Y-50800000D03*
%TO.P,U1,8,~{EVENT}*%
%TO.N,EVENT_n*%
X25400000Y-50800000D03*
%TO.P,U1,9,HALT*%
%TO.N,HALT*%
X27940000Y-50800000D03*
%TO.P,U1,10,IRQ0*%
%TO.N,IRQ0*%
X30480000Y-50800000D03*
%TO.P,U1,11,IRQ1*%
%TO.N,IRQ1*%
X33020000Y-50800000D03*
%TO.P,U1,12,IRQ2*%
%TO.N,IRQ2*%
X35560000Y-50800000D03*
%TO.P,U1,13,IRQ3*%
%TO.N,IRQ3*%
X38100000Y-50800000D03*
%TO.P,U1,14,~{PARITY}*%
%TO.N,PARITY_n*%
X40640000Y-50800000D03*
%TO.P,U1,15,GND*%
%TO.N,GND*%
X43180000Y-50800000D03*
%TO.P,U1,16,VCC*%
%TO.N,VCC*%
X45720000Y-50800000D03*
%TO.P,U1,17,BS0*%
%TO.N,BS0*%
X48260000Y-50800000D03*
%TO.P,U1,18,BS1*%
%TO.N,BS1*%
X50800000Y-50800000D03*
%TO.P,U1,19,~{MAP}*%
%TO.N,MAP_n*%
X53340000Y-50800000D03*
%TO.P,U1,20,~{ABORT}*%
%TO.N,ABORT_n*%
X55880000Y-50800000D03*
%TO.P,U1,21,DAL21*%
%TO.N,DAL21*%
X58420000Y-50800000D03*
%TO.P,U1,22,DAL20*%
%TO.N,DAL20*%
X60960000Y-50800000D03*
%TO.P,U1,23,DAL19*%
%TO.N,DAL19*%
X63500000Y-50800000D03*
%TO.P,U1,24,DAL18*%
%TO.N,DAL18*%
X66040000Y-50800000D03*
%TO.P,U1,25,DAL17*%
%TO.N,DAL17*%
X68580000Y-50800000D03*
%TO.P,U1,26,DAL16*%
%TO.N,DAL16*%
X71120000Y-50800000D03*
%TO.P,U1,27,~{DMR}*%
%TO.N,DMR_n*%
X73660000Y-50800000D03*
%TO.P,U1,28,~{MISS}*%
%TO.N,MISS_n*%
X76200000Y-50800000D03*
%TO.P,U1,29,~{PRDC}*%
%TO.N,PRDC_n*%
X78740000Y-50800000D03*
%TO.P,U1,30,NC*%
%TO.N,unconnected-(U1-NC-Pad30)*%
X81280000Y-50800000D03*
%TO.P,U1,31,~{TEST2}*%
%TO.N,TEST2_n*%
X81280000Y-17780000D03*
%TO.P,U1,32,CONT*%
%TO.N,CONT_n*%
X78740000Y-17780000D03*
%TO.P,U1,33,~{INIT}*%
%TO.N,INIT_n*%
X76200000Y-17780000D03*
%TO.P,U1,34,CLK2*%
%TO.N,CLK2*%
X73660000Y-17780000D03*
%TO.P,U1,35,CLK*%
%TO.N,CLK*%
X71120000Y-17780000D03*
%TO.P,U1,36,XTALI*%
%TO.N,XTALI*%
X68580000Y-17780000D03*
%TO.P,U1,37,XTALO*%
%TO.N,XTALO*%
X66040000Y-17780000D03*
%TO.P,U1,38,~{SCTL}*%
%TO.N,SCTL_n*%
X63500000Y-17780000D03*
%TO.P,U1,39,~{STRB}*%
%TO.N,STRB_n*%
X60960000Y-17780000D03*
%TO.P,U1,40,~{ALE}*%
%TO.N,ALE_n*%
X58420000Y-17780000D03*
%TO.P,U1,41,~{BUFCTL}*%
%TO.N,BUFCTL_n*%
X55880000Y-17780000D03*
%TO.P,U1,42,DV*%
%TO.N,DV*%
X53340000Y-17780000D03*
%TO.P,U1,43,DAL5*%
%TO.N,DAL5*%
X50800000Y-17780000D03*
%TO.P,U1,44,DAL4*%
%TO.N,DAL4*%
X48260000Y-17780000D03*
%TO.P,U1,45,GND*%
%TO.N,GND*%
X45720000Y-17780000D03*
%TO.P,U1,46,VCC*%
%TO.N,VCC*%
X43180000Y-17780000D03*
%TO.P,U1,47,DAL3*%
%TO.N,DAL3*%
X40640000Y-17780000D03*
%TO.P,U1,48,DAL2*%
%TO.N,DAL2*%
X38100000Y-17780000D03*
%TO.P,U1,49,DAL1*%
%TO.N,DAL1*%
X35560000Y-17780000D03*
%TO.P,U1,50,DAL15*%
%TO.N,DAL15*%
X33020000Y-17780000D03*
%TO.P,U1,51,DAL14*%
%TO.N,DAL14*%
X30480000Y-17780000D03*
%TO.P,U1,52,DAL13*%
%TO.N,DAL13*%
X27940000Y-17780000D03*
%TO.P,U1,53,DAL12*%
%TO.N,DAL12*%
X25400000Y-17780000D03*
%TO.P,U1,54,DAL11*%
%TO.N,DAL11*%
X22860000Y-17780000D03*
%TO.P,U1,55,DAL10*%
%TO.N,DAL10*%
X20320000Y-17780000D03*
%TO.P,U1,56,DAL9*%
%TO.N,DAL9*%
X17780000Y-17780000D03*
%TO.P,U1,57,DAL0*%
%TO.N,DAL0*%
X15240000Y-17780000D03*
%TO.P,U1,58,DAL8*%
%TO.N,DAL8*%
X12700000Y-17780000D03*
%TO.P,U1,59,DAL7*%
%TO.N,DAL7*%
X10160000Y-17780000D03*
%TO.P,U1,60,DAL6*%
%TO.N,DAL6*%
X7620000Y-17780000D03*
%TD*%
D14*
%TO.P,C3,1*%
%TO.N,VCC*%
X43180000Y-12700000D03*
%TO.P,C3,2*%
%TO.N,GND*%
X45680000Y-12700000D03*
%TD*%
%TO.P,R8,1*%
%TO.N,GND*%
X38100000Y-40640000D03*
D13*
%TO.P,R8,2*%
%TO.N,IRQ3*%
X38100000Y-48260000D03*
%TD*%
D14*
%TO.P,R6,1*%
%TO.N,GND*%
X27940000Y-40640000D03*
D13*
%TO.P,R6,2*%
%TO.N,HALT*%
X27940000Y-48260000D03*
%TD*%
D12*
%TO.P,J1,1,Pin_1*%
%TO.N,DAL6*%
X12700000Y-86360000D03*
D13*
%TO.P,J1,2,Pin_2*%
%TO.N,DAL7*%
X15240000Y-86360000D03*
%TO.P,J1,3,Pin_3*%
%TO.N,INIT_SW*%
X17780000Y-86360000D03*
%TO.P,J1,4,Pin_4*%
%TO.N,DAL8*%
X20320000Y-86360000D03*
%TO.P,J1,5,Pin_5*%
%TO.N,DAL0*%
X22860000Y-86360000D03*
%TO.P,J1,6,Pin_6*%
%TO.N,IRQ0*%
X25400000Y-86360000D03*
%TO.P,J1,7,Pin_7*%
%TO.N,IRQ1*%
X27940000Y-86360000D03*
%TO.P,J1,8,Pin_8*%
%TO.N,DAL9*%
X30480000Y-86360000D03*
%TO.P,J1,9,Pin_9*%
%TO.N,DAL10*%
X33020000Y-86360000D03*
%TO.P,J1,10,Pin_10*%
%TO.N,AIO0*%
X35560000Y-86360000D03*
%TO.P,J1,11,Pin_11*%
%TO.N,INIT_n*%
X38100000Y-86360000D03*
%TO.P,J1,12,Pin_12*%
%TO.N,AIO1*%
X40640000Y-86360000D03*
%TO.P,J1,13,Pin_13*%
%TO.N,AIO2*%
X43180000Y-86360000D03*
%TO.P,J1,14,Pin_14*%
%TO.N,AIO3*%
X45720000Y-86360000D03*
%TO.P,J1,15,Pin_15*%
%TO.N,ABORT_n*%
X48260000Y-86360000D03*
%TO.P,J1,16,Pin_16*%
%TO.N,HALT_DBG*%
X50800000Y-86360000D03*
%TO.P,J1,17,Pin_17*%
%TO.N,EVENT_n*%
X53340000Y-86360000D03*
%TO.P,J1,18,Pin_18*%
%TO.N,CONT_n*%
X55880000Y-86360000D03*
%TO.P,J1,19,Pin_19*%
%TO.N,3V3a*%
X58420000Y-86360000D03*
%TO.P,J1,20,Pin_20*%
%TO.N,GND*%
X60960000Y-86360000D03*
%TO.P,J1,21,Pin_21*%
%TO.N,GPIO_TX*%
X60960000Y-71120000D03*
%TO.P,J1,22,Pin_22*%
%TO.N,CLK2_D*%
X58420000Y-71120000D03*
%TO.P,J1,23,Pin_23*%
%TO.N,SCTL_n*%
X55880000Y-71120000D03*
%TO.P,J1,24,Pin_24*%
%TO.N,ALE_n*%
X53340000Y-71120000D03*
%TO.P,J1,25,Pin_25*%
%TO.N,3V3b*%
X50800000Y-71120000D03*
%TO.P,J1,26,Pin_26*%
%TO.N,GND*%
X48260000Y-71120000D03*
%TO.P,J1,27,Pin_27*%
%TO.N,LED_RGB*%
X45720000Y-71120000D03*
%TO.P,J1,28,Pin_28*%
%TO.N,BUFCTL_n*%
X43180000Y-71120000D03*
%TO.P,J1,29,Pin_29*%
%TO.N,DAL5*%
X40640000Y-71120000D03*
%TO.P,J1,30,Pin_30*%
%TO.N,DAL4*%
X38100000Y-71120000D03*
%TO.P,J1,31,Pin_31*%
%TO.N,DAL3*%
X35560000Y-71120000D03*
%TO.P,J1,32,Pin_32*%
%TO.N,DAL2*%
X33020000Y-71120000D03*
%TO.P,J1,33,Pin_33*%
%TO.N,DAL1*%
X30480000Y-71120000D03*
%TO.P,J1,34,Pin_34*%
%TO.N,DAL15*%
X27940000Y-71120000D03*
%TO.P,J1,35,Pin_35*%
%TO.N,DAL14*%
X25400000Y-71120000D03*
%TO.P,J1,36,Pin_36*%
%TO.N,DAL13*%
X22860000Y-71120000D03*
%TO.P,J1,37,Pin_37*%
%TO.N,DAL12*%
X20320000Y-71120000D03*
%TO.P,J1,38,Pin_38*%
%TO.N,DAL11*%
X17780000Y-71120000D03*
%TO.P,J1,39,Pin_39*%
%TO.N,GND*%
X15240000Y-71120000D03*
%TO.P,J1,40,Pin_40*%
%TO.N,VCC*%
X12700000Y-71120000D03*
%TD*%
D14*
%TO.P,R14,1*%
%TO.N,VCC*%
X81280000Y-27940000D03*
D13*
%TO.P,R14,2*%
%TO.N,TEST2_n*%
X81280000Y-20320000D03*
%TD*%
D16*
%TO.P,J2,1,Pin_1*%
%TO.N,DAL6*%
X12700000Y-92710000D03*
D17*
%TO.P,J2,2,Pin_2*%
%TO.N,DAL7*%
X15240000Y-92710000D03*
%TO.P,J2,3,Pin_3*%
%TO.N,INIT_SW*%
X17780000Y-92710000D03*
%TO.P,J2,4,Pin_4*%
%TO.N,DAL8*%
X20320000Y-92710000D03*
%TO.P,J2,5,Pin_5*%
%TO.N,DAL0*%
X22860000Y-92710000D03*
%TO.P,J2,6,Pin_6*%
%TO.N,IRQ0*%
X25400000Y-92710000D03*
%TO.P,J2,7,Pin_7*%
%TO.N,IRQ1*%
X27940000Y-92710000D03*
%TO.P,J2,8,Pin_8*%
%TO.N,DAL9*%
X30480000Y-92710000D03*
%TO.P,J2,9,Pin_9*%
%TO.N,DAL10*%
X33020000Y-92710000D03*
%TO.P,J2,10,Pin_10*%
%TO.N,AIO0*%
X35560000Y-92710000D03*
%TO.P,J2,11,Pin_11*%
%TO.N,INIT_n*%
X38100000Y-92710000D03*
%TO.P,J2,12,Pin_12*%
%TO.N,AIO1*%
X40640000Y-92710000D03*
%TO.P,J2,13,Pin_13*%
%TO.N,AIO2*%
X43180000Y-92710000D03*
%TO.P,J2,14,Pin_14*%
%TO.N,AIO3*%
X45720000Y-92710000D03*
%TO.P,J2,15,Pin_15*%
%TO.N,ABORT_n*%
X48260000Y-92710000D03*
%TO.P,J2,16,Pin_16*%
%TO.N,HALT_DBG*%
X50800000Y-92710000D03*
%TO.P,J2,17,Pin_17*%
%TO.N,EVENT_n*%
X53340000Y-92710000D03*
%TO.P,J2,18,Pin_18*%
%TO.N,CONT_n*%
X55880000Y-92710000D03*
%TO.P,J2,19,Pin_19*%
%TO.N,3V3a*%
X58420000Y-92710000D03*
%TO.P,J2,20,Pin_20*%
%TO.N,GND*%
X60960000Y-92710000D03*
%TD*%
D12*
%TO.P,C5,1*%
%TO.N,VCC*%
X6350000Y-63500000D03*
D14*
%TO.P,C5,2*%
%TO.N,GND*%
X6350000Y-61000000D03*
%TD*%
%TO.P,R13,1*%
%TO.N,VCC*%
X76200000Y-27940000D03*
D13*
%TO.P,R13,2*%
%TO.N,INIT_n*%
X76200000Y-20320000D03*
%TD*%
D16*
%TO.P,J5,1,Pin_1*%
%TO.N,DAL6*%
X7620000Y-15240000D03*
D17*
%TO.P,J5,2,Pin_2*%
%TO.N,DAL7*%
X10160000Y-15240000D03*
%TO.P,J5,3,Pin_3*%
%TO.N,DAL8*%
X12700000Y-15240000D03*
%TO.P,J5,4,Pin_4*%
%TO.N,DAL0*%
X15240000Y-15240000D03*
%TO.P,J5,5,Pin_5*%
%TO.N,DAL9*%
X17780000Y-15240000D03*
%TO.P,J5,6,Pin_6*%
%TO.N,DAL10*%
X20320000Y-15240000D03*
%TO.P,J5,7,Pin_7*%
%TO.N,DAL11*%
X22860000Y-15240000D03*
%TO.P,J5,8,Pin_8*%
%TO.N,DAL12*%
X25400000Y-15240000D03*
%TO.P,J5,9,Pin_9*%
%TO.N,DAL13*%
X27940000Y-15240000D03*
%TO.P,J5,10,Pin_10*%
%TO.N,DAL14*%
X30480000Y-15240000D03*
%TO.P,J5,11,Pin_11*%
%TO.N,DAL15*%
X33020000Y-15240000D03*
%TO.P,J5,12,Pin_12*%
%TO.N,DAL1*%
X35560000Y-15240000D03*
%TO.P,J5,13,Pin_13*%
%TO.N,DAL2*%
X38100000Y-15240000D03*
%TO.P,J5,14,Pin_14*%
%TO.N,DAL3*%
X40640000Y-15240000D03*
%TO.P,J5,15,Pin_15*%
%TO.N,VCC*%
X43180000Y-15240000D03*
%TO.P,J5,16,Pin_16*%
%TO.N,GND*%
X45720000Y-15240000D03*
%TO.P,J5,17,Pin_17*%
%TO.N,DAL4*%
X48260000Y-15240000D03*
%TO.P,J5,18,Pin_18*%
%TO.N,DAL5*%
X50800000Y-15240000D03*
%TO.P,J5,19,Pin_19*%
%TO.N,DV*%
X53340000Y-15240000D03*
%TO.P,J5,20,Pin_20*%
%TO.N,BUFCTL_n*%
X55880000Y-15240000D03*
%TO.P,J5,21,Pin_21*%
%TO.N,ALE_n*%
X58420000Y-15240000D03*
%TO.P,J5,22,Pin_22*%
%TO.N,STRB_n*%
X60960000Y-15240000D03*
%TO.P,J5,23,Pin_23*%
%TO.N,SCTL_n*%
X63500000Y-15240000D03*
%TO.P,J5,24,Pin_24*%
%TO.N,XTALO*%
X66040000Y-15240000D03*
%TO.P,J5,25,Pin_25*%
%TO.N,XTALI*%
X68580000Y-15240000D03*
%TO.P,J5,26,Pin_26*%
%TO.N,CLK*%
X71120000Y-15240000D03*
%TO.P,J5,27,Pin_27*%
%TO.N,CLK2*%
X73660000Y-15240000D03*
%TO.P,J5,28,Pin_28*%
%TO.N,INIT_n*%
X76200000Y-15240000D03*
%TO.P,J5,29,Pin_29*%
%TO.N,CONT_n*%
X78740000Y-15240000D03*
%TO.P,J5,30,Pin_30*%
%TO.N,TEST2_n*%
X81280000Y-15240000D03*
%TD*%
D23*
%TO.N,VCC*%
X45720000Y-40640000D03*
X86360000Y-40640000D03*
X45720000Y-27940000D03*
%TO.N,IRQ1*%
X29210000Y-76200000D03*
X27940000Y-83275000D03*
%TO.N,HALT*%
X50800000Y-77470000D03*
%TO.N,IRQ0*%
X25400000Y-83275000D03*
X26670000Y-76200000D03*
%TO.N,INIT_n*%
X83820000Y-21590000D03*
%TO.N,HALT_DBG*%
X50800000Y-82550000D03*
%TO.N,GPIO_TX*%
X66675000Y-64770000D03*
%TD*%
D24*
%TO.N,GND*%
X43220000Y-50840000D02*
X43180000Y-50800000D01*
X48260000Y-71120000D02*
X48260000Y-64770000D01*
X45720000Y-12740000D02*
X45680000Y-12700000D01*
D25*
X15240000Y-64770000D02*
X15240000Y-71120000D01*
D24*
X60960000Y-92710000D02*
X60960000Y-86360000D01*
X43220000Y-55880000D02*
X43220000Y-50840000D01*
X45720000Y-17780000D02*
X45720000Y-12740000D01*
D26*
%TO.N,VCC*%
X45720000Y-40640000D02*
X40640000Y-40640000D01*
D24*
X45720000Y-50800000D02*
X45720000Y-49530000D01*
D26*
X76200000Y-40640000D02*
X73660000Y-40640000D01*
X87780000Y-69850000D02*
X87780000Y-70970000D01*
X81280000Y-27940000D02*
X76200000Y-27940000D01*
X76200000Y-27940000D02*
X76200000Y-40640000D01*
D24*
X45720000Y-50800000D02*
X45720000Y-55880000D01*
X43180000Y-17780000D02*
X43180000Y-12700000D01*
D26*
X81280000Y-60960000D02*
X86360000Y-55880000D01*
X90100000Y-67530000D02*
X87780000Y-69850000D01*
D24*
X12700000Y-71120000D02*
X12700000Y-64770000D01*
D27*
X45720000Y-48260000D02*
X45720000Y-40640000D01*
D26*
X87780000Y-70970000D02*
X89180000Y-72370000D01*
X86360000Y-55880000D02*
X86360000Y-40640000D01*
X89180000Y-81150000D02*
X87780000Y-82550000D01*
X86360000Y-55880000D02*
X90100000Y-59620000D01*
X89180000Y-72370000D02*
X89180000Y-81150000D01*
D27*
X43180000Y-25400000D02*
X43180000Y-20320000D01*
D24*
X45720000Y-49530000D02*
X45720000Y-48260000D01*
D27*
X45720000Y-40640000D02*
X45720000Y-27940000D01*
X45720000Y-27940000D02*
X43180000Y-25400000D01*
D26*
X90100000Y-59620000D02*
X90100000Y-67530000D01*
D24*
X43180000Y-17780000D02*
X43180000Y-20320000D01*
D25*
%TO.N,XTALO*%
X66040000Y-15240000D02*
X66040000Y-17780000D01*
X66040000Y-13970000D02*
X63500000Y-11430000D01*
X66040000Y-15240000D02*
X66040000Y-13970000D01*
X64770000Y-10160000D02*
X63500000Y-11430000D01*
X64770000Y-6985000D02*
X64770000Y-10160000D01*
%TO.N,XTALI*%
X68580000Y-15240000D02*
X68580000Y-17780000D01*
X68580000Y-13970000D02*
X71120000Y-11430000D01*
X69650000Y-9960000D02*
X71120000Y-11430000D01*
X68580000Y-15240000D02*
X68580000Y-13970000D01*
X69650000Y-6985000D02*
X69650000Y-9960000D01*
D28*
%TO.N,AIO3*%
X16605000Y-54515000D02*
X16605000Y-71850000D01*
D25*
X45720000Y-86360000D02*
X45720000Y-92710000D01*
D28*
X17780000Y-53340000D02*
X16605000Y-54515000D01*
D25*
X17780000Y-50800000D02*
X17780000Y-53340000D01*
D28*
X16605000Y-71850000D02*
X24315000Y-79560000D01*
X44762000Y-79560000D02*
X45720000Y-80518000D01*
X24315000Y-79560000D02*
X44762000Y-79560000D01*
X45720000Y-80518000D02*
X45720000Y-86360000D01*
%TO.N,DAL12*%
X24035000Y-61055000D02*
X24035000Y-19145000D01*
X24035000Y-19145000D02*
X25400000Y-17780000D01*
D25*
X25400000Y-15240000D02*
X25400000Y-17780000D01*
X20320000Y-64770000D02*
X20320000Y-71120000D01*
D28*
X20320000Y-64770000D02*
X24035000Y-61055000D01*
%TO.N,DAL14*%
X29115000Y-61055000D02*
X29115000Y-19145000D01*
X29115000Y-19145000D02*
X30480000Y-17780000D01*
D25*
X30480000Y-15240000D02*
X30480000Y-17780000D01*
D28*
X25400000Y-64770000D02*
X29115000Y-61055000D01*
D25*
X25400000Y-64770000D02*
X25400000Y-71120000D01*
%TO.N,DAL0*%
X15240000Y-15240000D02*
X15240000Y-17780000D01*
D28*
X3795000Y-29225000D02*
X3795000Y-66665584D01*
D25*
X22860000Y-86360000D02*
X22860000Y-92710000D01*
D28*
X3795000Y-66665584D02*
X22860000Y-85730584D01*
X15240000Y-17780000D02*
X3795000Y-29225000D01*
D24*
%TO.N,3V3a*%
X58420000Y-92710000D02*
X58420000Y-86360000D01*
D28*
%TO.N,DAL13*%
X26725000Y-18995000D02*
X27940000Y-17780000D01*
D25*
X22860000Y-64770000D02*
X22860000Y-71120000D01*
D28*
X22860000Y-64770000D02*
X26725000Y-60905000D01*
X26725000Y-60905000D02*
X26725000Y-18995000D01*
D25*
X27940000Y-15240000D02*
X27940000Y-17780000D01*
D28*
%TO.N,AIO0*%
X15243490Y-76200698D02*
X20321396Y-81278604D01*
D25*
X35560000Y-86360000D02*
X35560000Y-92710000D01*
D28*
X10160000Y-53340000D02*
X10160000Y-71121396D01*
X35560000Y-81915000D02*
X35560000Y-86360000D01*
D25*
X10160000Y-50800000D02*
X10160000Y-53340000D01*
D28*
X10160000Y-71121396D02*
X15239302Y-76200698D01*
X34923604Y-81278604D02*
X35560000Y-81915000D01*
X15239302Y-76200698D02*
X15243490Y-76200698D01*
X20321396Y-81278604D02*
X34923604Y-81278604D01*
D25*
%TO.N,CLK2_D*%
X58420000Y-71120000D02*
X58420000Y-64770000D01*
D29*
X82834239Y-9875761D02*
X85090000Y-7620000D01*
X82834239Y-53624239D02*
X75498478Y-60960000D01*
X62230000Y-60960000D02*
X58420000Y-64770000D01*
X82834239Y-53624239D02*
X82834239Y-9875761D01*
X75498478Y-60960000D02*
X62230000Y-60960000D01*
X85090000Y-7620000D02*
X86360000Y-7620000D01*
D28*
%TO.N,DAL4*%
X44846584Y-60055416D02*
X49435000Y-55467000D01*
X49435000Y-55467000D02*
X49435000Y-18955000D01*
X42814584Y-60055416D02*
X44846584Y-60055416D01*
X38100000Y-64770000D02*
X42814584Y-60055416D01*
D25*
X38100000Y-64770000D02*
X38100000Y-71120000D01*
X48260000Y-15240000D02*
X48260000Y-17780000D01*
D28*
X49435000Y-18955000D02*
X48260000Y-17780000D01*
X40386000Y-62484000D02*
X41417584Y-61452416D01*
X40386000Y-62484000D02*
X38100000Y-64770000D01*
%TO.N,AIO2*%
X15240000Y-53340000D02*
X14065000Y-54515000D01*
X42545000Y-80010000D02*
X43180000Y-80645000D01*
X14065000Y-71850000D02*
X22225000Y-80010000D01*
X14065000Y-54515000D02*
X14065000Y-71850000D01*
D25*
X43180000Y-86360000D02*
X43180000Y-92710000D01*
D28*
X22225000Y-80010000D02*
X42545000Y-80010000D01*
D25*
X15240000Y-50800000D02*
X15240000Y-53340000D01*
D28*
X43180000Y-80645000D02*
X43180000Y-86360000D01*
D25*
%TO.N,DAL15*%
X33020000Y-15240000D02*
X33020000Y-17780000D01*
X27940000Y-64770000D02*
X27940000Y-71120000D01*
D28*
X27940000Y-64770000D02*
X31655000Y-61055000D01*
X31655000Y-61055000D02*
X31655000Y-19145000D01*
X31655000Y-19145000D02*
X33020000Y-17780000D01*
D25*
%TO.N,SCTL_n*%
X63500000Y-15240000D02*
X63500000Y-17780000D01*
X55880000Y-64770000D02*
X55880000Y-71120000D01*
D26*
X63500000Y-17780000D02*
X59710000Y-21570000D01*
X59710000Y-21570000D02*
X59710000Y-60940000D01*
X59710000Y-60940000D02*
X55880000Y-64770000D01*
D28*
%TO.N,DAL11*%
X21495000Y-19145000D02*
X22860000Y-17780000D01*
D25*
X22860000Y-15240000D02*
X22860000Y-17780000D01*
X17780000Y-64770000D02*
X17780000Y-71120000D01*
D28*
X17780000Y-64770000D02*
X21495000Y-61055000D01*
X21495000Y-61055000D02*
X21495000Y-19145000D01*
%TO.N,DAL3*%
X39275000Y-19145000D02*
X40640000Y-17780000D01*
D25*
X40640000Y-15240000D02*
X40640000Y-17780000D01*
D28*
X35560000Y-64770000D02*
X39275000Y-61055000D01*
D25*
X35560000Y-64770000D02*
X35560000Y-71120000D01*
D28*
X39275000Y-61055000D02*
X39275000Y-19145000D01*
%TO.N,DAL6*%
X7620000Y-17780000D02*
X2445000Y-22955000D01*
X2445000Y-67224772D02*
X12700000Y-77479772D01*
X2445000Y-22955000D02*
X2445000Y-67224772D01*
D25*
X12700000Y-86360000D02*
X12700000Y-92710000D01*
D28*
X12700000Y-77479772D02*
X12700000Y-86360000D01*
D25*
X7620000Y-15240000D02*
X7620000Y-17780000D01*
%TO.N,LED_RGB*%
X45720000Y-64770000D02*
X45720000Y-71120000D01*
D28*
%TO.N,AIO1*%
X20324188Y-80645000D02*
X40005000Y-80645000D01*
X40640000Y-81280000D02*
X40640000Y-86360000D01*
X15429886Y-75750698D02*
X20324188Y-80645000D01*
X12700000Y-53340000D02*
X11375000Y-54665000D01*
X15425698Y-75750698D02*
X15429886Y-75750698D01*
X11375000Y-71700000D02*
X15425698Y-75750698D01*
X40005000Y-80645000D02*
X40640000Y-81280000D01*
D25*
X12700000Y-50800000D02*
X12700000Y-53340000D01*
D28*
X11375000Y-54665000D02*
X11375000Y-71700000D01*
D25*
X40640000Y-86360000D02*
X40640000Y-92710000D01*
D28*
%TO.N,DAL7*%
X15240000Y-79383376D02*
X15240000Y-86360000D01*
D25*
X15240000Y-86360000D02*
X15240000Y-92710000D01*
D28*
X2895000Y-25045000D02*
X2895000Y-67038376D01*
D25*
X10160000Y-15240000D02*
X10160000Y-17780000D01*
D28*
X2895000Y-67038376D02*
X15240000Y-79383376D01*
X10160000Y-17780000D02*
X2895000Y-25045000D01*
%TO.N,DAL5*%
X46228000Y-61214000D02*
X52070000Y-55372000D01*
X52070000Y-19050000D02*
X50800000Y-17780000D01*
X40640000Y-64770000D02*
X44196000Y-61214000D01*
D25*
X40640000Y-64770000D02*
X40640000Y-71120000D01*
D28*
X44196000Y-61214000D02*
X46228000Y-61214000D01*
D25*
X50800000Y-15240000D02*
X50800000Y-17780000D01*
D28*
X52070000Y-55372000D02*
X52070000Y-19050000D01*
%TO.N,DAL10*%
X8945000Y-29155000D02*
X8945000Y-70542792D01*
X20320000Y-81917792D02*
X32387792Y-81917792D01*
D25*
X33020000Y-87376000D02*
X33020000Y-92710000D01*
D28*
X32387792Y-81917792D02*
X33020000Y-82550000D01*
X15241396Y-76835000D02*
X20320000Y-81913604D01*
X33020000Y-82550000D02*
X33020000Y-86360000D01*
D25*
X20320000Y-15240000D02*
X20320000Y-17780000D01*
D28*
X8945000Y-70542792D02*
X15237208Y-76835000D01*
D25*
X33020000Y-86360000D02*
X33020000Y-87376000D01*
D28*
X20320000Y-17780000D02*
X8945000Y-29155000D01*
X20320000Y-81913604D02*
X20320000Y-81917792D01*
X15237208Y-76835000D02*
X15241396Y-76835000D01*
%TO.N,DAL9*%
X15235812Y-77470000D02*
X15240000Y-77470000D01*
D25*
X17780000Y-15240000D02*
X17780000Y-17780000D01*
D28*
X18415000Y-80649188D02*
X20315812Y-82550000D01*
X4245000Y-31315000D02*
X4245000Y-66479188D01*
X20315812Y-82550000D02*
X29845000Y-82550000D01*
X30480000Y-83185000D02*
X30480000Y-86360000D01*
X29845000Y-82550000D02*
X30480000Y-83185000D01*
D25*
X30480000Y-86360000D02*
X30480000Y-92710000D01*
D28*
X17780000Y-17780000D02*
X4245000Y-31315000D01*
X4245000Y-66479188D02*
X15235812Y-77470000D01*
X18415000Y-80645000D02*
X18415000Y-80649188D01*
X15240000Y-77470000D02*
X18415000Y-80645000D01*
D25*
%TO.N,DAL2*%
X38100000Y-15240000D02*
X38100000Y-17780000D01*
X33020000Y-64770000D02*
X33020000Y-71120000D01*
D28*
X36735000Y-19145000D02*
X38100000Y-17780000D01*
X33020000Y-64770000D02*
X36735000Y-61055000D01*
X36735000Y-61055000D02*
X36735000Y-19145000D01*
D25*
%TO.N,DAL1*%
X30480000Y-64770000D02*
X30480000Y-71120000D01*
D28*
X34195000Y-19145000D02*
X35560000Y-17780000D01*
X34195000Y-61055000D02*
X34195000Y-19145000D01*
X30480000Y-64770000D02*
X34195000Y-61055000D01*
D25*
X35560000Y-15240000D02*
X35560000Y-17780000D01*
D26*
%TO.N,ALE_n*%
X57130000Y-19170000D02*
X57130000Y-60980000D01*
X57130000Y-60980000D02*
X53340000Y-64770000D01*
D25*
X53340000Y-64770000D02*
X53340000Y-71120000D01*
X58420000Y-15240000D02*
X58420000Y-17780000D01*
D26*
X58420000Y-17780000D02*
X57080000Y-19120000D01*
X57080000Y-19120000D02*
X57130000Y-19170000D01*
D28*
%TO.N,DAL8*%
X12700000Y-17780000D02*
X3345000Y-27135000D01*
X3345000Y-66851980D02*
X20320000Y-83826980D01*
D25*
X20320000Y-86360000D02*
X20320000Y-92710000D01*
D28*
X20320000Y-83826980D02*
X20320000Y-86360000D01*
D25*
X12700000Y-15240000D02*
X12700000Y-17780000D01*
D28*
X3345000Y-27135000D02*
X3345000Y-66851980D01*
%TO.N,BUFCTL_n*%
X54705000Y-55277000D02*
X53721000Y-56261000D01*
X55880000Y-17780000D02*
X54705000Y-18955000D01*
X53721000Y-56261000D02*
X47498000Y-62484000D01*
X54705000Y-18955000D02*
X54705000Y-55277000D01*
X54610000Y-55372000D02*
X54356000Y-55626000D01*
X45466000Y-62484000D02*
X47498000Y-62484000D01*
X54356000Y-55626000D02*
X53721000Y-56261000D01*
D25*
X55880000Y-15240000D02*
X55880000Y-17780000D01*
X43180000Y-64770000D02*
X43180000Y-71120000D01*
D28*
X43180000Y-64770000D02*
X45466000Y-62484000D01*
D25*
%TO.N,FPE_n*%
X22860000Y-50800000D02*
X22860000Y-53340000D01*
D28*
X22860000Y-48260000D02*
X22860000Y-50800000D01*
%TO.N,PWRF_n*%
X20320000Y-48260000D02*
X20320000Y-50800000D01*
D25*
X20320000Y-50800000D02*
X20320000Y-53340000D01*
D28*
%TO.N,EVENT_n*%
X21590000Y-64378299D02*
X21590000Y-74931396D01*
X25400000Y-60568299D02*
X21590000Y-64378299D01*
X25398604Y-78740000D02*
X52070000Y-78740000D01*
X25400000Y-53340000D02*
X25400000Y-60568299D01*
D25*
X25400000Y-50800000D02*
X25400000Y-53340000D01*
D28*
X21590000Y-74931396D02*
X25398604Y-78740000D01*
X53340000Y-80010000D02*
X53340000Y-86360000D01*
X52070000Y-78740000D02*
X53340000Y-80010000D01*
D25*
X53340000Y-86360000D02*
X53340000Y-92710000D01*
D28*
%TO.N,IRQ1*%
X33020000Y-53340000D02*
X33020000Y-60568299D01*
X27940000Y-83275000D02*
X27940000Y-86360000D01*
X33020000Y-60568299D02*
X29210000Y-64378299D01*
D25*
X27940000Y-86360000D02*
X27940000Y-92710000D01*
X33020000Y-50800000D02*
X33020000Y-53340000D01*
D28*
X29210000Y-76200000D02*
X29210000Y-64378299D01*
D25*
%TO.N,BS0*%
X48260000Y-50800000D02*
X48260000Y-53340000D01*
%TO.N,HALT*%
X27940000Y-50800000D02*
X27940000Y-53340000D01*
D28*
X24130000Y-64378299D02*
X24130000Y-76200000D01*
X81280000Y-87050000D02*
X78160000Y-87050000D01*
X27940000Y-60568299D02*
X24130000Y-64378299D01*
X27940000Y-53340000D02*
X27940000Y-60568299D01*
X77470000Y-86360000D02*
X77470000Y-82550000D01*
X24130000Y-76200000D02*
X25400000Y-77470000D01*
X27940000Y-48260000D02*
X27940000Y-50800000D01*
X50800000Y-77470000D02*
X25400000Y-77470000D01*
X78160000Y-87050000D02*
X77470000Y-86360000D01*
D25*
%TO.N,DAL17*%
X68580000Y-50800000D02*
X68580000Y-53340000D01*
D28*
%TO.N,IRQ3*%
X38100000Y-48260000D02*
X38100000Y-50800000D01*
D25*
X38100000Y-50800000D02*
X38100000Y-53340000D01*
%TO.N,DMR_n*%
X73660000Y-50800000D02*
X73660000Y-53340000D01*
D28*
X73660000Y-48260000D02*
X73660000Y-50800000D01*
D25*
%TO.N,BS1*%
X50800000Y-50800000D02*
X50800000Y-53340000D01*
%TO.N,IRQ0*%
X25400000Y-86360000D02*
X25400000Y-92710000D01*
X30480000Y-50800000D02*
X30480000Y-53340000D01*
D28*
X25400000Y-83275000D02*
X25400000Y-86360000D01*
X26670000Y-76200000D02*
X26670000Y-64378299D01*
X30480000Y-60568299D02*
X26670000Y-64378299D01*
X30480000Y-53340000D02*
X30480000Y-60568299D01*
D25*
%TO.N,MAP_n*%
X53340000Y-50800000D02*
X53340000Y-53340000D01*
%TO.N,DAL16*%
X71120000Y-50800000D02*
X71120000Y-53340000D01*
%TO.N,PRDC_n*%
X78740000Y-50800000D02*
X78740000Y-53340000D01*
D28*
%TO.N,ABORT_n*%
X52125000Y-58493396D02*
X55880000Y-54738396D01*
X54515000Y-93196701D02*
X54515000Y-76050000D01*
X54515000Y-76050000D02*
X52125000Y-73660000D01*
D25*
X48260000Y-86360000D02*
X48260000Y-92710000D01*
X55880000Y-50800000D02*
X55880000Y-53340000D01*
D28*
X48260000Y-92710000D02*
X49435000Y-93885000D01*
X52125000Y-73660000D02*
X52125000Y-58493396D01*
X54515000Y-93196701D02*
X53826701Y-93885000D01*
X53826701Y-93885000D02*
X49435000Y-93885000D01*
X55880000Y-54738396D02*
X55880000Y-53340000D01*
D25*
%TO.N,DAL20*%
X60960000Y-50800000D02*
X60960000Y-53340000D01*
%TO.N,DAL19*%
X63500000Y-50800000D02*
X63500000Y-53340000D01*
%TO.N,TEST1_n*%
X7620000Y-50800000D02*
X7620000Y-53340000D01*
D28*
X7620000Y-50800000D02*
X7620000Y-48260000D01*
D25*
%TO.N,DAL21*%
X58420000Y-50800000D02*
X58420000Y-53340000D01*
%TO.N,DAL18*%
X66040000Y-50800000D02*
X66040000Y-53340000D01*
D28*
%TO.N,PARITY_n*%
X40640000Y-48260000D02*
X40640000Y-50800000D01*
D25*
X40640000Y-50800000D02*
X40640000Y-53340000D01*
D28*
%TO.N,MISS_n*%
X76200000Y-48260000D02*
X76200000Y-50800000D01*
D25*
X76200000Y-50800000D02*
X76200000Y-53340000D01*
%TO.N,IRQ2*%
X35560000Y-50800000D02*
X35560000Y-53340000D01*
D28*
X35560000Y-48260000D02*
X35560000Y-50800000D01*
D26*
%TO.N,Net-(LED1-K)*%
X86360000Y-60960000D02*
X83820000Y-60960000D01*
X88900000Y-64770000D02*
X88900000Y-63500000D01*
X88900000Y-63500000D02*
X86360000Y-60960000D01*
D25*
%TO.N,STRB_n*%
X60960000Y-15240000D02*
X60960000Y-17780000D01*
D28*
%TO.N,DV*%
X53340000Y-17780000D02*
X53340000Y-20320000D01*
D25*
X53340000Y-15240000D02*
X53340000Y-17780000D01*
D28*
%TO.N,INIT_n*%
X74668326Y-62603326D02*
X83820000Y-53451651D01*
X39725000Y-94335000D02*
X61208833Y-94335000D01*
D25*
X76200000Y-15240000D02*
X76200000Y-17780000D01*
D28*
X66301674Y-62603326D02*
X74668326Y-62603326D01*
X63555826Y-65349174D02*
X66301674Y-62603326D01*
X83820000Y-53451651D02*
X83820000Y-21590000D01*
X61208833Y-94335000D02*
X63555826Y-91988007D01*
D25*
X38100000Y-86360000D02*
X38100000Y-92710000D01*
D28*
X76200000Y-20320000D02*
X76200000Y-17780000D01*
X38100000Y-92710000D02*
X39725000Y-94335000D01*
X63555826Y-91988007D02*
X63555826Y-65349174D01*
D25*
%TO.N,CLK2*%
X73660000Y-15240000D02*
X73660000Y-17780000D01*
D29*
X78740000Y-7620000D02*
X78740000Y-10160000D01*
X78740000Y-10160000D02*
X73660000Y-15240000D01*
D25*
%TO.N,CLK*%
X71120000Y-15240000D02*
X71120000Y-17780000D01*
D28*
%TO.N,TEST2_n*%
X81280000Y-17780000D02*
X81280000Y-20320000D01*
D25*
X81280000Y-15240000D02*
X81280000Y-17780000D01*
D28*
%TO.N,HALT_DBG*%
X50800000Y-86360000D02*
X50800000Y-82550000D01*
D25*
X50800000Y-86360000D02*
X50800000Y-92710000D01*
%TO.N,INIT_SW*%
X17780000Y-86360000D02*
X17780000Y-92710000D01*
D28*
X85725000Y-93345000D02*
X85725000Y-76405000D01*
X19855000Y-94785000D02*
X84285000Y-94785000D01*
X84285000Y-94785000D02*
X85725000Y-93345000D01*
X85725000Y-76405000D02*
X87780000Y-74350000D01*
X17780000Y-92710000D02*
X19855000Y-94785000D01*
%TO.N,CONT_n*%
X57245000Y-64283299D02*
X67405000Y-54123299D01*
D25*
X55880000Y-86360000D02*
X55880000Y-92710000D01*
D28*
X67405000Y-54123299D02*
X67405000Y-31020000D01*
D25*
X78740000Y-15240000D02*
X78740000Y-17780000D01*
D28*
X55880000Y-86360000D02*
X57245000Y-84995000D01*
X57245000Y-84995000D02*
X57245000Y-64283299D01*
X67405000Y-31020000D02*
X78740000Y-19685000D01*
X78740000Y-19685000D02*
X78740000Y-17780000D01*
%TO.N,GPIO_TX*%
X86995000Y-27940000D02*
X88900000Y-27940000D01*
X74840000Y-64770000D02*
X85635000Y-53975000D01*
X66675000Y-64770000D02*
X74840000Y-64770000D01*
X85635000Y-29300000D02*
X86995000Y-27940000D01*
D25*
X60960000Y-64770000D02*
X60960000Y-71120000D01*
D28*
X85635000Y-53975000D02*
X85635000Y-29300000D01*
D24*
%TO.N,3V3b*%
X50800000Y-71120000D02*
X50800000Y-64770000D01*
%TD*%
M02*
